SplineFontDB: 3.0
FontName: Essays1743-Italic
FullName: Essays 1743 Italic
FamilyName: Essays1743
Weight: Medium
Copyright: Created by John Stracke with PfaEdit 1.0 (http://pfaedit.sf.net)
FontLog: "2010-03-17: Adding 6 arrows.  Want to add more.+AAoACgAA-2010-03-07: Adding a bunch of characters to round out some scripts (pointed out by Fedora's QA bot, which runs fc-query).+AAoACgAA-2010-03-02: A whole bunch of cleanups (prodded by +AAoA-Fedora's font sanity checker, and a couple of people whose OSes were rendering capital O as a solid circle).  Jumping version # to 1.1.+AAoACgAA-2006-01-09: Moved the dot of uni1E46 to the center (thanks to Nathan Hill).  Calling this 1.001.+AAoACgAA-2004-10-09: Added bunch of other Latin-derived chars.  Calling this 0.2; don't expect much change before 1.0.+AAoACgAA-2004-10-04: Finished Latin-1 and Latin Extended A (plus miscellaneous other chars).+AAoACgAA-2004-9-21: Finished the basic alphabet (Roman alphabet +------------- +AH8A +------------- +AMMAnwAA).+AAoACgAA-2004-6-7: Began." 
Version: 001.203
ItalicAngle: -10
UnderlinePosition: -100
UnderlineWidth: 50
Ascent: 759
Descent: 265
LayerCount: 2
Layer: 0 0 "Back"  1
Layer: 1 0 "Fore"  0
NeedsXUIDChange: 1
XUID: [1021 117 711671440 7125089]
FSType: 0
OS2Version: 0
OS2_WeightWidthSlopeOnly: 0
OS2_UseTypoMetrics: 0
CreationTime: 1168432895
ModificationTime: 1269039956
PfmFamily: 17
TTFWeight: 500
TTFWidth: 5
LineGap: 90
VLineGap: 0
Panose: 2 0 6 2 0 0 0 0 0 0
OS2TypoAscent: 0
OS2TypoAOffset: 1
OS2TypoDescent: 0
OS2TypoDOffset: 1
OS2TypoLinegap: 0
OS2WinAscent: 0
OS2WinAOffset: 1
OS2WinDescent: 0
OS2WinDOffset: 1
HheadAscent: 0
HheadAOffset: 1
HheadDescent: 0
HheadDOffset: 1
OS2Vendor: 'PfEd'
Lookup: 4 0 1 "'liga' Standard Ligatures in Latin lookup 0"  {"'liga' Standard Ligatures in Latin lookup 0 subtable"  } ['liga' ('latn' <'dflt' > ) ]
Lookup: 4 0 0 "'frac' Diagonal Fractions lookup 1"  {"'frac' Diagonal Fractions lookup 1 subtable"  } ['frac' ('DFLT' <'dflt' > ) ]

StartChar: exclam
Encoding: 33 33 1
Width: 283
Flags: HW
LayerCount: 2
Fore
SplineSet
175 237 m 1
 160 225 142 214 128 214 c 0
 123 214 118 216 114 219 c 1
 136 324 145 323 166 390 c 24
 204 513 216 576 268 705 c 1
 293 726 317 736 338 736 c 0
 356 736 371 729 383 714 c 1
 340 585 323 543 274 435 c 24
 240 357 242 369 175 237 c 1
32 12 m 0
 26 17 23 23 23 31 c 0
 23 38 26 47 30 57 c 8
 42 82 58 100 85 111 c 16
 98 116 111 119 122 119 c 0
 137 119 148 114 154 102 c 0
 156 97 157 92 157 86 c 0
 157 64 141 39 116 21 c 0
 99 8 81 2 64 2 c 0
 52 2 41 5 32 12 c 0
EndSplineSet
Validated: 1
EndChar

StartChar: numbersign
Encoding: 35 35 3
Width: 560
Flags: HW
LayerCount: 2
Fore
SplineSet
441 442 m 1
 452 458 466 473 483 486 c 0
 495 495 506 500 515 500 c 0
 528 500 537 492 543 478 c 0
 546 469 548 460 548 451 c 0
 548 447 548 442 547 438 c 1
 566 435 581 429 591 416 c 0
 598 407 602 397 602 387 c 0
 602 373 593 358 574 344 c 0
 554 329 532 321 510 316 c 1
 509 311 507 307 506 302 c 0
 500 279 497 261 493 243 c 1
 505 239 514 233 521 224 c 0
 528 215 532 205 532 195 c 0
 532 181 523 166 504 152 c 0
 485 138 465 130 444 125 c 1
 435 108 424 94 408 82 c 0
 389 67 372 58 357 58 c 0
 347 58 339 62 333 72 c 0
 326 83 323 96 323 110 c 0
 323 112 323 114 323 116 c 1
 321 116 318 116 315 116 c 0
 291 115 268 114 245 113 c 1
 237 102 228 91 216 82 c 0
 197 67 180 58 165 58 c 0
 155 58 147 62 141 72 c 0
 134 84 131 96 131 110 c 0
 131 114 132 119 132 123 c 1
 114 129 100 138 90 152 c 0
 86 157 85 163 85 168 c 0
 85 184 99 201 122 215 c 0
 136 223 149 229 163 232 c 1
 165 237 167 243 169 248 c 0
 177 272 184 296 192 319 c 1
 179 325 168 333 160 344 c 0
 156 349 155 355 155 360 c 0
 155 376 169 393 192 407 c 0
 207 416 222 422 237 425 c 1
 252 448 269 469 291 486 c 0
 303 495 314 500 323 500 c 0
 336 500 345 492 351 478 c 0
 355 470 356 461 356 452 c 0
 356 445 355 439 354 432 c 1
 362 433 369 433 377 434 c 0
 402 437 421 440 441 442 c 1
380 308 m 1
 358 307 336 306 315 305 c 1
 315 304 314 303 314 302 c 0
 308 278 305 260 300 241 c 1
 303 242 305 242 307 242 c 0
 328 244 345 247 361 249 c 1
 368 269 374 289 380 308 c 1
EndSplineSet
Validated: 1
EndChar

StartChar: dollar
Encoding: 36 36 4
Width: 338
VWidth: 1080
Flags: HW
LayerCount: 2
Fore
SplineSet
154 42 m 1
 153 42 135 37 117 37 c 0
 100 37 83 41 79 57 c 1
 84 93 99 117 99 121 c 0
 99 122 99 122 99 122 c 8
 75 129 55 131 48 154 c 16
 45 165 43 174 43 184 c 0
 43 207 53 230 83 263 c 0
 89 270 94 273 97 273 c 0
 120 273 117 172 165 172 c 0
 167 172 168 172 169 172 c 8
 208 176 243 208 259 246 c 16
 262 253 263 258 263 264 c 0
 263 282 248 294 236 309 c 8
 206 342 138 315 130 362 c 16
 128 375 126 385 126 393 c 0
 126 410 131 423 144 453 c 8
 167 510 214 542 274 572 c 16
 282 576 295 618 317 661 c 1
 323 663 346 672 363 672 c 0
 375 672 385 668 385 654 c 0
 385 653 385 653 385 652 c 1
 376 619 361 598 361 589 c 0
 361 587 362 585 365 584 c 8
 399 574 419 558 421 521 c 16
 421 519 421 516 421 514 c 0
 421 491 415 481 381 441 c 0
 377 437 374 435 372 435 c 0
 361 435 367 485 351 499 c 0
 337 511 327 523 310 523 c 0
 306 523 301 523 296 521 c 8
 264 512 232 488 228 458 c 16
 228 456 227 453 227 451 c 0
 227 416 280 426 303 401 c 0
 333 368 364 352 364 304 c 0
 364 302 364 301 364 299 c 8
 362 252 344 214 301 174 c 24
 264 139 230 132 184 122 c 16
 178 121 160 43 154 42 c 1
EndSplineSet
Validated: 1
EndChar

StartChar: percent
Encoding: 37 37 5
Width: 793
VWidth: 1080
Flags: HW
LayerCount: 2
Fore
SplineSet
524 472 m 0
 636 575 617 587 720 681 c 1
 719 702 676 685 672 706 c 16
 672 707 672 709 672 710 c 0
 672 722 682 734 695 740 c 1
 765 740 784 745 799 745 c 0
 814 745 825 740 880 720 c 1
 882 716 883 711 883 706 c 0
 883 693 875 678 863 669 c 0
 858 666 854 665 850 665 c 0
 841 665 832 671 821 671 c 0
 818 671 814 671 811 669 c 1
 653 527 674 525 554 403 c 0
 470 312 416 268 301 134 c 1
 296 123 280 112 280 100 c 0
 280 98 280 97 281 95 c 0
 282 90 287 88 293 88 c 0
 300 88 308 90 315 90 c 0
 321 90 325 89 326 83 c 0
 327 81 327 80 327 78 c 0
 327 55 293 45 274 23 c 1
 205 23 176 17 136 17 c 0
 116 17 92 18 60 23 c 1
 48 41 26 48 26 68 c 0
 26 70 26 72 27 75 c 8
 32 98 53 108 76 117 c 16
 81 119 85 119 89 119 c 0
 106 119 121 109 135 109 c 0
 141 109 147 111 153 117 c 0
 336 299 380 347 524 472 c 0
184 540 m 8
 208 552 221 567 229 593 c 16
 231 600 232 607 232 613 c 0
 232 627 228 640 220 656 c 8
 211 672 203 682 186 689 c 16
 174 694 163 697 151 697 c 0
 140 697 128 694 116 687 c 8
 95 676 87 661 80 638 c 16
 77 628 75 618 75 609 c 0
 75 598 78 587 85 575 c 8
 98 552 115 542 140 536 c 16
 147 534 153 533 159 533 c 0
 167 533 175 535 184 540 c 8
109 506 m 0
 80 521 56 539 42 573 c 16
 36 590 32 606 32 621 c 0
 32 639 37 657 47 677 c 8
 61 704 76 719 104 731 c 16
 120 737 134 740 148 740 c 0
 164 740 180 736 199 731 c 8
 232 720 255 711 273 681 c 16
 285 661 291 642 291 622 c 0
 291 606 288 590 282 573 c 8
 270 536 253 512 217 497 c 16
 200 490 185 487 171 487 c 0
 151 487 132 493 109 506 c 0
619 102 m 8
 643 114 656 129 664 155 c 16
 666 162 667 169 667 175 c 0
 667 189 663 202 655 218 c 8
 646 234 638 244 621 251 c 16
 609 256 598 259 586 259 c 0
 575 259 563 256 551 249 c 8
 530 238 522 223 515 200 c 16
 512 190 510 180 510 171 c 0
 510 160 513 149 520 137 c 8
 533 114 550 104 575 98 c 16
 582 96 588 95 594 95 c 0
 602 95 610 97 619 102 c 8
544 68 m 0
 515 83 491 101 477 135 c 16
 471 152 467 168 467 183 c 0
 467 201 472 219 482 239 c 8
 496 266 511 281 539 293 c 16
 555 299 569 302 583 302 c 0
 599 302 615 298 634 293 c 8
 667 282 690 273 708 243 c 16
 720 223 726 204 726 184 c 0
 726 168 723 152 717 135 c 8
 705 98 688 74 652 59 c 16
 635 52 620 49 606 49 c 0
 586 49 567 55 544 68 c 0
EndSplineSet
Validated: 1
EndChar

StartChar: ampersand
Encoding: 38 38 6
Width: 943
Flags: HW
LayerCount: 2
Fore
SplineSet
346 639 m 0
 339 631 331 629 322 629 c 0
 307 629 289 637 273 637 c 0
 265 637 257 635 250 630 c 0
 225 613 202 592 202 565 c 0
 202 560 203 555 205 549 c 0
 213 528 234 526 257 526 c 0
 261 526 265 526 268 526 c 0
 291 526 313 525 322 504 c 0
 325 497 327 489 327 482 c 0
 327 459 310 438 290 420 c 0
 278 409 263 407 248 407 c 0
 238 407 228 408 218 408 c 0
 200 408 185 405 178 387 c 0
 160 341 152 310 152 285 c 0
 152 253 164 230 186 195 c 8
 217 147 261 141 316 127 c 16
 351 118 380 113 408 113 c 0
 435 113 461 117 493 126 c 8
 552 142 594 156 628 207 c 16
 653 244 664 278 664 315 c 0
 664 335 661 356 655 378 c 8
 645 417 630 446 592 459 c 16
 576 465 561 468 545 468 c 0
 517 468 492 457 475 432 c 0
 470 425 468 418 468 411 c 0
 468 399 474 387 484 378 c 0
 490 373 497 371 504 371 c 0
 526 371 552 389 572 389 c 0
 580 389 587 386 592 378 c 0
 597 371 599 364 599 356 c 0
 599 333 579 311 556 297 c 0
 538 286 518 280 499 280 c 0
 477 280 456 288 439 306 c 0
 416 329 407 356 407 385 c 0
 407 412 415 441 430 468 c 8
 453 511 491 518 538 531 c 16
 547 534 557 535 567 535 c 0
 625 535 689 496 734 496 c 0
 755 496 771 505 781 531 c 0
 782 534 782 536 782 538 c 0
 782 565 716 560 709 594 c 0
 708 601 707 608 707 616 c 0
 707 650 723 680 756 692 c 0
 767 696 778 698 790 698 c 0
 832 698 874 673 880 630 c 0
 881 623 881 615 881 607 c 0
 881 563 867 508 826 471 c 0
 814 460 800 457 785 457 c 0
 771 457 756 460 742 460 c 0
 726 460 711 456 700 441 c 0
 696 435 694 429 694 423 c 0
 694 404 711 384 711 360 c 0
 712 314 722 278 722 241 c 0
 722 210 714 179 685 141 c 8
 641 85 617 35 547 21 c 16
 486 8 442 -1 392 -1 c 0
 359 -1 323 3 277 14 c 8
 208 30 160 46 118 103 c 16
 80 155 56 205 56 260 c 0
 56 283 61 307 70 333 c 0
 127 492 132 414 169 468 c 1
 159 513 124 519 124 558 c 24
 125 621 143 665 200 702 c 0
 232 719 267 735 299 735 c 0
 319 735 337 728 353 711 c 0
 362 701 366 691 366 680 c 0
 366 665 358 651 346 639 c 0
EndSplineSet
Validated: 1
EndChar

StartChar: quotesingle
Encoding: 39 39 7
Width: 243
Flags: HW
LayerCount: 2
Fore
SplineSet
149 492 m 1
 114 519 114 531 114 567 c 24
 114 604 127 630 152 667 c 24
 176 703 195 736 235 748 c 16
 246 751 257 753 267 753 c 0
 301 753 324 733 336 703 c 0
 340 693 342 682 342 672 c 0
 342 638 323 603 299 562 c 8
 280 527 253 515 227 483 c 24
 164 404 197 276 81 273 c 1
 80 275 79 279 79 283 c 0
 79 314 121 395 149 492 c 1
EndSplineSet
Validated: 1
EndChar

StartChar: parenleft
Encoding: 40 40 8
Width: 256
Flags: HW
LayerCount: 2
Fore
SplineSet
4 -234 m 0
 -1 -188 -4 -153 -4 -117 c 0
 -4 -77 -0 -38 11 15 c 8
 40 161 63 250 150 393 c 24
 222 512 281 585 394 672 c 0
 397 674 400 675 402 675 c 0
 411 675 419 665 419 656 c 0
 419 652 418 648 415 645 c 0
 304 513 271 474 208 357 c 24
 144 237 113 164 97 45 c 16
 94 20 92 2 92 -14 c 0
 92 -65 108 -87 122 -207 c 0
 122 -208 122 -209 122 -209 c 0
 122 -234 74 -253 39 -253 c 0
 20 -253 5 -247 4 -234 c 0
EndSplineSet
Validated: 1
EndChar

StartChar: asterisk
Encoding: 42 42 10
Width: 534
Flags: HW
LayerCount: 2
Fore
SplineSet
447 549 m 1
 509 537 585 560 585 506 c 0
 585 505 585 505 585 504 c 0
 584 475 569 470 545 470 c 0
 529 470 510 472 488 472 c 0
 474 472 458 471 441 468 c 1
 471 416 528 381 528 350 c 0
 528 341 524 333 513 324 c 0
 506 318 499 316 494 316 c 0
 468 316 460 374 405 414 c 1
 390 306 413 261 357 261 c 0
 355 261 353 261 351 261 c 0
 321 262 315 273 315 296 c 0
 315 313 318 335 318 366 c 0
 318 380 317 396 315 414 c 1
 275 383 261 298 216 298 c 0
 205 298 191 304 174 318 c 0
 165 326 161 333 161 340 c 0
 161 377 260 411 288 459 c 1
 257 457 205 442 165 442 c 0
 133 442 109 451 107 482 c 0
 107 484 107 485 107 487 c 0
 107 520 136 525 174 525 c 0
 190 525 207 524 224 524 c 0
 241 524 258 525 273 528 c 1
 231 575 165 593 165 624 c 0
 165 630 167 637 174 645 c 0
 184 657 194 663 205 663 c 0
 236 663 271 614 318 564 c 1
 318 570 318 577 318 583 c 0
 318 628 314 659 314 680 c 0
 314 707 321 716 354 717 c 0
 355 717 l 0
 381 717 386 703 386 681 c 0
 386 667 384 649 384 628 c 0
 384 609 386 589 393 567 c 1
 428 621 458 673 494 673 c 0
 504 673 514 669 525 660 c 0
 533 654 536 646 536 639 c 0
 536 607 476 568 447 549 c 1
EndSplineSet
Validated: 1
EndChar

StartChar: plus
Encoding: 43 43 11
Width: 346
Flags: HW
LayerCount: 2
Fore
SplineSet
227 283 m 1
 230 283 233 283 237 282 c 8
 265 278 287 277 303 255 c 16
 313 242 319 227 319 213 c 0
 319 203 316 193 309 183 c 0
 291 157 267 150 238 148 c 9
 235 121 234 99 212 82 c 16
 199 73 184 67 170 67 c 0
 160 67 150 70 140 76 c 0
 114 94 107 117 105 145 c 1
 77 147 52 156 33 183 c 0
 27 191 24 200 24 210 c 0
 24 222 30 235 39 246 c 0
 57 266 77 270 100 270 c 1
 102 303 110 331 140 352 c 0
 148 358 158 361 167 361 c 0
 179 361 192 356 202 346 c 0
 223 328 226 307 227 283 c 1
EndSplineSet
Validated: 1
EndChar

StartChar: comma
Encoding: 44 44 12
Width: 250
Flags: HW
LayerCount: 2
Fore
SplineSet
11 -116 m 0
 51 -58 83 -66 120 -25 c 16
 132 -12 150 -3 150 12 c 0
 150 14 150 16 149 19 c 0
 144 33 132 35 119 35 c 0
 112 35 106 34 100 34 c 0
 87 34 75 36 67 46 c 0
 53 62 46 80 46 99 c 0
 46 111 49 123 55 136 c 8
 67 163 90 170 118 178 c 16
 139 184 160 190 178 190 c 0
 195 190 210 185 223 172 c 0
 249 146 258 117 258 85 c 0
 258 52 248 16 235 -20 c 8
 220 -64 192 -81 155 -109 c 24
 138 -122 128 -130 107 -133 c 16
 90 -135 65 -138 45 -138 c 0
 24 -138 7 -135 7 -125 c 0
 7 -123 8 -120 11 -116 c 0
EndSplineSet
Validated: 1
EndChar

StartChar: hyphen
Encoding: 45 45 13
Width: 346
Flags: HW
LayerCount: 2
Fore
SplineSet
33 183 m 0
 27 191 24 200 24 210 c 0
 24 222 30 235 39 246 c 8
 70 281 110 265 156 273 c 16
 181 277 198 283 221 283 c 0
 226 283 231 283 237 282 c 8
 265 278 287 277 303 255 c 16
 313 242 319 227 319 213 c 0
 319 203 316 193 309 183 c 8
 282 143 240 149 192 147 c 16
 168 146 145 144 123 144 c 0
 87 144 56 151 33 183 c 0
EndSplineSet
Validated: 1
EndChar

StartChar: period
Encoding: 46 46 14
Width: 236
VWidth: 1080
Flags: HW
LayerCount: 2
Fore
SplineSet
69 27 m 8
 50 38 44 53 39 75 c 16
 35 93 31 111 31 128 c 0
 31 147 36 165 53 180 c 0
 76 201 104 211 132 211 c 0
 159 211 186 202 209 184 c 0
 235 164 248 136 248 106 c 0
 248 90 244 74 238 58 c 8
 229 34 208 29 184 22 c 16
 162 16 143 11 124 11 c 0
 106 11 88 16 69 27 c 8
EndSplineSet
Validated: 1
EndChar

StartChar: slash
Encoding: 47 47 15
Width: 770
VWidth: 1080
Flags: HW
LayerCount: 2
Fore
SplineSet
524 472 m 0
 636 575 617 587 720 681 c 1
 719 702 676 685 672 706 c 16
 672 707 672 709 672 710 c 0
 672 722 682 734 695 740 c 1
 765 740 784 745 799 745 c 0
 814 745 825 740 880 720 c 1
 882 716 883 711 883 706 c 0
 883 693 875 678 863 669 c 0
 858 666 854 665 850 665 c 0
 841 665 832 671 821 671 c 0
 818 671 814 671 811 669 c 1
 653 527 674 525 554 403 c 0
 470 312 416 268 301 134 c 1
 296 123 280 112 280 100 c 0
 280 98 280 97 281 95 c 0
 282 90 287 88 293 88 c 0
 300 88 308 90 315 90 c 0
 321 90 325 89 326 83 c 0
 327 81 327 80 327 78 c 0
 327 55 293 45 274 23 c 1
 205 23 176 17 136 17 c 0
 116 17 92 18 60 23 c 1
 48 41 26 48 26 68 c 0
 26 70 26 72 27 75 c 8
 32 98 53 108 76 117 c 16
 81 119 85 119 89 119 c 0
 106 119 121 109 135 109 c 0
 141 109 147 111 153 117 c 0
 336 299 380 347 524 472 c 0
EndSplineSet
Validated: 1
EndChar

StartChar: zero
Encoding: 48 48 16
Width: 560
Flags: HW
LayerCount: 2
Fore
SplineSet
300 101 m 8
 357 126 395 155 429 207 c 16
 451 242 459 269 459 298 c 0
 459 309 458 321 456 333 c 8
 452 366 442 386 413 400 c 16
 392 410 372 415 350 415 c 0
 327 415 302 409 272 396 c 8
 222 374 194 343 164 297 c 16
 139 259 125 228 125 194 c 0
 125 187 126 179 127 171 c 8
 137 125 164 107 210 93 c 16
 222 89 233 87 245 87 c 0
 262 87 279 92 300 101 c 8
125 33 m 0
 80 65 44 99 41 168 c 16
 41 171 41 174 41 177 c 0
 41 247 65 305 126 375 c 8
 173 430 215 460 280 483 c 16
 317 496 347 501 375 501 c 0
 406 501 436 494 469 483 c 8
 528 463 568 444 582 384 c 16
 585 368 587 353 587 338 c 0
 587 283 565 231 521 168 c 8
 470 94 418 46 335 16 c 16
 296 2 264 -5 234 -5 c 0
 196 -5 162 7 125 33 c 0
EndSplineSet
Validated: 1
EndChar

StartChar: one
Encoding: 49 49 17
Width: 560
Flags: HW
VStem: 372 0<96 318>
LayerCount: 2
Fore
SplineSet
70 15 m 1
 62 15 59 19 59 26 c 0
 59 42 78 71 96 87 c 0
 101 92 106 93 111 93 c 0
 153 102 l 1
 286 444 129 54 266 405 c 1
 265 415 260 418 253 418 c 0
 247 418 240 415 234 415 c 0
 231 415 228 416 227 420 c 0
 225 425 224 431 224 437 c 0
 224 467 244 503 272 519 c 1
 721 516 159 522 470 519 c 1
 478 510 481 499 481 486 c 0
 481 466 471 442 452 420 c 8
 442 409 460 420 418 405 c 1
 384 284 376 244 310 96 c 1
 310 84 327 95 330 87 c 16
 334 78 337 65 337 53 c 0
 337 34 331 17 314 16 c 1
 70 15 l 1
EndSplineSet
Validated: 1
EndChar

StartChar: two
Encoding: 50 50 18
Width: 560
Flags: HW
LayerCount: 2
Fore
SplineSet
367 170 m 1
 392 179 409 183 422 183 c 0
 438 183 449 178 462 166 c 1
 394 55 431 105 338 25 c 1
 215 19 185 17 167 17 c 0
 146 17 142 20 22 22 c 0
 18 22 16 24 16 28 c 0
 16 37 28 54 38 64 c 0
 166 194 229 194 336 315 c 0
 360 343 378 371 378 396 c 0
 378 404 377 411 373 418 c 0
 366 432 353 437 337 437 c 0
 322 437 305 433 287 427 c 8
 231 410 225 381 154 334 c 1
 151 347 150 356 150 364 c 0
 150 384 160 389 177 405 c 0
 246 471 262 481 322 498 c 16
 362 510 400 521 431 521 c 0
 459 521 482 512 498 489 c 0
 506 477 510 463 510 449 c 0
 510 412 486 370 457 325 c 8
 410 253 348 238 285 176 c 1
 252 126 287 173 247 120 c 1
 402 126 171 117 343 120 c 1
 354 127 348 157 367 170 c 1
EndSplineSet
Validated: 1
EndChar

StartChar: three
Encoding: 51 51 19
Width: 560
Flags: HW
LayerCount: 2
Fore
SplineSet
113 66 m 1
 108 71 106 77 106 83 c 0
 106 104 127 132 146 156 c 1
 260 246 265 237 367 318 c 0
 379 327 383 339 383 350 c 0
 383 361 379 372 372 381 c 0
 364 391 353 394 340 394 c 0
 332 394 322 393 312 390 c 8
 257 375 244 322 180 300 c 0
 178 299 176 299 175 299 c 0
 172 299 170 301 170 305 c 0
 170 316 183 340 191 354 c 8
 230 420 284 462 342 495 c 0
 418 525 390 518 432 524 c 0
 433 524 435 524 436 524 c 0
 456 524 495 514 522 498 c 0
 529 488 532 477 532 465 c 0
 532 434 511 396 489 357 c 8
 454 296 397 270 358 219 c 1
 359 209 367 207 376 207 c 0
 384 207 394 208 402 208 c 0
 411 208 418 207 423 201 c 0
 435 187 439 172 439 155 c 0
 439 139 436 122 432 102 c 8
 418 29 398 -18 345 -87 c 24
 303 -143 269 -179 206 -207 c 16
 150 -231 94 -253 50 -253 c 0
 21 -253 -3 -245 -19 -222 c 0
 -25 -213 -28 -202 -28 -190 c 0
 -28 -159 -7 -121 27 -96 c 1
 45 -94 55 -94 62 -94 c 0
 77 -94 75 -97 96 -97 c 0
 101 -97 108 -96 117 -96 c 1
 120 -98 121 -101 121 -105 c 0
 121 -115 112 -128 112 -138 c 0
 112 -142 114 -145 117 -147 c 0
 122 -151 128 -152 134 -152 c 0
 149 -152 167 -143 185 -132 c 8
 242 -96 269 -57 296 0 c 16
 307 22 316 42 316 60 c 0
 316 68 314 76 309 84 c 0
 298 100 281 104 261 104 c 0
 250 104 238 103 225 102 c 1
 183 99 178 72 113 66 c 1
EndSplineSet
Validated: 1
EndChar

StartChar: four
Encoding: 52 52 20
Width: 560
Flags: HW
VStem: 240 96<-204 -100.467 -204 24>
LayerCount: 2
Fore
SplineSet
267 114 m 0
 304 216 251 72 316 249 c 1
 313 267 308 286 290 286 c 0
 288 286 286 285 284 285 c 1
 186 189 213 213 142 141 c 1
 135 131 126 120 126 111 c 0
 126 109 127 107 128 105 c 1
 187 107 267 114 267 114 c 0
251 -195 m 1
 229 -213 208 -222 189 -222 c 0
 174 -222 161 -216 151 -204 c 1
 197 -69 206 -60 233 30 c 1
 220 31 209 31 199 31 c 0
 143 31 124 18 86 18 c 0
 68 18 46 21 14 30 c 1
 7 32 5 36 5 41 c 0
 5 53 16 70 25 84 c 1
 316 381 208 291 476 516 c 1
 483 519 490 520 496 520 c 0
 506 520 514 516 518 507 c 1
 478 357 477 369 366 114 c 1
 374 113 382 113 388 113 c 0
 448 113 440 133 530 133 c 0
 544 133 561 132 581 131 c 1
 582 127 583 123 583 120 c 0
 583 85 539 47 497 24 c 1
 476 13 462 9 450 9 c 0
 426 9 410 25 351 25 c 0
 344 25 337 24 330 24 c 1
 270 -141 297 -87 251 -195 c 1
EndSplineSet
Validated: 1
EndChar

StartChar: five
Encoding: 53 53 21
Width: 560
Flags: HW
LayerCount: 2
Fore
SplineSet
23 -92 m 8
 56 -98 32 -149 65 -158 c 16
 78 -161 92 -163 106 -163 c 0
 148 -163 191 -147 232 -110 c 0
 290 -58 327 4 327 59 c 0
 327 76 324 91 317 106 c 0
 310 121 296 126 279 126 c 0
 263 126 244 122 225 118 c 8
 166 105 134 45 77 40 c 24
 64 39 52 41 51 52 c 1
 252 394 206 334 397 534 c 1
 401 535 404 535 407 535 c 0
 438 535 425 481 457 468 c 0
 466 465 473 461 482 461 c 0
 489 461 496 463 505 468 c 8
 545 491 529 541 570 564 c 24
 583 572 592 569 602 564 c 1
 634 548 654 528 654 493 c 0
 654 489 654 484 653 480 c 1
 647 426 563 344 563 344 c 17
 515 348 488 349 472 349 c 0
 452 349 446 347 435 347 c 0
 425 347 410 348 380 352 c 1
 379 354 378 356 378 359 c 0
 378 375 402 398 402 410 c 0
 402 411 401 412 401 413 c 0
 398 419 395 420 390 420 c 0
 383 420 374 418 359 418 c 0
 357 418 356 418 354 418 c 1
 230 202 316 346 195 162 c 9
 227 167 246 172 278 174 c 16
 312 176 340 182 366 182 c 0
 383 182 399 180 416 174 c 8
 444 164 467 156 470 126 c 16
 471 119 471 112 471 105 c 0
 471 40 434 -18 376 -84 c 8
 299 -171 229 -210 125 -246 c 16
 97 -256 75 -260 54 -260 c 0
 37 -260 20 -257 2 -252 c 8
 -41 -240 -73 -229 -81 -186 c 16
 -82 -182 -82 -178 -82 -174 c 0
 -82 -158 -75 -142 -60 -126 c 0
 -38 -104 -13 -91 11 -91 c 0
 15 -91 19 -91 23 -92 c 8
EndSplineSet
Validated: 1
EndChar

StartChar: six
Encoding: 54 54 22
Width: 560
Flags: HW
LayerCount: 2
Fore
SplineSet
439 388 m 0
 421 402 399 408 376 408 c 0
 349 408 320 400 288 386 c 8
 239 364 211 333 187 289 c 16
 164 247 152 212 152 179 c 0
 152 158 157 138 167 118 c 8
 179 93 200 87 232 84 c 16
 242 83 251 82 260 82 c 0
 285 82 309 88 336 107 c 8
 406 154 432 207 452 276 c 16
 458 298 463 318 463 336 c 0
 463 357 457 374 439 388 c 0
295 19 m 16
 262 13 234 8 208 8 c 0
 181 8 155 13 129 27 c 0
 77 53 42 82 42 140 c 0
 42 146 42 152 43 158 c 0
 55 262 71 334 140 441 c 24
 197 528 247 578 340 639 c 24
 443 705 520 746 625 747 c 24
 654 747 671 747 681 718 c 1
 586 661 569 673 503 630 c 24
 418 575 373 553 302 464 c 0
 297 457 294 450 294 444 c 0
 294 438 297 433 302 430 c 1
 385 457 398 468 427 468 c 0
 434 468 443 467 453 466 c 0
 512 459 550 442 567 393 c 16
 576 368 580 344 580 320 c 0
 580 268 559 215 508 154 c 8
 472 111 442 90 392 60 c 24
 356 38 333 27 295 19 c 16
EndSplineSet
Validated: 1
EndChar

StartChar: seven
Encoding: 55 55 23
Width: 560
Flags: HW
HStem: 598 114<225 255>
LayerCount: 2
Fore
SplineSet
-32 -18 m 1
 156 250 133 188 234 322 c 1
 302 412 365 452 403 556 c 1
 403 587 379 598 346 598 c 1
 281 598 278 574 172 514 c 1
 149 514 129 521 129 542 c 0
 129 543 129 543 129 544 c 1
 207 682 206 679 298 745 c 1
 311 751 324 755 335 755 c 0
 348 755 359 750 368 741 c 8
 376 734 360 722 370 712 c 1
 548 712 448 712 676 712 c 1
 372 350 404 404 122 36 c 1
 101 21 78 -7 55 -9 c 0
 -13 -16 28 -18 -32 -18 c 1
EndSplineSet
Validated: 1
EndChar

StartChar: eight
Encoding: 56 56 24
Width: 560
Flags: HW
LayerCount: 2
Fore
SplineSet
259 98 m 8
 288 112 302 131 319 158 c 16
 337 186 349 208 349 233 c 0
 349 236 349 240 348 244 c 8
 345 268 332 277 310 286 c 16
 293 292 278 297 262 297 c 0
 247 297 232 293 214 286 c 8
 185 274 169 258 152 232 c 16
 132 203 124 181 124 155 c 0
 124 151 125 147 125 142 c 8
 127 118 134 104 156 94 c 16
 171 87 185 83 201 83 c 0
 218 83 237 88 259 98 c 8
393 450 m 8
 414 460 423 473 436 492 c 24
 454 516 464 533 467 558 c 16
 467 562 468 566 468 570 c 0
 468 588 463 600 450 612 c 0
 432 627 413 636 390 636 c 0
 379 636 367 634 353 630 c 8
 320 621 299 604 277 576 c 16
 256 550 249 529 249 503 c 0
 249 501 249 500 249 498 c 8
 249 472 255 455 277 444 c 16
 293 436 309 432 326 432 c 0
 346 432 368 438 393 450 c 8
228 358 m 1
 186 392 167 406 165 456 c 16
 165 459 165 463 165 466 c 0
 165 533 185 590 245 654 c 8
 282 692 317 703 363 714 c 16
 395 722 422 726 447 726 c 0
 481 726 511 718 543 702 c 8
 579 684 598 665 603 624 c 16
 603 619 604 614 604 609 c 0
 604 574 591 543 565 504 c 8
 546 476 527 464 499 444 c 24
 459 415 444 414 391 384 c 8
 377 376 394 364 400 354 c 24
 422 319 470 325 477 282 c 16
 478 275 479 268 479 262 c 0
 479 215 452 173 418 120 c 8
 393 80 373 51 330 30 c 16
 283 7 244 -2 207 -2 c 0
 172 -2 139 6 105 20 c 8
 68 35 49 55 46 96 c 16
 46 99 46 102 46 105 c 0
 46 159 70 202 111 258 c 8
 146 305 198 316 228 358 c 1
EndSplineSet
Validated: 1
EndChar

StartChar: nine
Encoding: 57 57 25
Width: 560
Flags: HW
LayerCount: 2
Fore
SplineSet
420 132 m 16
 465 189 480 236 480 290 c 0
 480 301 479 312 478 324 c 8
 475 349 466 363 444 373 c 16
 425 381 408 386 389 386 c 0
 371 386 352 382 330 373 c 8
 300 361 283 344 264 318 c 16
 218 255 194 206 194 146 c 0
 194 142 194 137 194 132 c 8
 196 104 207 89 232 78 c 16
 248 72 262 69 278 69 c 0
 299 69 321 74 349 84 c 8
 379 95 400 106 420 132 c 16
354 32 m 1
 353 32 351 32 350 32 c 0
 329 32 303 18 275 14 c 0
 251 11 232 6 214 6 c 0
 204 6 196 7 186 10 c 8
 144 23 120 38 108 78 c 16
 101 102 97 125 97 148 c 0
 97 194 112 240 146 296 c 8
 190 370 240 418 320 450 c 16
 363 467 401 476 436 476 c 0
 477 476 513 464 546 439 c 0
 575 417 582 389 582 354 c 0
 582 341 581 327 580 312 c 8
 571 208 534 141 473 36 c 24
 424 -49 388 -99 311 -168 c 24
 237 -233 186 -267 99 -300 c 1
 51 -318 38 -318 -22 -318 c 1
 -28 -313 -32 -306 -32 -299 c 0
 -32 -292 -29 -284 -24 -276 c 1
 78 -192 104 -204 183 -150 c 1
 259 -88 300 -70 354 32 c 1
EndSplineSet
Validated: 1
EndChar

StartChar: less
Encoding: 60 60 28
Width: 372
VWidth: 1080
Flags: HW
LayerCount: 2
Fore
SplineSet
335 431 m 16
 349 434 364 435 377 435 c 0
 400 435 420 430 428 416 c 1
 429 414 430 412 430 410 c 0
 430 400 417 385 406 377 c 1
 401 373 396 372 390 372 c 0
 384 372 377 373 371 373 c 0
 367 373 363 373 359 371 c 1
 300 340 246 318 157 263 c 1
 175 202 236 182 291 122 c 1
 293 115 296 108 296 102 c 0
 296 95 293 89 283 83 c 1
 230 69 217 72 172 69 c 0
 171 69 170 69 169 69 c 0
 129 69 104 111 102 146 c 0
 102 161 54 214 54 247 c 0
 54 256 57 263 67 268 c 0
 88 286 146 326 202 360 c 24
 251 389 271 420 335 431 c 16
EndSplineSet
Validated: 1
EndChar

StartChar: question
Encoding: 63 63 31
Width: 474
Flags: HW
LayerCount: 2
Fore
SplineSet
234 228 m 1
 226 223 219 221 212 221 c 0
 196 221 184 232 178 246 c 1
 190 354 201 384 248 489 c 1
 289 501 312 504 329 504 c 0
 344 504 354 502 368 502 c 0
 378 502 391 503 408 507 c 1
 427 521 437 539 437 556 c 0
 437 558 437 559 437 561 c 8
 432 605 384 599 352 624 c 24
 330 641 296 638 296 669 c 1
 302 711 317 734 352 750 c 1
 364 751 375 752 384 752 c 0
 424 752 440 741 474 714 c 1
 485 674 495 649 495 617 c 0
 495 603 493 588 489 569 c 8
 476 515 478 477 417 432 c 8
 370 398 333 417 287 372 c 1
 271 321 247 288 234 228 c 1
134 33 m 16
 131 33 128 33 125 33 c 0
 107 33 95 38 86 51 c 0
 76 65 68 79 68 96 c 0
 68 107 71 119 80 132 c 8
 98 161 128 173 159 177 c 16
 164 178 169 178 174 178 c 0
 197 178 213 170 221 150 c 0
 224 141 226 133 226 123 c 0
 226 103 217 81 197 60 c 8
 178 39 158 35 134 33 c 16
EndSplineSet
Validated: 1
EndChar

StartChar: at
Encoding: 64 64 32
Width: 736
VWidth: 1080
Flags: W
HStem: -10 55<308.832 448.031> 188 77<312.416 377.539> 537 73<445.487 505.766> 646 96<392.68 427.626> 695 64<472.042 591.783>
VStem: 87 117<162.909 425.143> 210 99<253.5 355.867> 675 105<336.361 578.374>
LayerCount: 2
Fore
SplineSet
323 270 m 0xe7
 330 267 336 265 342 265 c 0
 368 265 390 293 414 313 c 8
 462 352 481 384 508 439 c 16
 518 460 529 475 529 496 c 0
 529 500 529 504 528 508 c 8
 525 521 519 531 506 535 c 16
 501 536 497 537 493 537 c 0
 468 537 450 518 427 500 c 8
 389 471 377 444 351 403 c 24
 333 374 316 358 312 324 c 16
 311 315 309 305 309 296 c 0
 309 285 312 276 323 270 c 0xe7
355 196 m 16
 340 190 328 188 315 188 c 0
 306 188 296 189 285 191 c 8
 258 196 237 198 222 221 c 16
 213 234 210 247 210 260 c 0
 210 277 215 295 220 315 c 8
 236 383 261 418 303 473 c 24
 341 523 366 551 420 583 c 16
 448 600 467 610 496 610 c 0
 499 610 501 610 504 610 c 0
 535 608 547 576 575 576 c 0
 577 576 578 576 580 576 c 0
 600 578 602 608 620 608 c 0
 621 608 622 608 623 608 c 8
 642 606 653 590 656 571 c 17
 646 497 601 466 575 398 c 1
 560 365 537 347 537 314 c 0
 537 311 537 309 537 306 c 8
 538 291 547 283 558 274 c 24
 567 266 580 273 585 263 c 16
 588 258 589 252 589 247 c 0
 589 238 585 229 580 220 c 8
 572 205 563 199 548 193 c 16
 530 186 513 179 498 179 c 0
 487 179 477 182 467 189 c 8
 448 201 449 221 447 243 c 16
 447 245 447 247 447 249 c 0
 447 264 453 273 456 290 c 0
 456 291 456 292 456 293 c 0
 456 295 456 296 455 296 c 0
 448 296 423 256 407 241 c 8
 388 223 380 207 355 196 c 16
346 723 m 24
 353 726 357 726 364 728 c 17
 374 684 378 671 378 663 c 0
 378 656 375 653 370 638 c 9
 330 594 300 574 268 524 c 24
 242 483 239 454 220 410 c 17
 211 359 204 317 204 275 c 0
 204 234 211 194 232 148 c 9
 273 111 285 72 336 52 c 16
 348 47 358 45 369 45 c 0
 381 45 392 48 406 52 c 8
 482 75 523 106 574 166 c 24
 621 221 635 264 652 334 c 16
 665 388 675 431 675 476 c 0
 675 504 671 534 662 568 c 8
 650 616 636 647 596 676 c 16
 578 689 562 695 542 695 c 0xef
 536 695 530 695 524 694 c 1
 474 688 457 655 440 646 c 1
 435 645 431 644 428 644 c 0
 420 644 413 646 404 646 c 1
 393 657 390 671 390 685 c 0
 390 699 393 714 393 729 c 0
 393 733 393 738 392 742 c 1xf7
 426 747 446 756 479 756 c 0
 482 756 485 756 488 756 c 1
 499 758 509 759 517 759 c 0xef
 560 759 584 741 620 720 c 1
 669 684 713 671 741 616 c 16
 769 560 780 512 780 461 c 0
 780 422 774 381 765 334 c 8
 749 247 723 199 668 130 c 24
 631 83 600 63 548 34 c 24
 514 15 492 7 454 0 c 16
 420 -6 393 -10 366 -10 c 0
 343 -10 320 -7 292 0 c 8
 240 13 219 40 172 66 c 17
 108 125 102 171 90 276 c 1
 89 303 87 326 87 348 c 0
 87 384 91 418 102 462 c 8
 118 526 130 566 174 616 c 24
 226 675 274 691 346 723 c 24
EndSplineSet
Validated: 1
EndChar

StartChar: uni007F
Encoding: 127 127 33
Width: 1597
VWidth: 1000
Flags: W
HStem: 10 53<242.559 516.222 1060.01 1317.41> 85 109<1112 1155.5> 149 31<1241.56 1288.51> 323 81<432.372 544.181> 341 64<412.85 512.628> 341 54<407.114 476.966> 354 77<245.527 285.009> 493 21G<1415 1424> 517 85<388 574.667> 570 55<1222.87 1363.51> 725 68<397.643 567.85> 755 39<1162.14 1384.29>
VStem: 24 51<199.306 451.885> 315 65<430.423 501.905> 324 81<245.781 340.367> 722 89<293.375 454.167> 953 68<231.327 489.44> 1142 49<194.87 468.79> 1507 69<356.755 627.972>
LayerCount: 2
Fore
SplineSet
1451 530 m 0xc149e0
 1451 511 1431 493 1417 493 c 0
 1413 493 1409 494 1406 498 c 0
 1392 514 1380 515 1372 532 c 16
 1358 560 1355 570 1292 570 c 0
 1255 570 1221 562 1216 532 c 0
 1201 455 1191 372 1191 252 c 0
 1191 170 1193 170 1203 170 c 0
 1213 170 1227 176 1238 176 c 0
 1239 176 1240 176 1241 176 c 0
 1253 176 1261 180 1272 180 c 0
 1278 180 1296 177 1296 172 c 0
 1296 165 1268 155 1256 149 c 8xa149e0
 1237 139 1221 146 1202 135 c 24
 1178 121 1160 85 1151 85 c 0
 1144 85 1146 94 1118 114 c 2
 1083 138 l 10
 1055 158 1035 164 1008 185 c 16
 986 202 953 204 953 231 c 0
 953 231 953 295 956 336 c 24
 960 390 955 405 970 474 c 8
 980 521 1011 537 1045 571 c 24
 1078 604 1111 606 1141 642 c 24
 1161 666 1148 717 1168 717 c 0
 1184 717 1179 697 1184 684 c 24
 1190 667 1182 652 1195 640 c 16
 1210 626 1225 624 1242 624 c 0
 1251 624 1260 625 1269 625 c 0
 1287 625 1308 621 1323 621 c 0
 1362 621 1358 634 1381 642 c 16
 1395 647 1406 658 1417 658 c 0
 1429 658 1436 651 1436 640 c 0
 1436 636 1435 632 1434 628 c 8
 1430 613 1407 620 1407 598 c 0
 1407 569 1451 556 1451 530 c 0xc149e0
447 10 m 0
 431 10 390 9 365 9 c 0
 324 9 287 12 238 24 c 8
 176 39 132 44 88 90 c 24
 45 135 42 178 31 240 c 16
 26 269 24 292 24 315 c 0
 24 413 50 504 120 583 c 24
 174 644 213 671 282 714 c 24
 385 779 461 793 506 793 c 0
 513 793 520 793 527 793 c 0x8129e0
 577 793 614 791 652 765 c 8
 703 730 710 686 736 630 c 24
 759 580 781 474 783 474 c 0
 785 474 864 620 938 676 c 8
 1022 740 1145 784 1216 790 c 16
 1244 792 1268 794 1290 794 c 0x8119e0
 1443 794 1502 713 1506 708 c 24
 1541 667 1554 638 1566 582 c 0
 1573 548 1576 520 1576 494 c 0
 1576 430 1558 379 1540 294 c 8
 1522 213 1483 175 1430 112 c 24
 1373 46 1338 23 1196 16 c 16
 1164 14 1135 13 1109 13 c 0
 924 13 844 98 818 123 c 16
 791 149 774 292 759 292 c 0
 754 292 736 241 728 231 c 2
 634 108 l 18
 601 66 557 10 473 10 c 0
 465 10 457 10 447 10 c 0
924 582 m 24
 888 538 811 462 811 359 c 0
 811 319 826 292 848 254 c 8
 885 190 917 156 980 118 c 24
 1036 84 1077 82 1142 70 c 16
 1169 65 1188 61 1211 61 c 0
 1333 61 1389 107 1424 168 c 24
 1463 235 1507 315 1507 511 c 0
 1507 567 1499 615 1466 672 c 8
 1446 707 1423 722 1386 736 c 16
 1350 749 1319 755 1288 755 c 0x8119e0
 1258 755 1228 750 1192 743 c 8
 1128 731 1094 712 1038 678 c 24
 988 648 961 627 924 582 c 24
222 93 m 24
 276 71 307 63 391 63 c 0
 552 63 622 151 660 201 c 24
 684 233 722 282 722 353 c 0
 722 392 709 421 698 464 c 8
 682 529 679 570 642 626 c 24
 615 668 594 694 548 712 c 16
 524 721 503 725 482 725 c 0x8129e0
 461 725 439 721 414 714 c 8
 328 691 286 654 218 596 c 24
 156 543 75 473 75 353 c 0
 75 218 103 181 126 150 c 24
 152 115 182 109 222 93 c 24
317 568 m 0
 317 604 324 607 376 607 c 0
 393 607 402 606 424 606 c 0
 450 605 465 602 489 602 c 0
 556 602 560 615 592 633 c 8
 598 637 599 624 604 618 c 25
 608 611 616 607 614 598 c 24
 612 590 600 594 596 587 c 16
 594 583 593 580 593 577 c 0
 593 561 627 558 630 542 c 8
 632 532 623 527 616 520 c 24
 613 517 600 501 576 501 c 0
 547 501 554 517 493 517 c 0
 450 517 408 510 387 502 c 0
 382 500 380 496 380 492 c 0
 380 483 388 471 389 459 c 8
 392 404 393 395 412 395 c 0x858de0
 430 395 456 405 478 405 c 0x890de0
 485 405 485 404 496 404 c 0
 514 404 532 408 548 408 c 0
 581 408 583 386 583 383 c 0
 583 372 564 370 554 360 c 8
 542 348 540 323 513 323 c 0x910de0
 506 323 439 341 432 341 c 0
 425 341 405 337 405 303 c 0
 405 297 405 291 405 285 c 0
 405 267 400 248 400 224 c 0
 400 195 409 181 409 176 c 0
 409 166 393 162 384 154 c 0
 372 144 366 132 353 132 c 0
 352 132 352 132 351 132 c 8
 333 132 328 149 314 160 c 24
 294 175 285 196 260 196 c 0
 242 196 208 174 194 159 c 24
 188 151 192 138 182 136 c 24
 173 135 173 147 167 152 c 24
 161 156 149 154 151 161 c 16
 159 193 173 208 199 225 c 24
 255 260 325 225 325 271 c 0
 325 279 324 287 324 296 c 0
 324 297 324 298 324 299 c 0
 324 306 324 313 324 319 c 0x890be0
 324 347 312 361 296 366 c 16
 293 367 290 367 286 367 c 0
 265 367 235 354 230 354 c 0
 226 354 222 356 219 360 c 8
 213 369 225 377 231 387 c 24
 253 422 257 428 286 431 c 24
 293 432 299 426 305 430 c 16
 316 439 319 450 319 461 c 0
 319 475 315 489 315 505 c 0x830de0
 315 520 318 520 318 543 c 0
 318 551 317 560 317 568 c 0
1142 521 m 0
 1142 562 1133 573 1113 573 c 0
 1101 573 1094 564 1083 558 c 8
 1067 550 1047 551 1044 533 c 16
 1027 429 1030 329 1021 261 c 0
 1021 260 1021 259 1021 258 c 0
 1021 235 1050 230 1072 218 c 0
 1086 211 1106 194 1118 194 c 0xc109e0
 1136 194 1131 266 1135 355 c 24
 1138 411 1140 442 1141 498 c 16
 1141 510 1142 513 1142 521 c 0
EndSplineSet
Validated: 1
EndChar

StartChar: cent
Encoding: 162 162 35
Width: 313
Flags: HW
VStem: 131.896 81.107<557 629.31>
LayerCount: 2
Fore
SplineSet
214 265 m 1
 221 265 229 267 238 272 c 8
 259 281 268 294 281 312 c 16
 287 320 295 324 301 324 c 0
 310 324 316 318 316 311 c 0
 316 309 316 306 315 304 c 0
 298 263 302 268 283 250 c 24
 265 234 250 231 228 224 c 16
 218 221 211 221 204 221 c 0
 200 221 197 221 193 221 c 1
 154 140 l 1
 141 127 127 116 118 116 c 0
 114 116 111 118 109 121 c 1
 123 172 131 200 139 222 c 1
 137 222 135 223 133 223 c 8
 113 229 103 236 91 251 c 16
 79 271 71 287 71 310 c 0
 71 314 71 319 72 325 c 0
 77 365 87 393 114 434 c 24
 141 475 161 501 204 527 c 16
 221 537 236 545 251 550 c 1
 260 577 272 607 285 640 c 1
 306 662 324 674 339 674 c 0
 352 674 362 666 368 650 c 1
 356 614 345 584 335 557 c 1
 353 555 364 551 376 531 c 0
 382 523 385 514 385 504 c 0
 385 496 383 488 378 478 c 8
 371 468 362 459 350 459 c 16
 349 459 348 459 347 459 c 0
 333 459 335 475 326 484 c 0
 321 489 318 495 314 500 c 1
 296 454 279 413 253 352 c 0
 234 309 226 292 214 265 c 1
231 493 m 1
 218 484 210 474 199 459 c 8
 170 420 156 394 147 353 c 16
 144 341 142 330 142 321 c 0
 142 307 146 296 154 284 c 0
 156 281 158 279 160 278 c 1
 162 285 165 294 169 304 c 0
 194 379 211 434 231 493 c 1
EndSplineSet
Validated: 1
EndChar

StartChar: sterling
Encoding: 163 163 36
Width: 708
VWidth: 1080
Flags: HW
HStem: 324.417 135.333<327 371>
VStem: 201.119 124.881<447 586> 201.119 126.789<447.436 459.75>
LayerCount: 2
Fore
SplineSet
283 321 m 1
 231 321 188 329 165 360 c 0
 162 364 161 368 161 372 c 0
 161 389 177 411 197 423 c 0
 234 445 269 447 307 447 c 0
 315 447 324 447 333 447 c 1
 347 484 375 528 379 577 c 16
 379 578 379 579 379 581 c 0
 379 607 354 617 354 640 c 0
 354 645 355 651 358 657 c 8
 377 696 414 720 456 729 c 16
 485 736 511 739 536 739 c 0
 617 739 674 704 709 637 c 0
 715 626 718 607 718 590 c 0
 718 570 713 551 700 551 c 0
 698 551 697 552 695 552 c 0
 600 576 624 632 578 632 c 0
 572 632 565 631 556 629 c 8
 534 624 520 605 508 586 c 0
 491 535 476 494 464 460 c 1
 470 460 475 461 481 461 c 0
 489 461 498 460 507 459 c 8
 546 455 581 462 596 432 c 16
 600 424 603 415 603 405 c 0
 603 389 596 372 579 360 c 0
 531 325 477 325 415 324 c 1
 391 261 325 219 272 95 c 1
 323 81 362 73 401 73 c 0
 450 73 497 85 568 112 c 1
 593 175 578 195 610 252 c 0
 619 269 632 273 648 273 c 0
 665 273 684 268 704 268 c 0
 708 268 713 268 718 269 c 1
 698 152 698 152 638 24 c 9
 638 24 606 35 583 38 c 1
 436 30 365 22 277 22 c 0
 213 22 141 26 24 38 c 1
 19 46 16 52 16 57 c 0
 16 67 28 77 58 109 c 1
 66 109 74 110 80 110 c 0
 98 110 107 108 114 108 c 0
 123 108 128 110 144 121 c 8
 226 174 255 252 283 321 c 1
EndSplineSet
Validated: 1
EndChar

StartChar: currency
Encoding: 164 164 37
Width: 340
VWidth: 1000
Flags: HW
LayerCount: 2
Fore
SplineSet
220 436 m 1
 240 448 262 454 281 454 c 0
 297 454 311 449 317 441 c 1
 322 446 329 451 338 459 c 1
 339 466 323 460 323 467 c 24
 323 472 328 477 333 479 c 1
 358 479 365 481 370 481 c 0
 376 481 379 479 397 472 c 1
 399 467 395 459 388 454 c 24
 381 450 377 457 369 454 c 1
 350 440 338 429 328 421 c 1
 330 416 331 409 331 402 c 0
 331 366 307 313 279 284 c 1
 283 276 288 266 296 252 c 1
 301 249 310 257 314 252 c 24
 318 248 317 240 310 234 c 1
 288 227 283 225 278 225 c 0
 272 225 266 227 242 227 c 1
 238 230 237 234 240 239 c 24
 245 247 257 241 262 248 c 1
 258 254 256 260 254 264 c 1
 238 255 224 254 213 254 c 0
 209 254 206 254 202 254 c 0
 199 254 194 253 190 253 c 0
 179 253 165 255 155 266 c 1
 152 262 144 257 145 253 c 8
 146 247 160 255 160 248 c 24
 161 239 147 235 138 227 c 17
 114 227 103 225 89 225 c 0
 82 225 74 225 63 227 c 1
 62 230 54 236 54 243 c 0
 54 248 59 254 75 260 c 8
 86 264 92 252 102 260 c 18
 140 292 l 1
 139 297 138 302 138 308 c 0
 138 345 169 390 186 410 c 1
 170 446 l 10
 166 454 151 442 143 446 c 16
 135 450 132 454 132 458 c 0
 132 468 151 476 155 479 c 1
 167 481 176 481 183 481 c 0
 197 481 206 479 230 479 c 9
 233 471 244 468 237 458 c 24
 232 452 224 460 218 454 c 24
 214 449 219 444 218 440 c 1
 220 436 l 1
202 377 m 0
 186 353 182 332 182 317 c 0
 182 301 187 291 187 291 c 0
 192 284 205 280 218 280 c 0
 225 280 232 281 237 284 c 0
 237 284 278 309 291 369 c 0
 293 377 295 382 294 390 c 16
 290 414 278 425 263 425 c 0
 245 425 222 408 202 377 c 0
EndSplineSet
Validated: 1
EndChar

StartChar: yen
Encoding: 165 165 38
Width: 735
VWidth: 1080
Flags: HW
HStem: 92.0908 101.034<409 453> 236.101 101.356<410 454>
LayerCount: 2
Fore
SplineSet
442 337 m 1
 443 337 445 337 446 337 c 8
 480 334 507 334 521 317 c 16
 527 310 531 302 531 294 c 0
 531 284 524 273 509 263 c 0
 468 235 421 237 366 236 c 1
 358 219 352 206 346 193 c 1
 355 194 363 194 373 194 c 0
 379 194 386 194 394 193 c 8
 427 190 455 190 469 173 c 16
 475 166 479 158 479 150 c 0
 479 140 472 129 457 119 c 0
 416 91 368 93 313 92 c 1
 311 85 309 77 307 68 c 0
 307 66 306 65 306 64 c 0
 306 59 310 57 316 57 c 0
 328 57 350 66 366 66 c 0
 373 66 378 64 381 60 c 0
 385 55 387 49 387 43 c 0
 387 34 383 25 374 17 c 1
 280 8 247 4 212 4 c 0
 180 4 147 7 66 14 c 1
 64 17 64 20 64 24 c 0
 64 38 77 54 93 65 c 0
 102 71 110 73 118 73 c 0
 134 73 149 65 164 65 c 0
 172 65 181 67 190 74 c 1
 197 90 l 1
 160 91 130 98 112 119 c 0
 108 123 107 128 107 132 c 0
 107 144 118 156 137 166 c 0
 170 184 202 184 238 184 c 1
 245 201 251 217 257 234 c 1
 217 234 183 241 164 263 c 0
 161 267 159 271 159 275 c 0
 159 287 171 300 189 310 c 0
 216 325 242 328 271 328 c 1
 252 436 216 490 188 614 c 1
 185 616 181 617 177 617 c 0
 164 617 149 609 138 609 c 0
 134 609 131 611 128 614 c 0
 123 621 120 630 120 639 c 0
 120 657 129 676 148 691 c 1
 227 697 256 699 273 699 c 0
 290 699 294 697 328 697 c 0
 349 697 381 698 435 700 c 1
 441 694 445 685 445 676 c 0
 445 667 442 658 433 649 c 0
 425 640 416 638 406 638 c 0
 394 638 380 642 368 642 c 0
 359 642 350 640 342 631 c 1
 343 505 359 461 359 369 c 0
 359 357 359 345 358 332 c 1
 367 333 l 1
 643 614 l 9
 615 628 570 615 570 649 c 24
 570 669 590 688 614 700 c 1
 697 706 706 708 719 708 c 0
 732 708 748 706 845 700 c 1
 849 695 851 689 851 682 c 0
 851 671 845 659 834 649 c 0
 822 637 810 634 798 634 c 0
 782 634 767 639 750 639 c 0
 739 639 729 637 717 631 c 1
 612 517 541 431 442 337 c 1
EndSplineSet
Validated: 1
EndChar

StartChar: brokenbar
Encoding: 166 166 39
Width: 243
VWidth: 1080
Flags: HW
LayerCount: 2
Fore
SplineSet
272 442 m 1
 257 440 241 438 222 435 c 0
 198 431 177 431 157 430 c 1
 180 494 209 577 252 696 c 1
 252 697 252 698 252 699 c 0
 252 714 272 720 292 720 c 0
 303 720 314 718 321 714 c 0
 331 708 335 694 335 674 c 0
 335 619 302 523 272 442 c 1
221 307 m 5
 183 208 149 123 138 39 c 4
 136 22 116 16 94 16 c 4
 61 16 23 29 23 43 c 4
 23 45 23 47 25 49 c 5
 70 171 90 233 115 306 c 5
 124 304 133 304 143 304 c 4
 165 304 188 306 212 307 c 4
 215 307 218 307 221 307 c 5
EndSplineSet
Validated: 1
EndChar

StartChar: section
Encoding: 167 167 40
Width: 423
Flags: HW
LayerCount: 2
Fore
SplineSet
264 351 m 1
 261 355 258 357 255 357 c 0
 236 357 217 281 217 237 c 0
 217 233 218 229 218 225 c 8
 221 192 256 194 268 165 c 16
 269 162 269 160 269 157 c 0
 269 150 268 144 268 138 c 0
 268 133 269 129 272 126 c 0
 283 113 311 98 328 98 c 0
 336 98 342 101 343 111 c 0
 344 136 346 152 346 164 c 0
 346 187 341 198 326 225 c 1
 279 261 271 288 264 351 c 1
383 621 m 8
 337 604 323 555 317 513 c 16
 316 507 316 502 316 497 c 0
 316 440 364 424 381 369 c 0
 400 309 432 274 432 218 c 0
 432 201 430 183 423 162 c 8
 401 93 349 51 292 0 c 1
 295 -16 297 -31 297 -47 c 0
 297 -84 286 -122 251 -162 c 8
 210 -210 163 -230 108 -234 c 16
 101 -235 94 -235 87 -235 c 0
 42 -235 7 -222 1 -180 c 0
 1 -179 1 -178 1 -176 c 0
 1 -159 13 -142 32 -129 c 0
 50 -117 66 -112 82 -112 c 0
 92 -112 103 -114 114 -117 c 0
 138 -123 131 -164 152 -164 c 0
 155 -164 158 -163 161 -162 c 8
 187 -152 187 -124 193 -99 c 16
 200 -73 202 -52 202 -32 c 0
 202 -7 198 16 191 45 c 8
 175 118 179 159 110 210 c 0
 83 230 68 257 68 290 c 0
 68 311 74 335 87 360 c 8
 116 417 186 415 228 468 c 24
 281 535 242 594 305 654 c 16
 344 692 384 709 428 709 c 0
 432 709 437 708 442 708 c 0
 481 705 519 690 519 656 c 0
 519 651 518 645 516 639 c 8
 505 607 466 588 433 585 c 16
 432 585 431 585 431 585 c 0
 407 585 411 623 391 623 c 0
 389 623 386 622 383 621 c 8
EndSplineSet
Validated: 1
EndChar

StartChar: dieresis
Encoding: 168 168 41
Width: 418
VWidth: 1080
Flags: HW
LayerCount: 2
Fore
SplineSet
331 331 m 8
 317 335 310 344 304 358 c 16
 297 377 292 394 292 411 c 0
 292 426 296 441 304 457 c 8
 318 484 337 502 367 502 c 24
 398 502 417 484 430 457 c 16
 440 439 446 421 446 403 c 0
 446 387 441 372 430 358 c 0
 413 336 390 326 365 326 c 0
 354 326 343 328 331 331 c 8
131 331 m 8
 117 335 110 344 104 358 c 16
 97 377 92 394 92 411 c 0
 92 426 96 441 104 457 c 8
 118 484 137 502 167 502 c 24
 198 502 217 484 230 457 c 16
 240 439 246 421 246 403 c 0
 246 387 241 372 230 358 c 0
 213 336 190 326 165 326 c 0
 154 326 143 328 131 331 c 8
EndSplineSet
Validated: 1
EndChar

StartChar: copyright
Encoding: 169 169 42
Width: 450
VWidth: 1000
Flags: HW
LayerCount: 2
Fore
SplineSet
341 222 m 16
 342 219 342 216 342 212 c 0
 342 205 341 197 340 189 c 8
 339 177 342 169 334 160 c 24
 332 156 328 153 324 155 c 24
 321 156 325 161 322 164 c 24
 318 168 313 165 307 165 c 16
 287 164 276 155 256 155 c 0
 255 155 254 155 253 155 c 8
 240 155 232 157 221 164 c 24
 212 169 210 176 202 183 c 17
 199 192 197 201 197 209 c 0
 197 221 199 233 201 248 c 9
 223 311 l 17
 237 333 252 338 279 345 c 1
 291 350 298 351 310 351 c 0
 315 351 320 351 327 351 c 9
 334 347 337 343 345 341 c 24
 352 339 356 341 363 341 c 17
 365 337 365 333 365 329 c 0
 365 317 361 303 361 291 c 0
 361 290 361 289 361 288 c 9
 356 288 352 284 346 287 c 24
 340 290 341 296 337 302 c 24
 330 313 329 321 318 329 c 24
 314 332 310 334 305 334 c 24
 292 334 285 331 274 324 c 24
 259 314 254 304 245 288 c 24
 240 276 239 268 237 255 c 24
 236 246 235 240 236 231 c 24
 237 219 236 211 242 201 c 24
 249 189 257 183 269 180 c 24
 276 178 280 179 287 181 c 24
 297 184 304 186 312 193 c 24
 322 201 320 213 330 220 c 24
 334 222 340 226 341 222 c 16
274 394 m 8
 247 380 234 364 216 339 c 24
 175 284 154 248 142 190 c 16
 138 172 136 157 136 144 c 0
 136 125 140 109 152 93 c 8
 164 75 182 74 207 70 c 16
 218 69 227 67 236 67 c 0
 246 67 257 69 271 76 c 8
 300 89 312 107 331 133 c 24
 370 186 386 222 398 278 c 16
 402 297 405 312 405 326 c 0
 405 342 401 357 394 374 c 8
 386 392 379 403 358 408 c 16
 349 410 341 411 333 411 c 0
 314 411 296 406 274 394 c 8
187 5 m 0
 174 4 164 4 154 4 c 0
 144 4 134 4 123 8 c 8
 95 16 80 25 64 47 c 16
 46 74 36 96 36 126 c 0
 36 134 37 142 38 150 c 0
 45 207 59 246 96 303 c 24
 134 361 162 398 222 434 c 16
 276 467 317 478 368 478 c 0
 372 478 376 478 381 478 c 8
 421 476 441 476 464 440 c 8
 480 416 489 401 492 370 c 16
 493 364 493 358 493 352 c 0
 493 322 485 298 474 262 c 8
 458 215 448 187 419 142 c 24
 391 101 373 76 333 46 c 24
 305 25 287 18 256 9 c 16
 241 5 230 4 218 4 c 0
 209 4 199 5 187 5 c 0
EndSplineSet
Validated: 1
EndChar

StartChar: logicalnot
Encoding: 172 172 45
Width: 346
Flags: HW
LayerCount: 2
Fore
SplineSet
60 226 m 0
 59 230 58 233 58 237 c 0
 58 255 70 273 89 289 c 8
 133 324 167 308 216 316 c 16
 243 320 262 326 284 326 c 0
 289 326 294 326 300 325 c 8
 326 321 348 321 356 298 c 16
 360 287 361 277 361 267 c 0
 361 220 326 175 300 113 c 0
 292 95 262 86 237 86 c 0
 220 86 206 90 203 99 c 0
 200 107 199 115 199 123 c 0
 199 150 211 174 211 185 c 0
 211 188 210 190 207 190 c 0
 206 190 206 190 206 190 c 0
 182 189 158 187 137 187 c 0
 101 187 72 194 60 226 c 0
EndSplineSet
Validated: 1
EndChar

StartChar: registered
Encoding: 174 174 47
Width: 444
VWidth: 1000
Flags: HW
VStem: 181 53.5<166.555 275.438>
LayerCount: 2
Fore
SplineSet
269 251 m 8
 267 242 284 247 293 248 c 24
 305 250 312 253 319 262 c 16
 327 272 330 281 330 291 c 0
 330 296 329 301 328 306 c 8
 327 313 324 318 317 322 c 24
 313 325 309 326 304 324 c 24
 294 320 291 312 286 303 c 24
 279 292 279 284 275 271 c 24
 273 264 272 261 269 251 c 8
265 170 m 24
 270 164 264 158 264 150 c 17
 262 150 261 149 259 149 c 0
 253 149 245 152 236 152 c 0
 232 152 228 151 223 150 c 1
 212 152 202 149 193 150 c 9
 193 157 189 162 193 167 c 24
 199 174 207 169 216 170 c 17
 232 196 230 219 243 248 c 9
 247 265 248 275 253 291 c 24
 256 299 261 302 261 310 c 24
 262 314 262 317 259 319 c 24
 251 326 241 316 233 322 c 24
 230 326 232 330 231 335 c 17
 233 337 237 338 242 338 c 0
 250 338 261 336 273 336 c 0
 278 336 282 336 287 337 c 9
 304 335 315 338 331 332 c 24
 341 329 349 327 354 318 c 16
 359 311 361 304 361 297 c 0
 361 290 359 283 356 276 c 8
 351 264 343 260 332 252 c 24
 326 248 322 248 316 244 c 24
 311 240 306 239 304 233 c 24
 302 224 310 219 314 211 c 24
 321 198 321 187 332 178 c 24
 337 175 344 180 347 175 c 24
 352 169 349 161 343 156 c 24
 337 150 329 149 322 153 c 24
 309 158 307 170 301 183 c 16
 294 199 288 207 283 229 c 8
 282 234 276 233 271 232 c 24
 263 230 262 224 256 218 c 17
 255 203 248 190 248 179 c 0
 248 177 248 176 248 175 c 9
 255 173 261 176 265 170 c 24
277 394 m 8
 249 380 237 364 218 339 c 24
 177 284 157 248 145 190 c 16
 141 172 139 157 139 144 c 0
 139 125 143 109 155 93 c 8
 167 75 185 74 210 70 c 16
 220 69 229 67 239 67 c 0
 249 67 260 69 274 76 c 8
 302 89 315 107 334 133 c 24
 373 186 389 222 401 278 c 16
 405 297 408 312 408 326 c 0
 408 342 404 357 397 374 c 8
 389 392 382 403 361 408 c 16
 352 410 344 411 336 411 c 0
 317 411 299 406 277 394 c 8
190 5 m 0
 177 4 166 4 156 4 c 0
 146 4 136 4 126 8 c 8
 98 16 83 25 67 47 c 16
 49 74 39 96 39 126 c 0
 39 134 40 142 41 150 c 0
 47 207 62 246 99 303 c 24
 136 361 165 398 225 434 c 16
 279 467 320 478 371 478 c 0
 375 478 379 478 384 478 c 8
 424 476 444 476 467 440 c 8
 483 416 492 401 495 370 c 16
 496 364 496 358 496 352 c 0
 496 322 488 298 476 262 c 8
 461 215 451 187 422 142 c 24
 394 101 376 76 336 46 c 24
 308 25 290 18 259 9 c 16
 244 5 233 4 221 4 c 0
 212 4 202 5 190 5 c 0
EndSplineSet
Validated: 1
EndChar

StartChar: degree
Encoding: 176 176 49
Width: 264
VWidth: 1000
Flags: HW
LayerCount: 2
Fore
SplineSet
202 518 m 8
 188 511 182 503 173 490 c 24
 152 463 142 445 136 416 c 16
 134 407 133 399 133 392 c 0
 133 383 135 375 141 367 c 8
 147 358 156 358 168 356 c 16
 174 355 178 354 183 354 c 0
 188 354 194 355 200 359 c 8
 215 365 221 374 230 387 c 24
 250 414 258 432 264 460 c 16
 266 470 267 477 267 484 c 0
 267 492 266 500 262 508 c 8
 258 517 254 522 244 525 c 16
 240 526 236 526 232 526 c 0
 223 526 213 524 202 518 c 8
159 323 m 0
 152 323 146 322 142 322 c 0
 136 322 132 323 127 325 c 8
 113 329 105 333 97 344 c 16
 88 358 83 369 83 384 c 0
 83 388 83 392 84 396 c 0
 87 424 94 444 113 472 c 24
 132 501 146 520 176 538 c 16
 204 555 224 560 249 560 c 0
 251 560 254 560 256 560 c 8
 276 559 286 559 297 541 c 8
 305 529 310 521 311 506 c 16
 311 503 312 499 312 496 c 0
 312 481 308 469 302 452 c 8
 294 428 289 414 274 392 c 24
 260 371 251 359 231 344 c 24
 218 333 208 330 193 325 c 16
 185 323 179 323 173 323 c 0
 168 323 164 323 159 323 c 0
EndSplineSet
Validated: 1
EndChar

StartChar: acute
Encoding: 180 180 53
Width: 264
VWidth: 1080
Flags: HW
LayerCount: 2
Fore
SplineSet
141 508 m 8
 136 505 132 506 127 505 c 17
 127 568 169 598 195 650 c 9
 228 684 237 716 280 736 c 16
 301 746 323 756 343 756 c 0
 355 756 366 752 376 742 c 0
 380 738 382 732 382 727 c 0
 382 717 376 705 370 695 c 8
 346 651 310 646 271 614 c 24
 220 573 207 550 141 508 c 8
EndSplineSet
Validated: 1
EndChar

StartChar: mu
Encoding: 181 181 54
Width: 498
VWidth: 1080
Flags: HW
VStem: 47 93<142 375> 291 86<127 394>
LayerCount: 2
Fore
SplineSet
452 76 m 1
 393 25 383 13 307 -9 c 1
 282 -8 290 8 277 34 c 1
 267 37 258 31 246 28 c 24
 205 18 176 29 139 0 c 24
 49 -72 92 -184 10 -244 c 0
 -4 -254 -14 -258 -21 -258 c 0
 -30 -258 -35 -250 -35 -235 c 0
 -35 -160 74 73 77 95 c 1
 128 226 142 266 178 375 c 1
 174 393 146 385 142 404 c 24
 141 412 143 419 151 427 c 24
 181 459 211 463 250 472 c 24
 259 474 265 475 273 472 c 24
 287 467 297 463 299 449 c 1
 222 233 261 347 187 142 c 1
 193 115 213 96 246 96 c 0
 250 96 254 96 259 97 c 8
 295 102 320 127 345 159 c 1
 390 283 325 106 429 393 c 1
 425 402 416 403 405 403 c 0
 400 403 394 403 389 403 c 0
 378 403 367 404 364 415 c 0
 364 417 363 418 363 420 c 0
 363 432 372 445 385 455 c 8
 406 473 424 471 449 474 c 16
 463 476 476 477 487 477 c 0
 504 477 519 474 537 466 c 8
 548 461 560 458 557 444 c 24
 553 428 532 425 521 410 c 1
 451 218 481 298 418 127 c 1
 436 82 427 104 452 76 c 1
EndSplineSet
Validated: 1
EndChar

StartChar: paragraph
Encoding: 182 182 55
Width: 595
VWidth: 1080
Flags: HW
VStem: 361 118<94 333> 529.75 77.896<241 655>
LayerCount: 2
Fore
SplineSet
395 420 m 1
 431 456 423 487 444 528 c 1
 453 565 478 600 478 628 c 0
 478 636 476 643 472 649 c 0
 465 660 455 666 439 666 c 0
 431 666 421 664 409 661 c 8
 372 651 342 631 311 601 c 24
 257 548 244 511 234 462 c 16
 233 458 233 454 233 451 c 0
 233 433 244 426 249 408 c 1
 260 410 270 411 279 411 c 0
 301 411 321 407 341 407 c 0
 358 407 376 410 395 420 c 1
732 739 m 0
 734 738 736 737 738 736 c 0
 739 735 740 734 741 733 c 0
 749 729 755 725 753 713 c 0
 752 711 752 709 751 707 c 0
 752 702 752 697 752 691 c 0
 752 615 706 468 674 382 c 8
 623 242 569 128 555 19 c 0
 553 2 533 -4 510 -4 c 0
 478 -4 440 9 440 23 c 0
 440 25 440 27 442 29 c 1
 535 282 523 314 660 692 c 1
 658 694 655 696 650 695 c 8
 637 693 628 680 614 671 c 17
 586 590 564 529 517 424 c 1
 476 304 410 204 392 96 c 9
 410 89 438 98 438 79 c 16
 438 78 l 0
 438 56 407 36 387 9 c 1
 362 0 342 -2 322 -2 c 0
 305 -2 289 -0 271 -0 c 0
 255 -0 238 -1 218 -5 c 0
 176 -4 157 0 113 0 c 0
 106 0 99 0 90 0 c 9
 107 27 101 50 135 70 c 16
 145 76 153 79 160 79 c 0
 173 79 182 71 198 71 c 0
 201 71 204 71 208 72 c 8
 222 75 240 73 245 84 c 16
 268 140 259 148 277 192 c 17
 302 251 310 257 347 326 c 1
 331 331 312 333 292 333 c 0
 265 333 236 330 210 330 c 0
 183 330 158 333 142 346 c 9
 126 360 109 362 102 382 c 16
 96 398 92 413 92 429 c 0
 92 448 97 469 107 496 c 8
 124 546 132 582 188 631 c 24
 257 692 317 712 396 735 c 16
 429 745 454 748 476 748 c 0
 501 748 523 744 552 744 c 0
 559 744 566 745 573 745 c 1
 583 744 592 744 601 744 c 0
 633 744 661 747 687 747 c 0
 702 747 715 746 728 743 c 1
 729 741 730 740 732 739 c 0
EndSplineSet
Validated: 1
EndChar

StartChar: AE
Encoding: 198 198 71
Width: 1066
VWidth: 1080
Flags: HW
LayerCount: 2
Fore
SplineSet
596 394 m 8
 603 386 614 390 624 394 c 24
 667 413 683 442 708 482 c 16
 723 506 746 526 746 549 c 0
 746 555 744 561 741 567 c 8
 734 581 718 574 703 578 c 17
 673 543 640 517 605 475 c 1
 596 456 586 437 586 420 c 0
 586 411 589 402 596 394 c 8
33 17 m 1
 25 31 20 44 20 56 c 0
 20 66 24 75 33 84 c 9
 192 104 l 17
 259 162 342 273 429 387 c 9
 489 449 524 484 584 547 c 17
 608 581 647 590 665 634 c 1
 660 650 648 654 634 654 c 0
 615 654 592 647 571 647 c 0
 557 647 544 650 535 661 c 0
 526 672 521 685 521 697 c 0
 521 709 526 721 535 730 c 0
 548 743 562 748 577 748 c 0
 606 748 637 732 672 732 c 0
 731 732 765 732 824 733 c 16
 872 734 902 739 946 739 c 0
 952 739 958 739 965 739 c 0
 970 739 976 739 981 739 c 0
 1000 739 1017 740 1033 740 c 0
 1055 740 1077 737 1100 722 c 8
 1129 704 1142 681 1146 647 c 16
 1148 632 1149 618 1149 604 c 0
 1149 563 1138 527 1103 500 c 8
 1099 497 1092 496 1089 500 c 16
 1067 542 1073 581 1040 619 c 24
 1028 635 1016 641 997 647 c 16
 978 653 962 654 947 654 c 0
 927 654 908 652 885 652 c 0
 881 652 877 652 873 652 c 1
 848 598 791 483 791 401 c 1
 792 401 793 401 794 401 c 0
 823 401 847 392 871 392 c 0
 884 392 897 395 911 403 c 8
 942 421 927 466 959 483 c 16
 966 487 972 488 978 488 c 0
 993 488 1007 481 1025 480 c 1
 1002 397 987 304 949 258 c 1
 933 258 920 251 907 251 c 0
 901 251 895 252 889 257 c 0
 881 263 879 271 879 279 c 0
 879 289 882 300 882 310 c 0
 882 318 880 326 873 332 c 1
 859 339 844 341 828 341 c 0
 809 341 789 338 768 338 c 0
 760 338 752 339 743 340 c 1
 716 293 728 213 694 118 c 1
 690 110 688 103 688 98 c 0
 688 80 712 82 716 74 c 1
 753 85 781 89 804 89 c 0
 831 89 853 84 877 84 c 0
 882 84 888 84 894 85 c 1
 953 99 974 144 992 166 c 9
 1051 156 l 17
 1053 150 1054 144 1054 138 c 0
 1054 94 1009 49 997 20 c 1
 965 14 937 12 910 12 c 0
 865 12 825 18 781 18 c 0
 760 18 739 16 716 13 c 1
 701 16 686 18 672 18 c 0
 625 18 581 4 532 4 c 0
 512 4 490 7 468 13 c 1
 468 15 468 18 468 20 c 0
 468 34 464 48 464 60 c 0
 464 70 467 78 476 85 c 0
 482 89 487 91 492 91 c 0
 508 91 524 78 544 74 c 1
 575 158 599 224 631 305 c 1
 604 311 588 322 564 322 c 0
 561 322 558 322 555 322 c 8
 489 313 461 275 402 246 c 17
 355 210 372 205 279 132 c 1
 279 130 279 127 279 125 c 0
 279 119 278 112 278 107 c 0
 278 101 280 95 284 89 c 8
 294 76 312 87 322 74 c 16
 327 67 329 60 329 52 c 0
 329 44 327 36 327 27 c 0
 327 24 328 21 328 18 c 1
 300 9 237 15 176 8 c 1
 163 11 150 12 137 12 c 0
 115 12 94 9 75 9 c 0
 60 9 46 11 33 17 c 1
EndSplineSet
Validated: 1
EndChar

StartChar: Eth
Encoding: 208 208 80
Width: 732
VWidth: 1080
Flags: HW
VStem: 138.246 108.904<200.747 326.875>
LayerCount: 2
Fore
SplineSet
342 431 m 1
 353 427 363 421 371 410 c 0
 381 397 387 382 387 368 c 0
 387 358 384 348 377 338 c 0
 357 309 330 304 297 303 c 1
 292 288 l 8
 275 240 256 216 246 166 c 16
 244 155 243 145 243 136 c 0
 243 124 244 113 244 98 c 0
 244 96 244 93 244 90 c 1
 296 79 349 84 400 78 c 9
 435 108 458 122 490 156 c 24
 541 211 572 243 604 310 c 16
 627 357 640 389 640 440 c 0
 640 442 640 444 640 446 c 8
 638 515 632 563 586 614 c 16
 552 652 517 668 469 668 c 0
 466 668 463 668 460 668 c 8
 434 667 417 658 400 638 c 24
 360 589 376 542 358 482 c 16
 342 431 l 1
193 425 m 1
 249 639 l 9
 214 653 176 642 158 676 c 16
 155 682 154 688 154 693 c 0
 154 713 170 730 176 754 c 1
 237 756 278 758 338 760 c 9
 371 753 389 749 422 742 c 24
 511 724 569 739 650 698 c 24
 707 668 739 640 770 584 c 24
 791 546 792 518 793 475 c 16
 793 465 793 455 793 446 c 0
 793 388 787 347 764 288 c 8
 752 257 737 242 716 216 c 24
 669 158 645 121 584 78 c 24
 513 29 460 24 380 -10 c 17
 354 -8 328 -7 304 -7 c 0
 234 -7 170 -14 108 -14 c 0
 79 -14 51 -12 22 -8 c 1
 14 15 -2 29 -2 49 c 0
 -2 53 -1 58 0 62 c 8
 15 107 70 94 98 132 c 24
 123 166 118 196 132 236 c 16
 156 302 l 1
 135 307 116 317 101 338 c 0
 95 346 92 355 92 365 c 0
 92 377 98 390 107 401 c 0
 127 423 150 425 175 425 c 0
 181 425 187 425 193 425 c 1
EndSplineSet
Validated: 1
EndChar

StartChar: multiply
Encoding: 215 215 86
Width: 430
VWidth: 1080
Flags: HW
LayerCount: 2
Fore
SplineSet
387 440 m 1
 358 409 299 340 258 286 c 1
 282 225 323 205 369 146 c 1
 372 135 377 126 377 118 c 0
 377 114 376 110 373 106 c 1
 344 92 335 95 309 92 c 1
 309 93 l 0
 309 105 260 155 258 165 c 1
 253 184 245 187 228 194 c 1
 217 195 217 195 196 194 c 1
 181 178 177 187 163 161 c 1
 160 153 134 110 134 91 c 0
 134 89 134 88 134 87 c 1
 123 86 117 86 111 86 c 0
 99 86 95 88 74 92 c 1
 72 93 71 94 71 96 c 0
 71 110 104 147 104 162 c 0
 104 163 104 164 104 165 c 1
 155 216 160 220 185 264 c 1
 163 312 128 391 88 445 c 1
 120 453 117 455 120 455 c 0
 122 455 126 454 141 454 c 1
 154 427 193 355 212 343 c 1
 218 339 224 338 229 338 c 0
 235 338 240 339 246 341 c 1
 268 350 259 350 286 382 c 1
 288 391 328 442 328 453 c 0
 328 454 l 1
 331 454 334 454 338 454 c 0
 344 454 349 454 355 454 c 0
 368 454 379 452 387 440 c 1
EndSplineSet
Validated: 1
EndChar

StartChar: Oslash
Encoding: 216 216 87
Width: 736
VWidth: 1080
Flags: HW
LayerCount: 2
Fore
SplineSet
700 663 m 1
 720 681 l 1
 719 702 676 685 672 706 c 16
 672 707 672 709 672 710 c 0
 672 722 682 734 695 740 c 1
 765 740 784 745 799 745 c 0
 814 745 825 740 880 720 c 1
 882 716 883 711 883 706 c 0
 883 693 875 678 863 669 c 0
 858 666 854 665 850 665 c 0
 841 665 832 671 821 671 c 0
 818 671 814 671 811 669 c 1
 742 606 l 1
 767 554 776 509 776 462 c 0
 776 422 770 381 761 334 c 8
 745 247 719 199 664 130 c 24
 627 83 596 63 544 34 c 24
 510 15 488 7 450 0 c 16
 416 -6 389 -10 362 -10 c 0
 339 -10 316 -7 288 0 c 0
 267 5 251 13 236 22 c 1
 193 21 168 17 136 17 c 0
 116 17 92 18 60 23 c 1
 48 41 26 48 26 68 c 0
 26 70 26 72 27 75 c 8
 32 98 53 108 76 117 c 16
 81 119 85 119 89 119 c 0
 104 119 117 111 130 109 c 1
 101 152 95 197 86 276 c 1
 85 303 83 326 83 348 c 0
 83 384 87 418 98 462 c 8
 114 526 126 566 170 616 c 24
 222 675 270 691 342 723 c 24
 349 726 353 726 360 728 c 17
 370 684 374 671 374 663 c 0
 374 656 371 653 366 638 c 9
 326 594 296 574 264 524 c 24
 238 483 235 454 216 410 c 17
 207 359 200 317 200 275 c 0
 200 244 204 213 216 179 c 1
 349 312 398 363 524 472 c 0
 597 539 615 568 646 605 c 1
 636 634 620 655 592 676 c 0
 574 689 558 695 538 695 c 0
 532 695 526 695 520 694 c 1
 470 688 453 655 436 646 c 1
 431 645 427 644 424 644 c 0
 416 644 409 646 400 646 c 1
 389 657 386 671 386 685 c 0
 386 699 389 714 389 729 c 0
 389 733 389 738 388 742 c 1
 422 747 442 756 475 756 c 0
 478 756 481 756 484 756 c 1
 495 758 505 759 513 759 c 0
 556 759 580 741 616 720 c 1
 647 697 676 684 700 663 c 1
667 527 m 1
 638 494 613 463 554 403 c 0
 470 312 416 268 301 134 c 1
 296 123 280 112 280 100 c 0
 280 98 280 97 281 95 c 0
 282 90 287 88 293 88 c 0
 300 88 308 90 315 90 c 0
 321 90 325 89 326 83 c 0
 327 81 327 80 327 78 c 0
 327 70 323 64 318 59 c 1
 322 56 327 54 332 52 c 0
 344 47 354 45 365 45 c 0
 377 45 388 48 402 52 c 8
 478 75 519 106 570 166 c 24
 617 221 631 264 648 334 c 16
 661 389 671 431 671 477 c 0
 671 493 670 510 667 527 c 1
EndSplineSet
Validated: 1
EndChar

StartChar: Thorn
Encoding: 222 222 93
Width: 613
VWidth: 1080
Flags: HW
VStem: 139 118<-136 13>
LayerCount: 2
Fore
SplineSet
307 270 m 1
 319 260 334 257 352 257 c 0
 371 257 394 261 416 261 c 0
 426 261 436 260 445 258 c 9
 466 279 485 286 499 312 c 16
 517 347 529 376 529 409 c 0
 529 422 527 436 523 451 c 8
 514 481 499 501 469 511 c 16
 460 514 451 516 443 516 c 0
 427 516 412 510 397 499 c 8
 355 468 360 425 337 378 c 17
 329 343 305 315 305 284 c 0
 305 280 306 275 307 270 c 1
384 652 m 1
 384 623 384 594 387 594 c 1
 416 594 441 597 466 597 c 0
 488 597 510 595 536 585 c 8
 597 562 643 542 668 481 c 16
 674 466 677 452 677 438 c 0
 677 408 664 381 651 346 c 8
 632 296 613 268 573 232 c 24
 551 212 533 210 507 196 c 17
 489 187 470 184 451 184 c 0
 420 184 388 192 355 192 c 0
 333 192 310 188 287 176 c 8
 264 164 263 183 244 124 c 0
 243 120 242 119 242 119 c 0
 241 119 l 0
 240 119 238 116 228 84 c 8
 224 73 244 75 256 72 c 16
 259 71 262 71 265 71 c 0
 281 71 295 79 309 79 c 0
 316 79 322 76 328 70 c 0
 333 64 335 58 335 52 c 0
 335 36 323 19 322 0 c 1
 314 0 306 0 299 0 c 0
 255 0 233 -4 190 -5 c 0
 173 -1 156 -0 140 -0 c 0
 122 -0 105 -2 88 -2 c 0
 68 -2 49 0 31 9 c 1
 31 27 24 42 24 57 c 0
 24 64 26 72 31 79 c 8
 45 98 67 89 90 96 c 17
 150 204 157 304 203 424 c 1
 230 520 251 580 278 651 c 1
 262 652 246 653 225 653 c 0
 217 653 208 653 199 653 c 1
 198 672 186 689 186 705 c 0
 186 711 188 717 193 723 c 0
 199 730 207 732 214 732 c 0
 228 732 244 725 261 725 c 0
 262 725 264 725 265 725 c 0
 325 731 360 749 415 749 c 0
 420 749 426 749 431 749 c 8
 455 747 476 751 490 732 c 16
 495 725 497 717 497 710 c 0
 497 695 490 680 490 662 c 1
 472 653 452 651 432 651 c 0
 417 651 401 652 384 652 c 1
EndSplineSet
Validated: 1
EndChar

StartChar: hbar
Encoding: 295 295 94
Width: 485
VWidth: 1000
Flags: HW
VStem: 101.837 86.287<319.375 413.719 480.094 507.094 577.406 589.781>
LayerCount: 2
Fore
SplineSet
186 478 m 1
 154 478 125 483 104 500 c 0
 98 505 95 510 95 515 c 0
 95 522 101 529 110 535 c 0
 139 554 176 547 219 550 c 1
 227 563 233 576 237 595 c 0
 240 609 244 622 244 634 c 0
 244 641 243 649 237 657 c 8
 227 671 202 657 195 673 c 16
 193 678 192 683 192 687 c 0
 192 704 204 718 218 731 c 8
 236 748 254 747 279 748 c 16
 290 748 301 749 311 749 c 0
 329 749 344 746 357 731 c 0
 367 721 371 709 371 696 c 0
 371 687 369 677 363 668 c 8
 355 656 339 666 329 657 c 17
 309 626 299 593 286 556 c 1
 293 556 300 556 308 555 c 8
 336 553 358 553 374 540 c 16
 384 533 390 525 390 517 c 0
 390 511 387 505 380 500 c 8
 353 478 312 484 263 480 c 0
 260 479 258 479 255 479 c 1
 232 425 223 418 197 333 c 9
 214 347 224 355 241 370 c 24
 249 377 251 384 260 389 c 16
 297 405 333 421 367 421 c 0
 388 421 408 415 428 400 c 0
 447 385 453 365 453 343 c 0
 453 328 450 311 448 294 c 8
 442 226 419 189 381 132 c 24
 350 84 328 58 281 26 c 16
 260 10 244 -2 220 -2 c 0
 218 -2 216 -2 214 -2 c 8
 191 -1 176 7 164 26 c 16
 157 36 154 45 154 55 c 0
 154 62 156 68 158 76 c 8
 166 101 177 122 203 126 c 16
 204 126 205 126 206 126 c 0
 230 126 237 87 261 87 c 0
 262 87 263 87 264 87 c 8
 304 93 309 132 331 165 c 24
 347 189 355 203 363 230 c 16
 368 249 373 265 373 281 c 0
 373 290 372 299 368 309 c 8
 362 326 353 340 335 342 c 16
 332 342 330 342 327 342 c 0
 283 342 263 302 229 269 c 8
 195 237 186 210 158 173 c 17
 117 114 112 41 74 16 c 9
 13 39 l 17
 28 108 56 131 73 187 c 1
 118 302 143 372 186 478 c 1
EndSplineSet
Validated: 1
EndChar

StartChar: IJ
Encoding: 306 306 103
Width: 719
VWidth: 1080
Flags: HW
LayerCount: 2
Fore
SplineSet
585 658 m 0
 576 659 565 659 554 657 c 1
 505 589 492 534 472 452 c 9
 404 266 l 17
 389 203 369 166 350 90 c 9
 379 78 407 86 425 60 c 16
 430 52 432 45 432 37 c 0
 432 22 425 7 425 -12 c 1
 402 -11 322 1 240 1 c 0
 223 1 206 0 190 -1 c 1
 154 -2 124 -16 95 -16 c 0
 82 -16 68 -13 54 -3 c 0
 45 3 39 13 39 24 c 0
 39 28 40 32 42 36 c 8
 61 78 106 70 150 84 c 24
 170 90 182 90 202 94 c 17
 225 143 222 182 244 232 c 9
 256 262 264 279 276 310 c 24
 313 402 342 451 368 546 c 24
 376 573 379 590 380 618 c 16
 381 628 383 638 383 646 c 0
 383 653 382 659 376 665 c 0
 370 671 364 673 356 673 c 0
 343 673 329 667 316 667 c 0
 308 667 302 669 296 675 c 0
 288 684 284 696 284 707 c 0
 284 718 288 729 296 738 c 0
 311 754 327 759 345 759 c 0
 373 759 405 746 439 746 c 0
 442 746 444 746 446 746 c 1
 457 744 469 742 482 742 c 0
 519 742 562 752 609 756 c 8
 617 756 622 756 629 758 c 0
 633 759 637 760 640 760 c 0
 675 760 689 698 731 698 c 8
 796 698 813 763 875 782 c 16
 894 788 911 796 927 796 c 0
 936 796 944 793 953 788 c 8
 981 771 971 740 983 710 c 17
 950 685 907 689 863 668 c 1
 846 639 803 597 803 542 c 0
 803 540 803 538 803 536 c 1
 826 526 843 530 872 524 c 1
 872 511 878 500 878 489 c 0
 878 484 877 479 872 475 c 0
 864 467 855 464 845 464 c 0
 825 464 803 476 779 476 c 1
 701 332 689 212 629 56 c 9
 485 -118 l 17
 439 -173 404 -186 353 -202 c 1
 338 -207 325 -209 312 -209 c 0
 267 -209 237 -181 197 -144 c 1
 194 -133 193 -121 193 -109 c 0
 193 -88 198 -66 209 -48 c 1
 231 -45 246 -37 265 -37 c 0
 270 -37 275 -37 281 -39 c 8
 317 -48 330 -72 359 -96 c 16
 374 -109 379 -135 395 -135 c 0
 397 -135 399 -135 401 -134 c 0
 436 -122 429 -102 435 -72 c 1
 460 -37 483 35 493 110 c 9
 528 185 545 228 583 302 c 24
 603 340 635 355 637 398 c 16
 637 399 637 400 637 401 c 0
 637 422 627 436 613 452 c 8
 591 476 542 462 541 494 c 16
 541 495 l 0
 541 516 565 523 587 526 c 0
 589 526 591 526 592 526 c 0
 616 526 633 500 654 500 c 0
 658 500 661 500 665 502 c 8
 699 516 704 549 710 586 c 16
 711 592 712 597 712 602 c 0
 712 611 710 619 704 628 c 8
 691 647 675 652 653 658 c 16
 644 660 636 661 629 661 c 0
 617 661 605 659 587 656 c 0
 586 656 586 658 585 658 c 0
EndSplineSet
Validated: 1
LCarets2: 1 0 
Ligature2: "'liga' Standard Ligatures in Latin lookup 0 subtable" I J
EndChar

StartChar: ij
Encoding: 307 307 104
Width: 424
VWidth: 1000
Flags: HW
VStem: 97 77<72 195.481> 97 80<66 72> 255 98<-96 374> 255.113 2.60301<49 61.9294>
LayerCount: 2
Fore
SplineSet
450 590 m 8
 436 591 426 592 416 602 c 24
 406 612 405 622 404 636 c 24
 404 652 406 663 416 676 c 24
 427 690 438 697 456 699 c 16
 460 699 465 700 469 700 c 0
 486 700 500 696 512 681 c 1
 524 673 529 664 529 650 c 0
 529 643 528 635 524 625 c 9
 518 609 506 605 492 598 c 16
 479 592 470 590 457 590 c 0
 455 590 453 590 450 590 c 8
230 554 m 8
 207 561 187 563 176 584 c 16
 170 595 167 606 167 617 c 0
 167 633 173 649 181 667 c 8
 191 689 202 702 225 711 c 16
 237 715 247 718 258 718 c 0
 271 718 284 714 298 706 c 8
 310 699 314 690 318 677 c 16
 320 667 321 658 321 650 c 0
 321 630 316 612 308 590 c 8
 302 573 299 559 283 551 c 16
 277 548 271 547 265 547 c 0
 254 547 243 551 230 554 c 8
261 454 m 1
 292 476 336 481 386 516 c 1
 409 517 429 530 447 530 c 0
 455 530 463 527 471 521 c 0
 486 509 492 494 492 477 c 0
 492 464 488 450 483 437 c 8
 475 417 457 415 440 401 c 17
 396 291 398 217 354 132 c 9
 316 38 300 -17 256 -108 c 24
 234 -153 233 -191 192 -220 c 16
 163 -241 136 -250 105 -250 c 0
 91 -250 76 -248 60 -244 c 8
 34 -238 20 -224 6 -202 c 16
 -5 -185 -16 -170 -16 -154 c 0
 -16 -147 -14 -141 -10 -134 c 0
 4 -109 30 -96 57 -96 c 0
 68 -96 81 -98 92 -104 c 8
 107 -111 94 -134 108 -142 c 16
 112 -144 116 -145 120 -145 c 0
 131 -145 142 -137 156 -136 c 1
 178 -77 186 -13 209 56 c 1
 204 52 199 48 194 44 c 8
 174 27 160 19 134 12 c 16
 118 8 105 4 92 4 c 0
 84 4 76 5 66 8 c 8
 47 14 32 19 24 38 c 16
 22 44 21 49 21 54 c 0
 21 70 30 84 35 102 c 8
 49 151 61 178 85 222 c 16
 103 254 118 274 140 290 c 8
 147 295 140 303 140 312 c 17
 101 308 135 308 54 306 c 9
 77 348 l 17
 101 390 129 416 175 440 c 1
 176 440 l 0
 185 440 187 455 234 455 c 0
 242 455 251 455 261 454 c 1
259 354 m 1
 258 352 257 350 255 348 c 9
 220 290 198 258 165 198 c 24
 152 175 137 164 134 138 c 24
 133 126 131 113 142 108 c 16
 146 106 149 105 153 105 c 0
 174 105 189 138 216 138 c 0
 217 138 217 138 218 138 c 0
 226 137 234 136 240 133 c 1
 247 147 255 161 264 176 c 1
 278 242 337 296 337 352 c 0
 337 355 336 359 336 362 c 1
 313 362 293 351 274 351 c 0
 269 351 264 352 259 354 c 1
EndSplineSet
Validated: 1
LCarets2: 1 0 
Ligature2: "'liga' Standard Ligatures in Latin lookup 0 subtable" i j
EndChar

StartChar: kgreenlandic
Encoding: 312 312 107
Width: 399
Flags: HW
VStem: 80 105<95 456> 81 104<57 197>
LayerCount: 2
Fore
SplineSet
260 264 m 28
 280 255 296 253 308 234 c 20
 319 216 321 205 321 193 c 4
 321 180 318 165 318 139 c 4
 318 128 318 115 320 100 c 13
 329 88 331 77 344 70 c 20
 347 68 351 68 354 68 c 4
 361 68 368 70 374 70 c 4
 378 70 383 68 386 64 c 4
 390 59 392 53 392 47 c 4
 392 38 387 29 380 22 c 4
 367 10 352 5 337 5 c 4
 319 5 299 11 278 16 c 12
 260 20 252 31 236 40 c 21
 234 58 234 73 234 85 c 4
 234 113 237 130 237 148 c 4
 237 161 235 175 230 196 c 13
 176 202 l 21
 157 146 160 107 131 58 c 13
 103 0 l 21
 95 -3 87 -4 79 -4 c 4
 53 -4 34 12 22 42 c 5
 44 138 105 171 105 218 c 4
 105 221 104 223 104 226 c 13
 104 226 171 357 201 441 c 5
 216 451 250 464 271 464 c 4
 281 464 288 461 288 452 c 4
 288 448 287 442 283 435 c 5
 282 419 262 382 262 370 c 4
 262 368 263 367 264 367 c 4
 267 367 271 369 278 375 c 12
 303 396 322 402 352 414 c 20
 375 423 397 445 416 445 c 4
 422 445 428 442 434 436 c 4
 435 435 435 433 435 431 c 4
 435 414 413 371 406 366 c 4
 384 348 336 348 292 337 c 21
 258 317 220 318 220 282 c 4
 220 280 220 278 220 276 c 13
 236 271 245 271 260 264 c 28
EndSplineSet
Validated: 1
EndChar

StartChar: Lslash
Encoding: 321 321 116
Width: 649
VWidth: 1080
Flags: HW
VStem: 323.395 68.0475<227.445 290.001 306.945 406.445> 327.395 64.0475<379.43 406.857 430.445 478.906>
LayerCount: 2
Fore
SplineSet
81 0 m 1
 81 2 81 3 81 5 c 0
 81 19 77 32 77 44 c 0
 77 52 79 60 87 68 c 0
 96 77 105 79 116 79 c 0
 131 79 148 74 166 74 c 0
 168 74 169 74 171 74 c 1
 189 166 193 227 209 293 c 1
 187 276 l 1
 183 270 173 265 170 258 c 0
 170 258 170 257 170 256 c 0
 170 253 172 253 175 253 c 0
 179 253 183 254 186 254 c 0
 189 254 191 253 191 250 c 0
 191 249 191 248 190 248 c 0
 186 236 167 231 154 220 c 1
 120 220 104 217 84 217 c 0
 74 217 62 218 47 220 c 1
 44 229 34 232 38 242 c 0
 38 243 39 245 40 246 c 0
 46 258 59 263 72 267 c 0
 74 268 77 268 79 268 c 0
 87 268 93 263 100 263 c 0
 103 263 106 264 110 267 c 2
 226 353 l 1
 231 367 237 382 243 398 c 0
 280 485 309 531 339 620 c 0
 345 638 346 649 351 668 c 1
 341 695 318 698 293 698 c 0
 287 698 282 698 276 698 c 0
 264 698 252 699 243 703 c 1
 261 756 l 1
 272 756 282 757 292 757 c 0
 329 757 350 754 369 754 c 0
 381 754 392 755 405 759 c 1
 419 755 433 754 447 754 c 0
 462 754 477 755 492 755 c 0
 517 755 540 751 563 730 c 1
 563 728 563 726 563 724 c 0
 563 718 564 711 564 705 c 0
 564 699 562 693 557 688 c 0
 549 680 540 678 531 678 c 0
 518 678 505 682 490 682 c 0
 489 682 487 682 485 682 c 1
 449 622 439 561 421 492 c 1
 440 508 454 522 493 549 c 1
 496 560 472 551 474 562 c 0
 474 563 l 0
 476 570 484 575 491 578 c 1
 526 578 536 581 544 581 c 0
 551 581 556 578 580 568 c 1
 580 566 580 564 579 561 c 0
 577 555 570 548 562 543 c 0
 560 541 557 541 555 541 c 0
 551 541 547 544 542 544 c 0
 540 544 538 544 536 543 c 0
 457 489 444 475 406 445 c 1
 403 435 399 425 395 414 c 0
 353 299 388 407 281 120 c 1
 283 108 279 98 287 90 c 0
 308 69 331 65 357 65 c 0
 373 65 389 66 407 66 c 0
 443 66 462 77 497 84 c 1
 559 113 547 160 625 232 c 1
 661 226 l 1
 661 223 661 219 661 216 c 0
 661 147 641 68 607 16 c 1
 564 1 525 -2 484 -2 c 0
 456 -2 427 -1 396 -1 c 0
 386 -1 376 -1 366 -1 c 0
 298 -3 247 -9 193 -9 c 0
 158 -9 123 -7 81 0 c 1
EndSplineSet
Validated: 1
EndChar

StartChar: lslash
Encoding: 322 322 117
Width: 378
VWidth: 1080
Flags: HW
VStem: 492.058 85.788<134.637 432.387 362.637 470.637 362.637 605.637>
LayerCount: 2
Fore
SplineSet
137 269 m 1
 149 297 l 1
 148 296 l 1
 144 290 122 279 121 274 c 0
 121 273 l 0
 121 271 123 270 125 270 c 0
 128 270 131 271 133 271 c 0
 135 271 137 270 137 269 c 1
356 525 m 1
 367 537 380 549 406 569 c 1
 407 580 384 572 384 582 c 16
 384 583 l 0
 385 590 391 595 398 598 c 1
 433 598 443 601 451 601 c 0
 458 601 463 598 489 588 c 1
 490 586 490 584 490 581 c 0
 488 575 483 568 476 563 c 0
 474 561 471 561 469 561 c 0
 465 561 461 564 455 564 c 0
 454 564 452 564 450 563 c 1
 371 502 368 493 324 452 c 1
 311 423 299 393 287 356 c 9
 256 285 236 246 207 174 c 16
 199 155 176 121 176 111 c 0
 176 109 177 108 179 108 c 0
 180 108 182 108 184 109 c 0
 215 123 227 145 260 149 c 16
 267 150 273 151 279 151 c 0
 288 151 296 148 301 140 c 0
 303 136 304 133 304 130 c 0
 304 118 293 108 289 94 c 1
 251 72 223 63 186 37 c 9
 151 24 133 4 95 3 c 16
 94 3 93 3 92 3 c 0
 78 3 70 10 55 14 c 1
 55 17 55 20 55 22 c 0
 55 60 67 92 78 134 c 1
 133 260 l 1
 128 255 120 251 113 246 c 1
 88 246 76 243 61 243 c 0
 54 243 45 244 33 246 c 1
 30 252 22 255 24 262 c 0
 24 263 24 264 24 265 c 8
 28 275 36 277 46 281 c 16
 47 282 49 282 51 282 c 0
 57 282 62 278 67 278 c 0
 69 278 69 284 73 287 c 1
 188 386 l 1
 213 442 l 8
 246 516 284 552 301 632 c 24
 303 642 307 650 301 658 c 24
 290 676 262 662 253 681 c 16
 250 687 249 694 249 700 c 0
 249 712 254 724 264 733 c 0
 283 749 304 758 326 758 c 0
 342 758 357 754 372 744 c 1
 407 736 417 720 417 699 c 0
 417 682 411 662 407 641 c 1
 389 597 372 560 356 525 c 1
EndSplineSet
Validated: 1
EndChar

StartChar: napostrophe
Encoding: 329 329 124
Width: 474
VWidth: 1000
Flags: HW
VStem: 51 106<119 331>
LayerCount: 2
Fore
SplineSet
195 570 m 1
 169 586 158 576 145 592 c 16
 138 601 135 610 135 621 c 0
 135 626 136 632 137 638 c 8
 141 659 147 677 167 683 c 16
 173 685 178 686 183 686 c 0
 202 686 218 674 233 658 c 0
 251 638 257 619 257 594 c 0
 257 589 256 584 256 579 c 8
 255 553 249 536 230 518 c 24
 205 494 211 488 147 486 c 1
 146 487 145 488 145 489 c 0
 145 499 195 514 195 566 c 0
 195 567 195 569 195 570 c 1
EndSplineSet
Refer: 377 110 N 1 0 0 1 0 0 2
Validated: 1
EndChar

StartChar: Eng
Encoding: 330 330 125
Width: 710
VWidth: 1080
Flags: HW
VStem: 134 65<114 657>
LayerCount: 2
Fore
SplineSet
420 -196 m 0
 420 -189 487 -136 530 -78 c 0
 565 -30 575 26 576 30 c 0
 576 33 576 35 576 38 c 0
 576 71 554 103 538 142 c 8
 502 231 490 285 460 376 c 17
 428 449 445 513 418 586 c 9
 375 568 l 17
 354 468 356 405 327 304 c 9
 309 248 290 218 282 160 c 16
 281 151 278 144 278 137 c 0
 278 133 279 129 282 124 c 8
 303 88 363 117 378 78 c 16
 380 73 381 69 381 64 c 0
 381 42 358 25 348 0 c 1
 341 -0 335 -0 328 -0 c 0
 295 -0 262 1 225 1 c 0
 208 1 190 1 170 0 c 1
 163 1 157 1 151 1 c 0
 118 1 88 -9 60 -9 c 0
 46 -9 33 -6 20 0 c 9
 29 32 19 60 44 82 c 16
 66 102 90 103 116 103 c 0
 120 103 l 0
 134 103 148 103 164 106 c 1
 189 222 210 326 242 430 c 1
 262 498 261 532 311 604 c 9
 317 646 l 17
 309 659 300 663 290 663 c 0
 278 663 264 658 246 658 c 0
 237 658 226 659 214 664 c 9
 226 733 l 17
 257 743 292 746 327 746 c 0
 368 746 410 742 448 737 c 1
 523 662 506 603 550 500 c 1
 587 411 598 296 638 258 c 1
 683 285 651 395 688 468 c 9
 708 522 722 551 740 606 c 16
 745 621 756 632 756 644 c 0
 756 647 755 651 752 655 c 0
 746 664 737 667 727 667 c 0
 715 667 701 663 688 663 c 0
 678 663 669 665 662 673 c 0
 655 681 653 689 653 697 c 0
 653 708 656 720 656 733 c 0
 656 735 656 737 656 739 c 1
 679 746 700 748 721 748 c 0
 742 748 764 746 788 746 c 0
 796 746 805 746 814 747 c 1
 825 745 836 745 846 745 c 0
 870 745 892 748 912 748 c 0
 917 748 923 748 928 747 c 1
 929 726 942 707 942 689 c 0
 942 682 940 675 934 669 c 0
 929 663 923 661 916 661 c 0
 904 661 889 669 874 669 c 1
 782 607 808 535 760 410 c 1
 721 288 736 165 667 36 c 0
 662 27 579 -143 474 -196 c 16
 464 -201 455 -204 445 -204 c 0
 437 -204 420 -196 420 -196 c 0
EndSplineSet
Validated: 1
EndChar

StartChar: eng
Encoding: 331 331 126
Width: 474
VWidth: 1000
Flags: HW
VStem: 52 105<119 331>
LayerCount: 2
Fore
SplineSet
384 68 m 24
 334 -29 336 -117 242 -172 c 16
 224 -183 189 -191 166 -191 c 0
 153 -191 144 -189 144 -182 c 0
 144 -180 146 -177 148 -174 c 0
 250 -70 l 0
 275 -36 284 6 306 54 c 8
 331 107 330 162 344 200 c 9
 351 240 355 262 363 302 c 16
 367 322 377 334 377 353 c 0
 377 356 377 359 376 362 c 0
 374 370 371 374 367 374 c 0
 348 374 309 314 286 284 c 8
 232 214 225 161 186 82 c 17
 157 49 170 8 141 1 c 1
 132 -0 123 -1 115 -1 c 0
 80 -1 51 14 39 69 c 1
 60 153 93 160 112 206 c 9
 129 243 153 261 155 302 c 16
 155 306 156 310 156 313 c 0
 156 324 153 334 143 338 c 0
 140 339 138 340 135 340 c 0
 114 340 100 300 78 300 c 0
 76 300 73 301 70 302 c 0
 60 306 60 315 60 325 c 0
 60 326 60 327 60 328 c 0
 60 333 60 339 58 344 c 1
 86 394 129 415 166 452 c 1
 195 468 217 485 240 485 c 0
 249 485 258 482 268 476 c 9
 274 456 283 445 284 424 c 16
 284 423 284 421 284 420 c 0
 284 393 274 378 268 350 c 1
 282 378 315 401 364 445 c 1
 388 451 405 470 424 470 c 0
 429 470 434 469 440 466 c 0
 474 447 479 415 479 378 c 0
 479 361 478 344 478 326 c 8
 477 262 452 230 430 170 c 24
 415 129 404 107 384 68 c 24
EndSplineSet
Validated: 1
EndChar

StartChar: OE
Encoding: 338 338 131
Width: 998
VWidth: 1080
Flags: HW
LayerCount: 2
Fore
SplineSet
615 656 m 1
 605 657 593 661 580 668 c 0
 571 673 564 685 551 690 c 24
 540 695 541 697 520 694 c 1
 470 688 453 655 436 646 c 9
 400 646 l 17
 389 657 386 671 386 685 c 0
 386 699 389 714 389 729 c 0
 389 733 389 738 388 742 c 9
 484 756 l 17
 494 758 502 758 508 758 c 0
 534 758 534 746 578 734 c 8
 586 732 590 734 598 734 c 24
 676 736 721 737 798 746 c 9
 833 742 853 737 888 736 c 16
 892 736 896 736 900 736 c 0
 932 736 953 739 988 740 c 0
 1008 741 1024 747 1040 747 c 0
 1049 747 1057 746 1066 740 c 8
 1102 718 1095 681 1114 644 c 17
 1116 628 1118 615 1118 600 c 0
 1118 586 1116 572 1108 554 c 1
 1093 554 1076 545 1064 545 c 0
 1057 545 1052 547 1048 554 c 0
 1024 596 1022 630 982 656 c 16
 962 669 944 671 924 671 c 0
 912 671 900 670 886 670 c 0
 885 670 884 670 884 670 c 0
 870 670 855 674 842 674 c 0
 831 674 822 670 822 656 c 8
 822 618 804 600 792 564 c 17
 791 515 780 473 780 434 c 0
 780 430 780 426 780 422 c 1
 804 421 824 409 843 409 c 0
 851 409 859 411 868 416 c 8
 901 436 878 484 910 506 c 16
 920 513 929 514 938 514 c 0
 950 514 962 512 975 512 c 0
 977 512 980 512 982 512 c 1
 983 505 984 498 984 491 c 0
 984 440 956 399 952 344 c 1
 936 305 942 273 922 236 c 9
 856 238 l 17
 849 257 846 272 846 285 c 0
 846 312 856 330 856 357 c 0
 856 359 856 360 856 362 c 1
 838 364 815 366 792 366 c 0
 784 366 775 366 766 365 c 1
 765 355 763 345 761 334 c 0
 748 260 726 214 686 159 c 1
 685 146 684 134 682 122 c 9
 705 102 713 82 742 72 c 16
 753 68 763 67 773 67 c 0
 792 67 810 72 834 72 c 1
 843 70 850 70 857 70 c 0
 888 70 906 87 944 126 c 1
 946 126 947 126 949 126 c 0
 961 126 972 129 982 129 c 0
 990 129 996 127 1002 120 c 0
 1010 110 1012 101 1012 91 c 0
 1012 64 989 35 984 0 c 1
 977 -1 969 -1 960 -1 c 0
 920 -1 864 4 802 4 c 0
 774 4 744 3 714 0 c 1
 623 -9 474 -10 430 -10 c 0
 422 -10 418 -10 418 -10 c 1
 418 -8 419 -7 419 -5 c 1
 399 -8 380 -10 362 -10 c 0
 339 -10 316 -7 288 0 c 8
 236 13 215 40 168 66 c 17
 104 125 98 171 86 276 c 1
 85 303 83 326 83 348 c 0
 83 384 87 418 98 462 c 8
 114 526 126 566 170 616 c 24
 222 675 270 691 342 723 c 24
 349 726 353 726 360 728 c 17
 370 684 374 671 374 663 c 0
 374 656 371 653 366 638 c 9
 326 594 296 574 264 524 c 24
 238 483 235 454 216 410 c 17
 207 359 200 317 200 275 c 0
 200 234 207 194 228 148 c 9
 269 111 281 72 332 52 c 16
 344 47 354 45 365 45 c 0
 377 45 388 48 402 52 c 0
 472 73 512 101 558 152 c 1
 565 195 574 247 598 302 c 9
 664 484 l 17
 670 499 l 1
 668 521 664 543 658 568 c 0
 648 605 638 632 615 656 c 1
EndSplineSet
Validated: 1
EndChar

StartChar: oe
Encoding: 339 339 132
Width: 496
VWidth: 1000
Flags: HW
LayerCount: 2
Fore
SplineSet
414 284 m 8
 446 286 469 298 486 326 c 16
 495 341 502 356 502 371 c 0
 502 380 499 389 492 398 c 0
 486 406 477 409 468 409 c 0
 461 409 452 407 444 404 c 8
 419 395 408 379 396 356 c 17
 392 335 391 317 384 296 c 1
 389 287 398 284 408 284 c 0
 410 284 412 284 414 284 c 8
357 398 m 1
 378 426 398 447 436 462 c 0
 460 472 484 482 506 482 c 0
 522 482 536 477 549 464 c 0
 563 451 567 436 567 420 c 0
 567 398 558 374 549 350 c 8
 534 309 510 293 476 266 c 24
 428 227 369 241 338 188 c 16
 331 175 327 163 327 151 c 0
 327 137 331 124 338 110 c 8
 344 96 353 87 368 86 c 16
 369 86 369 86 369 86 c 0
 400 86 408 116 436 132 c 0
 449 139 457 150 471 150 c 0
 472 150 473 150 474 150 c 8
 485 148 487 138 496 130 c 17
 496 129 496 128 496 127 c 0
 496 98 436 58 386 32 c 1
 359 27 340 13 317 13 c 0
 311 13 305 14 298 16 c 0
 277 23 264 35 254 51 c 1
 241 34 225 21 200 14 c 0
 185 10 171 7 158 7 c 0
 126 7 97 20 72 46 c 0
 51 67 47 90 47 117 c 0
 47 127 48 137 48 148 c 8
 50 203 63 235 88 284 c 24
 122 349 137 401 204 430 c 16
 227 440 250 446 271 446 c 0
 296 446 320 437 342 418 c 0
 349 412 354 405 357 398 c 1
300 310 m 1
 301 318 303 326 303 333 c 0
 303 342 301 349 294 356 c 0
 286 364 276 367 266 367 c 0
 258 367 249 365 240 362 c 8
 198 346 184 317 162 278 c 24
 134 229 123 196 120 140 c 16
 120 130 118 120 118 112 c 0
 118 99 121 88 132 80 c 0
 138 76 145 74 152 74 c 0
 163 74 175 79 186 86 c 8
 222 106 229 134 249 170 c 16
 253 178 l 1
 257 187 260 197 263 208 c 0
 275 249 285 280 300 310 c 1
EndSplineSet
Validated: 1
EndChar

StartChar: Tbar
Encoding: 358 358 149
Width: 666
VWidth: 1080
Flags: HW
HStem: 304.522 52.4993<280 345> 305.97 55.6543<482 550>
VStem: 327 165<148.406 179.654>
LayerCount: 2
Fore
SplineSet
493 366 m 1
 494 366 496 366 497 366 c 8
 525 364 547 363 563 351 c 16
 573 343 579 335 579 327 c 0
 579 321 576 315 569 310 c 0
 545 291 510 291 469 290 c 1
 456 252 l 8
 435 192 404 162 399 98 c 24
 398 87 396 77 405 69 c 16
 409 65 414 64 419 64 c 0
 431 64 445 73 457 73 c 0
 462 73 467 71 471 66 c 0
 475 62 476 57 476 52 c 0
 476 39 463 24 460 7 c 1
 454 7 449 7 443 7 c 0
 420 7 397 8 371 8 c 0
 359 8 347 8 334 7 c 1
 326 9 318 9 310 9 c 0
 295 9 281 7 265 7 c 0
 249 7 232 9 210 15 c 1
 208 36 195 54 195 70 c 0
 195 77 197 83 203 89 c 0
 211 97 220 100 229 100 c 0
 250 100 273 84 300 83 c 1
 316 148 335 215 358 289 c 1
 333 291 311 297 293 310 c 0
 287 315 284 320 284 325 c 0
 284 333 290 340 299 346 c 0
 319 358 343 359 370 359 c 0
 373 359 377 359 381 359 c 1
 408 437 l 9
 431 492 452 521 465 579 c 24
 472 607 469 624 471 653 c 17
 440 661 416 666 391 666 c 0
 371 666 351 663 328 654 c 8
 287 639 271 615 243 581 c 24
 223 557 206 542 203 511 c 16
 203 509 203 507 203 505 c 0
 203 488 207 475 220 465 c 0
 225 461 231 460 236 460 c 0
 250 460 265 468 277 468 c 0
 284 468 290 466 294 459 c 0
 299 452 301 445 301 438 c 0
 301 420 288 402 272 388 c 0
 254 374 235 366 215 366 c 0
 202 366 188 369 175 377 c 8
 140 397 139 431 134 471 c 16
 133 479 133 486 133 493 c 0
 133 516 138 534 148 560 c 8
 167 608 185 633 222 668 c 24
 253 697 273 713 313 725 c 16
 341 734 364 736 387 736 c 0
 415 736 442 733 475 733 c 0
 479 733 484 733 488 733 c 0
 491 733 494 733 497 733 c 0
 538 733 568 729 603 729 c 0
 620 729 638 730 659 733 c 0
 685 736 700 758 721 758 c 0
 725 758 729 757 733 756 c 0
 757 747 774 728 774 704 c 0
 774 700 774 697 773 693 c 8
 768 663 739 657 711 647 c 16
 693 641 678 639 663 639 c 0
 633 639 605 647 568 647 c 1
 537 585 543 512 513 429 c 1
 493 366 l 1
EndSplineSet
Validated: 1
EndChar

StartChar: tbar
Encoding: 359 359 150
Width: 346
Flags: HW
VStem: 64.3027 87.6973<209.156 294.094>
LayerCount: 2
Fore
SplineSet
212 288 m 1
 218 288 223 289 229 289 c 0
 235 289 241 288 248 288 c 8
 276 286 298 285 314 273 c 16
 324 265 330 257 330 249 c 0
 330 243 327 237 320 232 c 8
 293 210 251 213 203 212 c 16
 193 212 184 212 175 211 c 1
 170 199 166 186 162 172 c 1
 162 171 162 171 162 170 c 0
 162 162 158 153 158 146 c 0
 158 142 160 139 164 136 c 0
 168 134 171 133 175 133 c 0
 197 133 214 173 238 173 c 0
 241 173 243 173 246 172 c 0
 262 167 271 153 271 137 c 0
 271 135 270 132 270 130 c 8
 262 76 215 62 168 34 c 16
 147 22 131 8 110 8 c 0
 105 8 101 9 96 10 c 8
 69 16 53 33 46 60 c 16
 43 71 42 82 42 91 c 0
 42 135 68 169 88 214 c 1
 71 217 56 223 44 232 c 0
 38 237 35 242 35 247 c 0
 35 255 41 262 50 268 c 0
 69 280 92 281 118 281 c 1
 128 300 137 317 144 342 c 0
 148 354 155 365 155 375 c 0
 155 380 154 384 150 388 c 0
 147 392 143 393 139 393 c 0
 127 393 113 383 101 383 c 0
 97 383 93 384 90 388 c 0
 85 395 82 402 82 410 c 0
 82 427 92 444 106 456 c 0
 116 465 127 467 138 467 c 0
 149 467 161 465 174 465 c 0
 178 465 182 465 186 466 c 1
 206 491 201 493 216 568 c 1
 236 580 244 600 266 600 c 0
 267 600 267 600 268 600 c 8
 291 599 297 579 316 566 c 17
 320 558 322 551 322 544 c 0
 322 517 299 493 299 460 c 0
 299 457 299 454 300 450 c 1
 301 450 301 450 302 450 c 0
 315 450 327 455 338 455 c 0
 344 455 349 454 354 448 c 0
 360 440 363 432 363 423 c 0
 363 407 355 391 342 380 c 0
 334 373 326 371 318 371 c 0
 305 371 291 376 275 376 c 0
 273 376 272 376 270 376 c 1
 252 348 232 320 212 288 c 1
EndSplineSet
Validated: 1
EndChar

StartChar: A
Encoding: 65 65 332
Width: 711
VWidth: 1080
Flags: HW
LayerCount: 2
Back
Fore
SplineSet
506 410 m 1
 513 387 535 379 559 379 c 0
 563 379 568 380 572 380 c 8
 600 383 622 395 632 422 c 16
 635 430 636 438 636 445 c 0
 636 463 628 480 614 494 c 0
 604 504 594 509 582 509 c 0
 577 509 571 508 566 506 c 1
 551 469 508 441 506 410 c 1
32 12 m 0
 24 22 21 34 21 46 c 0
 21 64 29 83 44 96 c 0
 54 105 64 108 76 108 c 0
 92 108 111 102 131 102 c 0
 132 102 134 102 136 102 c 1
 274 240 325 330 438 466 c 9
 501 542 531 589 600 660 c 17
 645 705 611 665 722 768 c 0
 729 774 738 776 747 776 c 0
 782 776 825 739 825 706 c 0
 825 701 824 696 822 692 c 0
 774 574 748 517 708 402 c 24
 676 309 650 257 636 160 c 16
 634 146 630 135 630 124 c 0
 630 117 632 110 636 102 c 8
 645 86 669 95 678 78 c 16
 682 71 683 64 683 57 c 0
 683 39 673 22 672 0 c 1
 659 3 644 5 628 5 c 0
 578 5 517 -7 462 -7 c 0
 441 -7 420 -5 402 0 c 1
 402 1 402 1 402 2 c 0
 402 23 393 42 393 59 c 0
 393 68 396 76 404 84 c 0
 410 90 417 92 424 92 c 0
 440 92 459 79 480 78 c 1
 511 122 521 204 564 250 c 9
 524 262 503 276 462 282 c 16
 450 284 439 285 429 285 c 0
 409 285 391 282 366 282 c 1
 340 219 290 170 276 102 c 9
 292 95 309 100 318 84 c 16
 321 78 323 72 323 67 c 0
 323 49 310 33 306 12 c 1
 284 2 260 -1 234 -1 c 0
 215 -1 194 1 172 1 c 0
 165 1 158 0 150 0 c 1
 146 0 142 1 138 1 c 0
 115 1 92 -6 72 -6 c 0
 57 -6 43 -2 32 12 c 0
EndSplineSet
Validated: 1
EndChar

StartChar: B
Encoding: 66 66 333
Width: 577
VWidth: 1080
Flags: HW
LayerCount: 2
Back
Fore
SplineSet
332 416 m 1
 379 422 406 421 446 434 c 9
 478 448 498 459 518 488 c 16
 538 517 547 542 547 574 c 0
 547 579 546 585 546 590 c 8
 542 633 534 664 500 690 c 16
 481 705 460 714 439 714 c 0
 427 714 416 711 404 704 c 8
 371 683 387 645 374 608 c 24
 359 568 340 548 332 506 c 16
 328 485 318 464 318 446 c 0
 318 435 322 425 332 416 c 1
300 358 m 8
 257 320 268 274 256 218 c 16
 248 179 235 145 235 113 c 0
 235 102 236 92 240 82 c 1
 243 81 246 81 249 81 c 0
 267 81 294 88 321 88 c 0
 335 88 348 86 360 80 c 9
 390 102 417 105 438 136 c 16
 459 168 473 196 473 229 c 0
 473 240 472 252 468 264 c 8
 453 319 421 352 366 370 c 16
 357 373 349 374 341 374 c 0
 327 374 313 369 300 358 c 8
18 0 m 1
 17 6 16 12 16 18 c 0
 16 40 22 66 28 84 c 9
 51 89 70 81 88 96 c 24
 123 125 116 161 130 204 c 24
 152 271 159 310 178 378 c 17
 202 518 265 639 280 690 c 1
 270 692 261 693 253 693 c 0
 225 693 206 683 190 683 c 0
 180 683 172 686 162 696 c 0
 156 702 153 709 153 717 c 0
 153 725 156 733 162 740 c 8
 187 771 222 760 262 764 c 16
 272 765 281 765 289 765 c 0
 316 765 338 761 370 758 c 0
 381 757 391 757 401 757 c 0
 436 757 469 761 499 761 c 0
 534 761 568 755 602 730 c 8
 645 698 655 658 658 604 c 16
 658 598 658 593 658 588 c 0
 658 535 645 498 610 454 c 0
 576 410 488 434 488 379 c 0
 488 378 l 8
 489 349 534 364 552 342 c 24
 589 298 599 261 600 204 c 16
 600 197 600 191 600 184 c 0
 600 136 595 96 558 60 c 8
 527 29 492 42 450 30 c 17
 447 30 445 30 442 30 c 0
 345 30 276 -2 103 -2 c 0
 77 -2 49 -2 18 0 c 1
EndSplineSet
Validated: 1
EndChar

StartChar: C
Encoding: 67 67 334
Width: 641
VWidth: 1080
Flags: HW
LayerCount: 2
Back
Fore
SplineSet
634 248 m 0
 637 237 638 222 638 205 c 0
 638 179 636 148 632 118 c 8
 626 70 638 36 608 0 c 16
 600 -11 590 -22 577 -22 c 0
 574 -22 571 -22 568 -20 c 0
 563 -18 562 -14 562 -10 c 0
 562 -5 564 1 564 6 c 0
 564 10 563 13 560 16 c 0
 552 23 544 25 535 25 c 0
 524 25 512 22 500 22 c 0
 418 18 374 -20 295 -20 c 0
 292 -20 288 -20 284 -20 c 8
 230 -18 198 -12 154 16 c 24
 118 38 110 64 80 94 c 17
 65 131 60 166 60 203 c 0
 60 247 67 294 74 352 c 9
 164 604 l 17
 220 692 278 712 386 742 c 1
 439 762 466 767 522 767 c 0
 538 767 556 766 578 766 c 9
 606 750 618 732 650 724 c 16
 659 721 667 720 675 720 c 0
 690 720 703 724 722 724 c 1
 728 710 730 693 730 676 c 0
 730 630 715 576 715 530 c 0
 715 525 716 519 716 514 c 1
 700 513 687 504 673 504 c 0
 667 504 662 505 656 508 c 8
 632 520 634 544 620 568 c 24
 592 612 586 646 544 678 c 24
 526 690 512 696 490 696 c 24
 440 696 410 686 368 658 c 24
 308 616 286 576 252 512 c 24
 230 464 226 434 218 382 c 16
 215 354 213 335 213 312 c 0
 213 303 213 294 214 284 c 8
 218 236 214 204 240 164 c 24
 268 118 298 94 348 80 c 16
 357 77 364 76 372 76 c 0
 387 76 401 81 418 86 c 8
 460 96 486 104 520 134 c 24
 558 166 550 214 592 242 c 16
 601 247 615 255 624 255 c 0
 629 255 633 253 634 248 c 0
EndSplineSet
Validated: 1
EndChar

StartChar: D
Encoding: 68 68 335
Width: 732
VWidth: 1080
Flags: HW
LayerCount: 2
Back
Fore
SplineSet
244 90 m 1
 296 79 349 84 400 78 c 9
 435 108 458 122 490 156 c 24
 541 211 572 243 604 310 c 16
 627 357 640 389 640 440 c 0
 640 442 640 444 640 446 c 8
 638 515 632 563 586 614 c 16
 552 652 517 668 469 668 c 0
 466 668 463 668 460 668 c 8
 434 667 417 658 400 638 c 24
 360 589 376 542 358 482 c 24
 335 406 319 363 292 288 c 24
 275 240 256 216 246 166 c 16
 244 155 243 145 243 136 c 0
 243 124 244 113 244 98 c 0
 244 96 244 93 244 90 c 1
22 -8 m 1
 14 15 -2 29 -2 49 c 0
 -2 53 -1 58 0 62 c 8
 15 107 70 94 98 132 c 24
 123 166 118 196 132 236 c 24
 148 281 158 306 174 350 c 17
 198 452 221 532 249 639 c 9
 214 653 176 642 158 676 c 16
 155 682 154 688 154 693 c 0
 154 713 170 730 176 754 c 1
 237 756 277 758 338 760 c 9
 371 753 389 749 422 742 c 24
 511 724 569 739 650 698 c 24
 707 668 739 640 770 584 c 24
 791 546 792 518 793 475 c 16
 793 465 793 455 793 446 c 0
 793 388 787 347 764 288 c 8
 752 257 737 242 716 216 c 24
 669 158 645 121 584 78 c 24
 513 29 460 24 380 -10 c 17
 354 -8 328 -7 304 -7 c 0
 234 -7 170 -14 108 -14 c 0
 79 -14 51 -12 22 -8 c 1
EndSplineSet
Validated: 1
EndChar

StartChar: E
Encoding: 69 69 336
Width: 624
VWidth: 1080
Flags: HW
HStem: 642 103<74 102 235.88 269.978>
LayerCount: 2
Back
Fore
SplineSet
18 -10 m 13
 23 6 19 19 30 32 c 28
 60 65 96 58 138 74 c 21
 161 120 156 208 198 302 c 13
 264 484 l 21
 291 554 308 608 318 670 c 5
 282 669 257 655 228 655 c 4
 213 655 198 658 180 668 c 4
 174 671 172 675 172 680 c 4
 172 694 193 714 198 734 c 5
 259 739 321 737 398 746 c 13
 433 742 453 737 488 736 c 20
 492 736 496 736 500 736 c 4
 532 736 553 739 588 740 c 4
 608 741 624 747 640 747 c 4
 649 747 657 746 666 740 c 12
 702 718 695 681 714 644 c 21
 716 628 718 615 718 600 c 4
 718 586 716 572 708 554 c 5
 693 554 676 545 664 545 c 4
 657 545 652 547 648 554 c 4
 624 596 622 630 582 656 c 20
 562 669 544 671 524 671 c 4
 512 671 500 670 486 670 c 4
 485 670 484 670 484 670 c 4
 470 670 455 674 442 674 c 4
 431 674 422 670 422 656 c 12
 422 618 399 601 392 564 c 21
 391 515 380 473 380 434 c 4
 380 430 380 426 380 422 c 5
 391 409 407 403 423 403 c 4
 438 403 454 408 468 416 c 12
 501 436 478 484 510 506 c 20
 520 513 529 514 538 514 c 4
 550 514 562 512 575 512 c 4
 577 512 580 512 582 512 c 5
 583 505 584 498 584 491 c 4
 584 440 556 399 552 344 c 5
 536 305 542 273 522 236 c 5
 512 229 500 225 488 225 c 4
 477 225 465 229 456 238 c 5
 449 257 446 272 446 285 c 4
 446 312 456 330 456 357 c 4
 456 359 456 360 456 362 c 5
 438 364 416 366 394 366 c 4
 376 366 358 365 342 362 c 5
 279 299 295 203 282 122 c 13
 305 102 313 82 342 72 c 20
 357 67 370 64 383 64 c 4
 399 64 415 68 434 72 c 5
 443 70 450 70 457 70 c 4
 488 70 506 87 544 126 c 5
 555 128 567 131 577 131 c 4
 587 131 595 129 602 120 c 4
 610 110 612 101 612 91 c 4
 612 64 589 35 584 0 c 5
 577 -1 569 -1 560 -1 c 4
 520 -1 464 4 402 4 c 4
 374 4 344 3 314 0 c 5
 223 -9 74 -10 30 -10 c 4
 22 -10 18 -10 18 -10 c 13
EndSplineSet
Validated: 1
EndChar

StartChar: F
Encoding: 70 70 337
Width: 582
VWidth: 1080
Flags: HW
HStem: 642 103<94 122 255.88 289.978>
LayerCount: 2
Back
Fore
SplineSet
314 0 m 0
 223 -9 74 -10 30 -10 c 0
 22 -10 18 -10 18 -10 c 9
 23 6 19 19 30 32 c 24
 60 65 96 58 138 74 c 17
 161 120 156 208 198 302 c 9
 268 550 l 17
 295 620 307 615 317 677 c 1
 281 676 256 662 227 662 c 0
 212 662 197 665 179 675 c 0
 174 678 172 681 172 685 c 0
 172 698 193 716 198 734 c 1
 259 739 321 737 398 746 c 9
 433 742 453 737 488 736 c 16
 492 736 496 736 500 736 c 0
 532 736 553 739 588 740 c 0
 598 740 607 740 615 740 c 0
 631 740 646 740 666 740 c 1
 667 740 668 740 669 740 c 0
 708 740 706 719 714 644 c 1
 716 628 718 615 718 600 c 0
 718 586 716 572 708 554 c 1
 693 554 676 545 664 545 c 0
 657 545 652 547 648 554 c 0
 624 596 633 640 592 666 c 16
 577 675 564 678 550 678 c 0
 530 678 510 672 486 670 c 0
 485 670 483 670 482 670 c 0
 469 670 454 674 442 674 c 0
 431 674 422 670 422 656 c 8
 422 618 404 600 392 564 c 17
 373 513 354 486 354 448 c 0
 354 445 354 443 354 440 c 1
 383 433 403 411 427 411 c 0
 433 411 439 413 446 416 c 8
 481 432 456 484 488 506 c 16
 497 512 505 514 514 514 c 0
 523 514 534 512 545 512 c 0
 547 512 550 512 552 512 c 1
 553 505 554 498 554 491 c 0
 554 440 526 399 522 344 c 1
 506 305 512 273 492 236 c 9
 448 238 l 17
 436 270 433 286 433 301 c 0
 433 311 434 320 434 334 c 0
 434 337 434 341 434 345 c 1
 416 347 397 349 377 349 c 0
 360 349 344 348 328 345 c 1
 288 251 294 147 270 82 c 9
 298 72 331 84 342 56 c 16
 344 51 345 46 345 40 c 0
 345 21 333 2 314 0 c 0
EndSplineSet
Validated: 1
EndChar

StartChar: G
Encoding: 71 71 338
Width: 710
VWidth: 1080
Flags: HW
LayerCount: 2
Back
Fore
SplineSet
148 88 m 24
 114 122 103 150 88 196 c 16
 73 240 64 272 64 312 c 0
 64 323 65 334 66 346 c 8
 75 437 91 493 144 568 c 24
 192 637 235 666 310 705 c 24
 366 734 403 740 466 747 c 16
 492 750 514 752 534 752 c 0
 561 752 586 749 618 743 c 8
 652 737 672 731 702 713 c 24
 731 696 742 678 768 656 c 17
 768 653 768 650 768 647 c 0
 768 592 752 532 710 494 c 9
 660 506 l 17
 642 552 659 590 626 628 c 9
 597 653 588 681 552 692 c 16
 539 696 527 698 516 698 c 0
 493 698 471 690 444 680 c 8
 385 657 355 631 312 584 c 24
 273 540 253 510 236 454 c 16
 221 405 215 367 215 325 c 0
 215 298 218 269 222 236 c 8
 229 185 232 151 264 110 c 24
 288 79 311 67 348 56 c 16
 370 49 389 44 408 44 c 0
 424 44 439 48 456 56 c 8
 491 73 507 98 518 136 c 16
 523 153 526 169 526 184 c 0
 526 202 522 219 510 236 c 8
 487 271 436 248 414 284 c 24
 409 293 414 300 414 310 c 17
 436 319 456 322 476 322 c 0
 507 322 537 316 572 316 c 0
 577 316 583 316 588 316 c 1
 628 316 651 316 684 316 c 0
 700 316 719 316 744 316 c 1
 744 300 751 286 751 273 c 0
 751 266 749 260 744 254 c 0
 734 242 723 240 710 240 c 0
 697 240 682 243 667 243 c 0
 662 243 658 243 654 242 c 1
 651 230 650 218 650 205 c 0
 650 186 652 165 652 144 c 0
 652 129 651 114 648 98 c 1
 647 92 647 85 647 79 c 0
 647 73 647 67 647 61 c 0
 647 49 645 37 636 26 c 8
 614 -2 587 -2 552 -10 c 16
 504 -21 466 -28 426 -28 c 0
 398 -28 370 -24 336 -16 c 8
 255 4 207 29 148 88 c 24
EndSplineSet
Validated: 1
EndChar

StartChar: H
Encoding: 72 72 339
Width: 774
VWidth: 1080
Flags: HW
VStem: 606 105<119 370>
LayerCount: 2
Back
Fore
SplineSet
304 8 m 1
 300 8 295 8 291 8 c 0
 257 8 205 5 152 0 c 1
 142 3 132 4 123 4 c 0
 100 4 78 -2 45 -2 c 0
 36 -2 26 -1 14 0 c 9
 21 30 9 56 32 78 c 16
 38 83 45 85 52 85 c 0
 65 85 78 81 90 81 c 0
 98 81 106 83 110 92 c 0
 122 116 131 149 140 186 c 24
 150 228 151 252 160 294 c 24
 170 343 174 372 188 420 c 24
 214 509 246 556 272 642 c 1
 266 653 256 657 244 657 c 0
 228 657 209 650 192 650 c 0
 182 650 172 652 164 660 c 8
 150 673 157 689 152 708 c 17
 187 724 247 708 308 726 c 1
 317 725 325 725 333 725 c 0
 360 725 384 728 408 728 c 0
 427 728 445 726 464 720 c 1
 464 718 464 716 464 715 c 0
 464 706 466 698 466 690 c 0
 466 684 464 678 458 672 c 0
 453 668 448 666 443 666 c 0
 433 666 423 671 413 671 c 0
 408 671 403 669 398 666 c 8
 366 642 374 608 362 570 c 24
 345 515 340 482 326 426 c 17
 385 410 460 407 525 407 c 0
 558 407 589 408 614 408 c 9
 637 462 656 490 674 546 c 16
 685 578 706 605 706 632 c 0
 706 641 704 650 698 660 c 8
 683 686 654 675 626 684 c 17
 626 705 640 726 650 738 c 1
 658 741 666 743 676 743 c 0
 703 743 736 732 775 732 c 0
 777 732 780 732 782 732 c 1
 785 732 788 732 791 732 c 0
 815 732 836 738 857 738 c 0
 867 738 877 737 888 732 c 1
 898 717 901 705 901 695 c 0
 901 676 890 666 890 666 c 1
 879 667 865 671 849 671 c 0
 838 671 825 668 812 660 c 1
 757 589 787 492 742 386 c 1
 718 264 661 172 644 74 c 1
 648 73 652 73 656 73 c 0
 670 73 682 76 694 76 c 0
 705 76 716 73 724 62 c 0
 728 57 729 53 729 48 c 0
 729 36 719 23 718 8 c 1
 705 11 692 12 678 12 c 0
 644 12 605 5 562 0 c 1
 549 3 537 4 525 4 c 0
 498 4 472 -2 440 -2 c 0
 431 -2 422 -1 412 0 c 1
 413 5 413 10 413 15 c 0
 413 23 412 31 412 38 c 0
 412 49 414 59 424 68 c 0
 436 78 448 82 461 82 c 0
 481 82 503 74 527 74 c 0
 529 74 530 74 532 74 c 1
 559 143 590 231 590 299 c 0
 590 321 587 340 580 356 c 1
 552 354 520 354 487 354 c 0
 472 354 l 0
 410 354 346 354 298 344 c 1
 232 281 239 184 238 74 c 1
 239 74 241 74 242 74 c 0
 259 74 276 80 291 80 c 0
 300 80 309 77 316 68 c 0
 319 63 321 59 321 54 c 0
 321 40 308 25 304 8 c 1
EndSplineSet
Validated: 1
EndChar

StartChar: I
Encoding: 73 73 340
Width: 491
VWidth: 1080
Flags: W
HStem: -16 100<65.0899 201.068> 658 95<554.281 621.531> 658 86<556.894 621.531> 673 86<296.704 375.719>
LayerCount: 2
Back
Fore
SplineSet
202 94 m 17xc0
 225 143 222 182 244 232 c 9
 256 262 264 279 276 310 c 24
 313 402 342 451 368 546 c 24
 376 573 379 590 380 618 c 16
 381 628 383 638 383 646 c 0
 383 653 382 659 376 665 c 0
 370 671 364 673 356 673 c 0
 343 673 329 667 316 667 c 0
 308 667 302 669 296 675 c 0
 288 684 284 696 284 707 c 0
 284 718 288 729 296 738 c 0
 311 754 327 759 345 759 c 0x90
 373 759 405 746 439 746 c 0
 442 746 444 746 446 746 c 1
 453 744 460 744 467 744 c 0xa0
 492 744 516 753 556 753 c 0xc0
 575 753 598 751 626 744 c 1xa0
 626 742 626 741 626 739 c 0
 626 723 631 709 631 696 c 0
 631 687 629 679 622 671 c 0
 612 660 601 658 589 658 c 0
 583 658 577 658 571 658 c 0
 565 658 560 658 554 657 c 1
 505 589 492 534 472 452 c 9
 404 266 l 17
 389 203 369 166 350 90 c 9
 379 78 407 86 425 60 c 16
 430 52 432 45 432 37 c 0
 432 22 425 7 425 -12 c 1
 402 -11 322 1 240 1 c 0
 223 1 206 0 190 -1 c 1
 154 -2 124 -16 95 -16 c 0
 82 -16 68 -13 54 -3 c 0
 45 3 39 13 39 24 c 0
 39 28 40 32 42 36 c 8
 61 78 106 70 150 84 c 24
 170 90 182 90 202 94 c 17xc0
EndSplineSet
Validated: 1
EndChar

StartChar: J
Encoding: 74 74 341
Width: 559
VWidth: 1000
Flags: HW
VStem: 193 99<-54 524>
LayerCount: 2
Back
Fore
SplineSet
16 -188 m 1
 13 -177 12 -165 12 -153 c 0
 12 -132 17 -110 28 -92 c 1
 50 -89 65 -81 84 -81 c 0
 89 -81 94 -81 100 -83 c 8
 136 -92 149 -116 178 -140 c 16
 193 -153 198 -179 214 -179 c 0
 216 -179 218 -179 220 -178 c 0
 255 -166 248 -146 254 -116 c 1
 279 -81 302 -9 312 66 c 9
 347 141 364 184 402 258 c 24
 422 296 454 311 456 354 c 16
 456 355 456 356 456 357 c 0
 456 378 446 392 432 408 c 8
 410 432 361 418 360 450 c 16
 360 451 l 0
 360 472 384 479 406 482 c 0
 408 482 410 482 411 482 c 0
 435 482 452 456 473 456 c 0
 477 456 480 456 484 458 c 8
 518 472 523 505 529 542 c 16
 530 548 531 553 531 558 c 0
 531 567 529 575 523 584 c 8
 510 603 494 608 472 614 c 16
 468 615 464 615 461 615 c 0
 446 615 434 609 421 609 c 0
 416 609 411 610 406 612 c 8
 357 632 358 686 310 708 c 16
 298 713 288 715 278 715 c 0
 268 715 259 714 248 714 c 0
 245 714 241 714 238 714 c 1
 216 697 196 672 196 655 c 0
 196 654 l 9
 226 640 249 641 272 618 c 16
 285 605 298 591 298 575 c 0
 298 572 297 568 296 564 c 0
 281 526 245 504 207 504 c 0
 195 504 183 506 172 510 c 8
 142 521 149 554 136 582 c 24
 126 603 121 615 112 636 c 17
 124 680 133 708 166 744 c 1
 203 749 224 758 259 758 c 0
 262 758 265 758 268 758 c 8
 340 754 381 741 448 714 c 24
 491 697 504 654 550 654 c 24
 615 654 632 719 694 738 c 16
 713 744 730 752 746 752 c 0
 755 752 763 749 772 744 c 8
 800 727 790 696 802 666 c 17
 769 641 726 645 682 624 c 1
 665 595 622 553 622 498 c 0
 622 496 622 494 622 492 c 1
 645 482 662 486 691 480 c 1
 691 467 697 456 697 445 c 0
 697 440 696 435 691 431 c 0
 683 423 674 420 664 420 c 0
 644 420 622 432 598 432 c 1
 520 288 508 168 448 12 c 9
 392 -56 370 -104 304 -162 c 17
 258 -217 223 -230 172 -246 c 1
 157 -251 144 -253 131 -253 c 0
 86 -253 56 -225 16 -188 c 1
EndSplineSet
Validated: 1
EndChar

StartChar: K
Encoding: 75 75 342
Width: 725
VWidth: 1080
Flags: HW
VStem: 111 114<401 656.683> 111 122<657 666>
LayerCount: 2
Back
Fore
SplineSet
364 376 m 16
 408 418 538 544 666 645 c 9
 647 666 627 672 618 699 c 16
 617 703 616 707 616 710 c 0
 616 722 622 732 624 747 c 1
 637 752 652 754 668 754 c 0
 716 754 772 737 822 737 c 0
 832 737 842 737 852 739 c 1
 852 728 855 720 855 711 c 0
 855 707 854 702 852 697 c 0
 840 672 789 689 772 673 c 0
 723 627 693 575 630 523 c 1
 573 462 513 416 474 372 c 1
 476 256 569 197 636 82 c 1
 653 82 669 90 683 90 c 0
 690 90 696 88 702 82 c 0
 710 74 712 66 712 58 c 0
 712 40 702 21 702 0 c 1
 671 7 633 9 593 9 c 0
 518 9 437 1 386 0 c 1
 387 5 387 11 387 16 c 0
 387 21 387 27 387 32 c 0
 387 42 389 52 398 60 c 0
 403 64 409 66 415 66 c 0
 433 66 453 52 470 52 c 0
 476 52 482 54 488 60 c 0
 494 66 496 72 496 79 c 0
 496 93 488 109 488 126 c 1
 428 203 407 278 356 312 c 9
 308 294 l 17
 285 203 250 150 250 110 c 0
 250 103 251 96 254 90 c 9
 280 79 306 86 320 62 c 16
 323 57 324 53 324 48 c 0
 324 36 315 23 314 8 c 1
 290 -0 262 -3 231 -3 c 0
 182 -3 128 3 74 3 c 0
 54 3 34 2 14 0 c 1
 14 19 6 35 6 50 c 0
 6 58 8 65 14 72 c 0
 27 88 43 91 61 91 c 0
 76 91 92 89 109 89 c 0
 115 89 121 89 128 90 c 1
 198 187 154 260 210 376 c 1
 244 493 289 575 336 664 c 9
 216 664 l 17
 219 692 229 728 242 748 c 1
 263 751 286 752 309 752 c 0
 377 752 450 744 504 744 c 0
 510 744 516 744 522 744 c 1
 523 737 524 728 524 720 c 0
 524 706 522 691 514 678 c 9
 430 654 l 17
 394 606 396 536 370 450 c 9
 364 376 l 16
EndSplineSet
Validated: 1
EndChar

StartChar: L
Encoding: 76 76 343
Width: 604
VWidth: 1080
Flags: W
HStem: -9 88<40.4219 128.72> -1 66<243.201 455.601> 682 73<427.37 509.624> 698 59<214 300.267>
LayerCount: 2
Back
Fore
SplineSet
34 0 m 1x80
 34 2 34 3 34 5 c 0
 34 19 30 32 30 44 c 0
 30 52 32 60 40 68 c 0
 49 77 58 79 69 79 c 0
 84 79 101 74 119 74 c 0
 121 74 122 74 124 74 c 1
 151 212 147 280 196 398 c 9
 233 485 262 531 292 620 c 24
 298 638 299 649 304 668 c 17
 294 695 271 698 246 698 c 0
 240 698 235 698 229 698 c 0
 217 698 205 699 196 703 c 9
 214 756 l 17
 225 756 235 757 245 757 c 0x90
 282 757 303 754 322 754 c 0
 334 754 345 755 358 759 c 1
 372 755 386 754 400 754 c 0
 415 754 430 755 445 755 c 0
 470 755 493 751 516 730 c 1
 516 728 516 726 516 724 c 0
 516 718 517 711 517 705 c 0
 517 699 515 693 510 688 c 0
 502 680 493 678 484 678 c 0
 471 678 458 682 443 682 c 0
 442 682 440 682 438 682 c 1
 389 601 389 516 348 414 c 1
 306 299 341 407 234 120 c 9
 236 108 232 98 240 90 c 16
 261 69 284 65 310 65 c 0
 326 65 342 66 360 66 c 8
 396 66 415 77 450 84 c 17
 512 113 500 160 578 232 c 9
 614 226 l 17
 614 223 614 219 614 216 c 0
 614 147 594 68 560 16 c 1
 517 1 478 -2 437 -2 c 0
 409 -2 380 -1 349 -1 c 0
 339 -1 329 -1 319 -1 c 0x60
 251 -3 200 -9 146 -9 c 0
 111 -9 76 -7 34 0 c 1x80
EndSplineSet
Validated: 1
EndChar

StartChar: M
Encoding: 77 77 344
Width: 921
VWidth: 1080
Flags: HW
VStem: 153 86<145 454.704>
LayerCount: 2
Back
Fore
SplineSet
83 -17 m 0
 48 -17 28 13 28 40 c 0
 28 61 42 101 79 101 c 0
 94 101 111 96 129 96 c 2
 134 96 l 1
 156 184 156 244 194 330 c 10
 296 560 l 18
 299 568 330 620 330 648 c 0
 330 653 329 657 326 660 c 0
 317 670 306 674 294 674 c 0
 274 674 251 665 232 665 c 0
 203 665 191 685 191 701 c 0
 191 716 198 731 198 749 c 2
 198 751 l 1
 215 753 230 754 243 754 c 0
 282 754 307 746 334 746 c 0
 341 746 348 747 356 748 c 1
 364 746 373 745 381 745 c 0
 410 745 439 756 467 756 c 0
 483 756 500 752 516 742 c 1
 527 700 530 665 530 633 c 0
 530 582 522 537 522 483 c 0
 522 469 523 454 524 438 c 1
 524 438 503 354 503 290 c 0
 503 263 507 239 518 228 c 1
 552 247 644 359 674 456 c 1
 766 561 783 652 838 745 c 1
 853 750 866 751 880 751 c 0
 896 751 912 749 930 749 c 0
 939 749 948 750 958 751 c 1
 966 749 973 748 980 748 c 0
 995 748 1011 751 1029 751 c 0
 1042 751 1056 750 1072 745 c 1
 1072 743 1072 741 1072 739 c 0
 1072 723 1076 708 1076 695 c 0
 1076 685 1074 675 1066 666 c 8
 1047 644 1022 655 994 648 c 17
 994 634 l 2
 994 529 918 432 880 300 c 8
 862 237 843 203 837 138 c 16
 835 122 831 106 831 92 c 0
 831 76 840 54 859 54 c 0
 870 54 884 61 895 61 c 0
 913 61 918 39 918 32 c 0
 918 13 901 -18 857 -18 c 0
 835 -18 811 -11 785 -11 c 0
 780 -11 776 -12 772 -12 c 0
 758 -12 745 -10 732 -10 c 0
 716 -10 701 -11 687 -11 c 0
 663 -11 641 -9 616 0 c 1
 615 15 608 28 608 40 c 0
 608 54 623 74 655 74 c 0
 670 74 685 71 702 71 c 0
 707 71 713 71 718 72 c 1
 742 165 774 282 812 418 c 0
 827 473 848 531 848 562 c 0
 848 564 848 566 848 568 c 9
 818 562 l 17
 742 471 717 389 632 292 c 0
 549 197 543 99 476 16 c 9
 428 16 l 17
 413 70 410 108 410 142 c 0
 410 168 412 192 412 220 c 0
 412 277 407 277 407 315 c 0
 407 360 414 402 414 438 c 0
 414 458 412 476 404 490 c 9
 356 490 l 17
 322 383 307 315 274 208 c 0
 262 170 235 139 235 107 c 0
 235 97 240 68 264 68 c 0
 275 68 287 72 298 72 c 0
 324 72 333 39 333 28 c 0
 333 1 309 -18 280 -18 c 0
 250 -18 215 0 178 0 c 0
 143 0 111 -17 83 -17 c 0
EndSplineSet
Validated: 1
EndChar

StartChar: N
Encoding: 78 78 345
Width: 710
VWidth: 1080
Flags: HW
VStem: 134 65<114 657>
LayerCount: 2
Back
Fore
SplineSet
378 78 m 16
 380 73 381 69 381 64 c 0
 381 42 358 25 348 0 c 1
 341 -0 335 -0 328 -0 c 0
 295 -0 262 1 225 1 c 0
 208 1 190 1 170 0 c 1
 163 1 157 1 151 1 c 0
 118 1 88 -9 60 -9 c 0
 46 -9 33 -6 20 0 c 9
 29 32 19 59 44 82 c 16
 66 102 90 103 116 103 c 0
 120 103 l 0
 134 103 148 103 164 106 c 1
 189 222 210 326 242 430 c 1
 262 498 261 532 311 604 c 9
 317 646 l 17
 309 659 300 663 290 663 c 0
 278 663 264 658 246 658 c 0
 237 658 226 659 214 664 c 9
 226 733 l 17
 257 743 292 746 327 746 c 0
 368 746 410 742 448 737 c 1
 523 662 506 603 550 500 c 1
 587 411 598 296 638 258 c 1
 683 285 651 395 688 468 c 9
 708 522 723 551 740 606 c 16
 745 621 756 632 756 644 c 0
 756 647 755 651 752 655 c 0
 746 664 737 667 727 667 c 0
 715 667 701 663 688 663 c 0
 678 663 669 665 662 673 c 0
 655 681 653 689 653 697 c 0
 653 708 656 720 656 733 c 0
 656 735 656 737 656 739 c 1
 679 746 700 748 721 748 c 0
 742 748 764 746 788 746 c 0
 796 746 805 746 814 747 c 1
 825 745 836 745 846 745 c 0
 870 745 892 748 912 748 c 0
 917 748 923 748 928 747 c 1
 929 726 942 707 942 689 c 0
 942 682 940 675 934 669 c 0
 929 663 923 661 916 661 c 0
 904 661 889 669 874 669 c 1
 782 607 808 535 760 410 c 1
 718 280 738 148 652 10 c 1
 638 10 627 5 615 5 c 0
 610 5 604 6 598 10 c 8
 550 41 559 89 538 142 c 24
 503 232 490 285 460 376 c 17
 428 449 445 513 418 586 c 9
 375 568 l 17
 354 468 356 405 327 304 c 9
 309 248 291 218 282 160 c 16
 281 151 278 144 278 137 c 0
 278 133 279 129 282 124 c 8
 304 89 363 117 378 78 c 16
EndSplineSet
Validated: 1
EndChar

StartChar: O
Encoding: 79 79 346
Width: 736
VWidth: 1080
Flags: W
HStem: -10 55<304.832 444.031> 646 96<388.68 423.626> 695 64<468.042 587.783>
VStem: 83 117<162.909 425.143> 671 105<336.361 578.374>
LayerCount: 2
Back
Fore
SplineSet
342 723 m 24xb8
 349 726 353 726 360 728 c 17
 370 684 374 671 374 663 c 0
 374 656 371 653 366 638 c 9
 326 594 296 574 264 524 c 24
 238 483 235 454 216 410 c 17
 207 359 200 317 200 275 c 0
 200 234 207 194 228 148 c 9
 269 111 281 72 332 52 c 16
 344 47 354 45 365 45 c 0
 377 45 388 48 402 52 c 8
 478 75 519 106 570 166 c 24
 617 221 631 264 648 334 c 16
 661 388 671 431 671 476 c 0
 671 504 667 534 658 568 c 8
 646 616 632 647 592 676 c 16
 574 689 558 695 538 695 c 0xb8
 532 695 526 695 520 694 c 1
 470 688 453 655 436 646 c 1
 431 645 427 644 424 644 c 0
 416 644 409 646 400 646 c 1
 389 657 386 671 386 685 c 0
 386 699 389 714 389 729 c 0
 389 733 389 738 388 742 c 1xd8
 422 747 442 756 475 756 c 0
 478 756 481 756 484 756 c 1
 495 758 505 759 513 759 c 0
 556 759 580 741 616 720 c 1
 665 684 709 671 737 616 c 16
 765 560 776 512 776 461 c 0
 776 422 770 381 761 334 c 8
 745 247 719 199 664 130 c 24
 627 83 596 63 544 34 c 24
 510 15 488 7 450 0 c 16
 416 -6 389 -10 362 -10 c 0
 339 -10 316 -7 288 0 c 8
 236 13 215 40 168 66 c 17
 104 125 98 171 86 276 c 1
 85 303 83 326 83 348 c 0
 83 384 87 418 98 462 c 8
 114 526 126 566 170 616 c 24
 222 675 270 691 342 723 c 24xb8
EndSplineSet
Validated: 1
EndChar

StartChar: P
Encoding: 80 80 347
Width: 595
VWidth: 1080
Flags: HW
VStem: 118 118<94 333>
LayerCount: 2
Back
Fore
SplineSet
322 420 m 1
 334 410 349 407 367 407 c 0
 386 407 409 411 431 411 c 0
 441 411 451 410 460 408 c 9
 481 429 500 436 514 462 c 16
 532 497 544 526 544 559 c 0
 544 572 542 586 538 601 c 8
 529 631 514 651 484 661 c 16
 475 664 466 666 458 666 c 0
 442 666 427 660 412 649 c 8
 370 618 375 575 352 528 c 17
 344 493 320 465 320 434 c 0
 320 430 321 425 322 420 c 1
190 -5 m 0
 173 -1 156 -0 140 -0 c 0
 122 -0 105 -2 88 -2 c 0
 68 -2 49 0 31 9 c 1
 31 27 24 42 24 57 c 0
 24 64 26 72 31 79 c 8
 45 98 67 89 90 96 c 17
 150 204 157 304 203 424 c 1
 232 529 255 590 286 671 c 9
 279 680 280 693 268 695 c 16
 267 695 266 695 265 695 c 0
 251 695 247 676 232 671 c 0
 220 667 209 663 198 663 c 0
 191 663 184 665 178 671 c 0
 173 676 170 683 170 689 c 0
 170 697 174 705 178 713 c 8
 188 732 207 731 225 743 c 17
 240 746 254 747 269 747 c 0
 294 747 320 744 352 744 c 0
 361 744 371 744 381 745 c 1
 388 745 395 744 402 744 c 0
 431 744 455 748 480 748 c 0
 502 748 525 745 551 735 c 8
 612 712 658 692 683 631 c 16
 689 616 692 602 692 588 c 0
 692 558 679 531 666 496 c 8
 647 446 628 418 588 382 c 24
 566 362 548 360 522 346 c 17
 496 333 469 330 442 330 c 0
 416 330 389 333 362 333 c 0
 342 333 322 331 302 326 c 1
 289 257 293 251 274 192 c 9
 260 148 246 140 228 84 c 8
 224 73 244 75 256 72 c 16
 259 71 262 71 265 71 c 0
 281 71 295 79 309 79 c 0
 316 79 322 76 328 70 c 0
 333 64 335 58 335 52 c 0
 335 36 323 19 322 0 c 1
 314 0 306 0 299 0 c 0
 255 0 233 -4 190 -5 c 0
EndSplineSet
Validated: 1
EndChar

StartChar: Q
Encoding: 81 81 348
Width: 765
VWidth: 1080
Flags: HW
LayerCount: 2
Back
Fore
SplineSet
152 94 m 16
 148 94 145 94 142 94 c 0
 128 94 125 90 100 60 c 1
 119 45 129 32 150 32 c 0
 151 32 152 32 154 32 c 8
 173 34 186 42 193 62 c 1
 178 78 172 93 152 94 c 16
438 456 m 16
 430 465 426 477 426 488 c 0
 426 500 431 511 440 520 c 0
 451 530 464 534 477 534 c 0
 492 534 507 529 520 518 c 0
 536 505 540 489 540 470 c 0
 540 460 539 449 538 438 c 8
 535 403 527 381 504 354 c 24
 471 316 443 296 394 290 c 16
 383 289 373 288 363 288 c 0
 315 288 279 304 234 334 c 8
 197 359 172 382 164 426 c 16
 163 434 162 442 162 450 c 0
 162 493 185 525 210 568 c 8
 240 620 264 647 312 682 c 24
 345 706 368 714 408 723 c 16
 481 739 540 754 600 754 c 0
 640 754 680 748 726 731 c 8
 776 713 810 692 828 642 c 16
 838 614 843 589 843 564 c 0
 843 508 820 457 792 396 c 8
 768 344 737 325 696 284 c 24
 639 228 604 199 540 152 c 24
 502 124 478 111 438 86 c 24
 422 76 420 84 396 62 c 1
 406 40 444 41 474 26 c 24
 546 -11 583 -38 654 -76 c 24
 732 -118 769 -161 856 -180 c 16
 872 -184 885 -185 899 -185 c 0
 934 -185 964 -175 1006 -174 c 1
 1059 -164 1086 -129 1126 -110 c 9
 1140 -119 1161 -117 1162 -134 c 16
 1162 -136 1162 -138 1162 -141 c 0
 1162 -199 1099 -220 1042 -242 c 0
 998 -260 960 -266 922 -266 c 0
 878 -266 833 -257 778 -248 c 8
 704 -236 664 -217 598 -182 c 24
 511 -135 472 -93 394 -32 c 24
 372 -15 365 1 340 13 c 16
 322 22 308 26 292 26 c 0
 286 26 280 26 274 25 c 8
 229 18 216 -22 172 -32 c 16
 155 -36 141 -39 126 -39 c 0
 112 -39 97 -36 82 -26 c 0
 52 -6 33 19 33 52 c 0
 33 56 33 60 34 64 c 8
 39 105 67 127 106 141 c 16
 117 145 127 146 136 146 c 0
 166 146 191 131 226 124 c 0
 261 117 279 100 313 100 c 0
 314 100 315 100 316 100 c 8
 331 100 339 106 352 112 c 24
 444 156 497 185 572 254 c 24
 634 311 677 346 704 426 c 16
 716 460 722 489 722 518 c 0
 722 544 717 571 704 600 c 8
 686 641 661 662 620 679 c 16
 592 691 568 696 543 696 c 0
 521 696 497 692 470 685 c 8
 433 676 416 659 386 636 c 24
 353 611 330 599 308 564 c 24
 287 530 282 506 280 466 c 16
 280 458 280 451 280 445 c 0
 280 423 282 405 296 384 c 8
 309 366 323 359 344 354 c 16
 362 350 378 346 394 346 c 0
 410 346 424 350 440 360 c 8
 463 376 465 398 470 426 c 24
 472 436 475 445 468 452 c 24
 460 461 446 447 438 456 c 16
EndSplineSet
Validated: 1
EndChar

StartChar: R
Encoding: 82 82 349
Width: 645
VWidth: 1080
Flags: HW
LayerCount: 2
Back
Fore
SplineSet
333 404 m 0
 332 402 332 400 332 398 c 0
 332 386 344 382 360 382 c 0
 381 382 410 389 429 392 c 8
 475 400 505 410 533 448 c 16
 563 488 575 524 575 566 c 0
 575 584 573 602 569 622 c 8
 565 652 553 672 525 688 c 16
 515 694 505 698 494 698 c 0
 487 698 480 697 473 694 c 8
 433 678 421 648 401 610 c 24
 373 566 373 534 357 484 c 24
 349 454 345 444 333 404 c 0
317 78 m 16
 322 71 324 64 324 57 c 0
 324 40 313 21 313 0 c 1
 306 -3 299 -4 290 -4 c 0
 265 -4 233 6 196 6 c 0
 181 6 165 4 149 0 c 1
 138 1 127 2 117 2 c 0
 92 2 69 -1 48 -1 c 0
 41 -1 35 -1 29 0 c 1
 29 17 22 33 22 47 c 0
 22 54 24 61 29 68 c 0
 39 79 50 82 62 82 c 0
 77 82 93 77 111 77 c 0
 114 77 118 78 121 78 c 1
 183 182 177 274 229 390 c 9
 245 458 249 498 269 564 c 24
 281 594 301 606 301 638 c 16
 302 644 303 650 303 655 c 0
 303 663 300 670 293 676 c 0
 284 683 275 685 265 685 c 0
 249 685 232 679 215 679 c 0
 206 679 197 681 189 688 c 0
 183 695 182 702 182 711 c 0
 182 715 182 719 182 724 c 0
 182 728 182 733 181 738 c 1
 189 746 205 748 227 748 c 0
 258 748 298 744 341 744 c 0
 362 744 384 745 405 748 c 9
 473 740 515 750 581 728 c 24
 621 714 653 706 673 670 c 16
 691 641 699 612 699 583 c 0
 699 557 692 530 681 502 c 8
 661 454 627 438 585 406 c 24
 561 390 545 390 521 374 c 24
 501 360 479 356 473 332 c 16
 472 328 472 324 472 320 c 0
 472 290 499 272 513 242 c 8
 541 190 539 146 585 110 c 16
 590 107 596 106 602 106 c 0
 610 106 618 107 626 107 c 0
 634 107 640 106 645 98 c 0
 651 90 654 81 654 72 c 0
 654 54 644 35 629 22 c 0
 615 8 598 1 580 1 c 0
 568 1 556 4 545 10 c 8
 493 32 483 78 461 130 c 16
 431 194 409 228 389 314 c 0
 387 326 377 329 365 329 c 0
 357 329 348 328 341 326 c 8
 309 318 303 294 281 272 c 17
 276 211 248 160 248 114 c 0
 248 108 248 103 249 98 c 9
 277 90 301 102 317 78 c 16
EndSplineSet
Validated: 1
EndChar

StartChar: S
Encoding: 83 83 350
Width: 424
VWidth: 1080
Flags: HW
LayerCount: 2
Back
Fore
SplineSet
84 326 m 1
 90 329 96 330 103 330 c 0
 120 330 137 319 148 303 c 0
 156 292 158 281 158 270 c 0
 158 244 142 217 142 188 c 0
 142 180 143 172 146 164 c 8
 162 123 180 96 221 79 c 16
 230 75 237 74 245 74 c 0
 257 74 269 77 283 81 c 8
 303 87 319 89 329 107 c 16
 343 131 348 154 348 177 c 0
 348 209 337 242 323 278 c 8
 293 356 227 352 186 443 c 9
 172 483 154 504 149 546 c 16
 148 557 147 568 147 577 c 0
 147 597 151 615 162 636 c 8
 190 691 220 723 278 744 c 16
 301 752 321 756 340 756 c 0
 368 756 395 748 426 733 c 8
 471 711 478 675 511 637 c 17
 509 582 496 527 477 495 c 9
 437 500 l 17
 436 510 435 520 435 528 c 0
 435 552 440 568 440 584 c 0
 440 595 438 606 431 620 c 9
 414 638 409 655 386 666 c 16
 370 673 356 677 342 677 c 0
 332 677 323 675 312 671 c 8
 274 656 253 631 243 592 c 16
 241 584 240 577 240 570 c 0
 240 543 253 522 266 495 c 8
 307 411 385 398 416 310 c 16
 427 280 432 254 432 228 c 0
 432 200 426 172 416 139 c 8
 399 84 382 44 331 18 c 16
 306 5 283 -1 260 -1 c 0
 234 -1 209 6 181 18 c 8
 145 33 146 72 111 88 c 16
 106 90 101 91 96 91 c 0
 83 91 70 86 59 86 c 0
 52 86 45 88 40 94 c 1
 39 99 39 103 39 108 c 0
 39 133 47 160 47 190 c 0
 47 196 47 202 46 208 c 1
 58 254 63 292 84 326 c 1
EndSplineSet
Validated: 1
EndChar

StartChar: T
Encoding: 84 84 351
Width: 666
VWidth: 1080
Flags: HW
VStem: 333.418 140.6<113.9 603.559> 333.418 156.75<106.3 113.9>
LayerCount: 2
Back
Fore
SplineSet
471 66 m 0
 475 62 476 57 476 52 c 0
 476 39 463 24 460 7 c 1
 454 7 449 7 443 7 c 0
 420 7 397 8 371 8 c 0
 359 8 347 8 334 7 c 1
 326 9 318 9 310 9 c 0
 295 9 281 7 265 7 c 0
 249 7 232 9 210 15 c 1
 208 36 195 54 195 70 c 0
 195 77 197 83 203 89 c 0
 211 97 220 100 229 100 c 0
 250 100 273 84 300 83 c 1
 326 188 359 300 408 437 c 9
 431 492 452 521 465 579 c 24
 472 607 469 624 471 653 c 17
 440 661 416 666 391 666 c 0
 371 666 351 663 328 654 c 8
 287 639 271 615 243 581 c 24
 223 557 206 542 203 511 c 16
 203 509 203 507 203 505 c 0
 203 488 207 475 220 465 c 0
 225 461 231 460 236 460 c 0
 250 460 265 468 277 468 c 0
 284 468 290 466 294 459 c 0
 299 452 301 445 301 438 c 0
 301 420 288 402 272 388 c 0
 254 374 235 366 215 366 c 0
 202 366 188 369 175 377 c 8
 140 397 139 431 134 471 c 16
 133 479 132 487 132 494 c 0
 132 517 138 535 148 560 c 8
 167 608 185 633 222 668 c 24
 253 697 273 713 313 725 c 16
 341 734 364 736 387 736 c 0
 415 736 442 733 475 733 c 0
 479 733 484 733 488 733 c 0
 491 733 494 733 497 733 c 0
 538 733 568 729 603 729 c 0
 620 729 638 730 659 733 c 0
 685 736 700 758 721 758 c 0
 725 758 729 757 733 756 c 0
 757 747 774 728 774 704 c 0
 774 700 774 697 773 693 c 8
 768 663 739 657 711 647 c 16
 693 641 678 639 663 639 c 0
 633 639 605 647 568 647 c 1
 537 585 543 512 513 429 c 9
 491 360 480 321 456 252 c 24
 435 192 404 162 399 98 c 24
 398 87 396 77 405 69 c 16
 409 65 414 64 419 64 c 0
 431 64 445 73 457 73 c 0
 462 73 467 71 471 66 c 0
EndSplineSet
Validated: 1
EndChar

StartChar: U
Encoding: 85 85 352
Width: 753
VWidth: 1080
Flags: HW
LayerCount: 2
Fore
SplineSet
153 674 m 0
 145 684 141 697 141 708 c 0
 141 719 144 729 153 737 c 1
 167 745 179 748 191 748 c 0
 216 748 239 735 268 735 c 0
 269 735 271 735 272 735 c 1
 274 735 275 735 277 735 c 0
 323 735 300 747 392 747 c 0
 406 747 423 747 443 746 c 1
 450 738 453 728 453 718 c 0
 453 699 442 680 426 666 c 0
 423 664 420 663 417 663 c 0
 408 663 399 669 390 669 c 0
 387 669 384 668 381 666 c 1
 309 608 309 534 274 446 c 9
 249 377 236 337 229 264 c 16
 226 236 220 213 220 190 c 0
 220 173 224 157 234 138 c 8
 262 91 300 71 354 64 c 16
 360 63 366 63 372 63 c 0
 409 63 435 78 470 100 c 8
 519 131 541 159 571 209 c 24
 613 280 610 333 637 412 c 17
 660 494 688 545 711 617 c 9
 709 636 699 646 683 657 c 16
 674 663 664 664 655 664 c 0
 649 664 644 664 639 664 c 0
 627 664 617 665 609 676 c 0
 601 686 597 698 597 709 c 0
 597 719 600 729 609 737 c 1
 622 740 633 741 642 741 c 0
 676 741 687 727 723 727 c 1
 755 728 775 740 804 740 c 0
 809 740 814 740 820 739 c 8
 839 735 856 734 865 716 c 16
 869 707 872 698 872 690 c 0
 872 675 865 661 854 648 c 8
 838 630 813 647 797 630 c 17
 752 542 754 467 711 368 c 9
 677 281 666 226 609 152 c 24
 568 99 535 75 478 41 c 24
 437 17 411 1 364 -2 c 16
 353 -3 344 -3 334 -3 c 0
 293 -3 262 6 221 28 c 8
 169 56 134 78 113 133 c 16
 104 156 101 176 101 196 c 0
 101 237 115 276 124 326 c 8
 141 422 167 472 196 564 c 16
 205 592 229 611 229 634 c 0
 229 640 228 645 225 651 c 0
 219 662 209 664 198 664 c 0
 192 664 186 663 180 663 c 0
 169 663 159 665 153 674 c 0
EndSplineSet
Validated: 1
EndChar

StartChar: V
Encoding: 86 86 353
Width: 616
VWidth: 1080
Flags: W
HStem: 670 85<702.188 783.153> 684 60<150.235 209.388 398.125 469.624 532.188 565.673>
LayerCount: 2
Back
Fore
SplineSet
10 18 m 0x80
 40 140 64 152 94 240 c 24
 124 328 132 381 165 468 c 24
 186 523 215 548 227 606 c 16
 231 622 237 638 237 652 c 0
 237 661 234 670 227 678 c 0
 222 683 216 685 210 685 c 0
 197 685 181 677 168 677 c 0
 161 677 155 679 150 684 c 0
 143 691 141 698 141 706 c 0
 141 716 144 727 144 739 c 0
 144 741 144 742 144 744 c 1
 160 748 175 748 191 748 c 0
 206 748 221 748 236 748 c 0
 255 748 274 749 294 754 c 1
 307 753 319 752 330 752 c 0
 354 752 375 754 397 754 c 0
 421 754 445 752 470 744 c 1
 470 730 476 717 476 706 c 0
 476 700 475 695 470 690 c 0
 462 681 452 678 442 678 c 0
 427 678 409 684 391 684 c 0
 389 684 388 684 386 684 c 1
 355 603 341 559 308 480 c 9
 272 401 245 359 216 278 c 16
 210 260 181 222 181 210 c 0
 181 208 182 207 184 207 c 0
 187 207 191 208 198 212 c 1
 279 299 300 357 378 428 c 9
 451 502 496 554 564 618 c 0
 577 630 585 644 585 659 c 0
 585 665 584 672 580 678 c 0
 577 684 571 685 566 685 c 0
 559 685 553 684 546 684 c 0
 541 684 536 685 532 690 c 0
 529 695 528 699 528 704 c 0
 528 716 537 729 538 744 c 1x40
 558 752 576 755 593 755 c 0
 612 755 631 752 652 752 c 0
 657 752 661 752 666 752 c 1
 673 751 679 751 686 751 c 0
 706 751 725 755 745 755 c 0x80
 756 755 768 753 780 750 c 1
 781 732 791 717 791 702 c 0
 791 696 789 690 784 684 c 0x40
 775 673 765 670 753 670 c 0
 741 670 728 673 715 673 c 0
 711 673 706 673 702 672 c 1
 667 639 586 546 516 468 c 9
 425 372 368 323 282 222 c 24
 236 168 216 133 172 78 c 24
 147 47 144 13 107 0 c 16
 91 -6 69 -10 50 -10 c 0
 28 -10 9 -4 9 12 c 0
 9 14 9 16 10 18 c 0x80
EndSplineSet
Validated: 1
EndChar

StartChar: W
Encoding: 87 87 354
Width: 969
VWidth: 1080
Flags: W
HStem: 646 107<758.422 854> 658 66<378.264 447.577> 673 73<946.467 984.998> 687 65<560.239 609.859>
VStem: 985 151<649.995 704.5>
LayerCount: 2
Back
Fore
SplineSet
42 16 m 1x28
 42 108 88 161 112 254 c 9
 149 355 178 410 208 514 c 16
 218 547 233 570 233 600 c 0
 233 607 232 614 230 622 c 8
 226 639 218 651 202 658 c 16
 199 659 196 660 193 660 c 0
 179 660 166 648 153 648 c 0
 150 648 146 649 142 652 c 0
 131 661 125 675 125 688 c 0
 125 699 129 710 136 720 c 1
 163 740 191 743 220 743 c 0
 234 743 248 743 263 743 c 0
 272 743 282 743 292 744 c 1
 302 743 311 742 321 742 c 0
 340 742 359 744 377 744 c 0
 404 744 429 741 454 724 c 1
 460 717 462 709 462 701 c 0
 462 689 457 677 448 668 c 0
 439 658 429 658 417 658 c 0
 414 658 l 0x48
 408 658 401 658 394 656 c 1
 393 656 391 656 390 656 c 0
 327 656 313 460 286 420 c 9
 263 348 245 309 226 236 c 16
 225 233 225 231 225 229 c 0
 225 226 226 225 228 225 c 0
 245 225 343 354 400 416 c 8
 472 494 521 532 580 620 c 16
 592 638 613 651 613 668 c 0
 613 672 612 676 610 680 c 0
 607 685 603 687 598 687 c 0x18
 587 687 574 680 563 680 c 0
 558 680 553 681 550 686 c 0
 547 690 546 694 546 698 c 0
 546 713 562 728 568 746 c 1x28
 579 751 590 752 602 752 c 0x18
 620 752 641 749 664 749 c 0
 679 749 694 750 711 754 c 0
 727 753 739 753 751 753 c 0
 776 753 798 755 854 758 c 1
 855 730 870 706 870 684 c 0
 870 674 867 665 860 656 c 0
 852 645 841 642 830 642 c 0
 816 642 801 646 786 646 c 0x88
 776 646 767 645 758 638 c 1
 693 550 681 459 618 348 c 1
 596 300 541 209 541 195 c 0
 541 194 541 193 542 193 c 0
 543 193 545 195 549 198 c 8
 589 235 620 246 660 282 c 24
 751 364 796 417 874 510 c 24
 897 537 907 554 928 582 c 24
 949 609 974 622 982 650 c 1
 982 650 985 655 985 661 c 0
 985 667 982 673 970 673 c 0
 964 673 956 671 946 668 c 9
 941 652 946 638 934 626 c 24
 929 621 923 622 916 620 c 17
 905 632 902 648 902 666 c 0
 902 687 907 710 910 734 c 1
 933 742 960 745 1012 746 c 1
 1021 745 1030 744 1039 744 c 0
 1059 744 1078 747 1094 747 c 0
 1099 747 1104 746 1108 746 c 1
 1128 728 1136 712 1136 697 c 0
 1136 675 1120 655 1102 637 c 9
 1030 631 l 17
 972 569 951 507 892 434 c 9
 837 376 806 343 750 286 c 24
 683 218 638 187 574 116 c 17
 535 66 504 41 490 8 c 1
 467 -4 440 -18 418 -18 c 0
 404 -18 391 -13 382 0 c 1
 385 69 446 122 466 200 c 9
 485 247 495 273 514 320 c 17
 537 384 554 400 574 476 c 1
 564 486 554 490 544 482 c 1
 510 439 472 395 430 338 c 9
 273 144 l 17
 225 102 214 87 164 12 c 1
 139 -1 114 -12 92 -12 c 0
 73 -12 56 -4 42 16 c 1x28
EndSplineSet
Validated: 1
EndChar

StartChar: X
Encoding: 88 88 355
Width: 775
VWidth: 1080
Flags: HW
VStem: 506 280<23 31>
LayerCount: 2
Back
Fore
SplineSet
22 -26 m 1
 21 -5 9 14 9 31 c 0
 9 38 11 45 16 52 c 0
 25 64 37 67 49 67 c 0
 63 67 78 63 94 63 c 0
 98 63 102 63 106 64 c 1
 153 124 208 167 282 228 c 1
 332 285 383 317 428 353 c 1
 435 362 437 369 437 379 c 0
 437 389 435 401 434 418 c 1
 401 483 386 515 342 688 c 1
 319 688 297 676 278 676 c 0
 268 676 260 679 252 688 c 0
 248 692 247 696 247 700 c 0
 247 711 257 723 258 737 c 1
 274 749 292 753 310 753 c 0
 341 753 374 743 411 743 c 0
 412 743 413 743 414 743 c 1
 418 743 423 743 427 743 c 0
 457 743 487 749 513 749 c 0
 533 749 550 745 564 731 c 9
 559 719 562 708 552 700 c 16
 539 690 526 688 513 688 c 0
 502 688 491 689 478 689 c 0
 473 689 468 689 462 688 c 1
 485 624 488 501 528 472 c 1
 605 537 531 483 664 604 c 1
 750 702 l 1
 728 702 706 690 689 690 c 0
 680 690 672 693 666 702 c 0
 664 704 664 707 664 709 c 0
 664 718 674 726 678 737 c 1
 688 743 700 745 713 745 c 0
 738 745 769 739 805 739 c 0
 807 739 808 739 810 739 c 1
 830 735 849 734 867 734 c 0
 886 734 905 735 922 735 c 0
 933 735 944 735 954 733 c 1
 954 722 959 712 959 703 c 0
 959 698 958 694 954 690 c 0
 947 683 939 680 931 680 c 0
 914 680 896 690 876 690 c 1
 871 694 867 696 861 696 c 0
 817 696 749 574 684 516 c 9
 635 472 588 461 558 402 c 16
 552 390 550 380 550 369 c 0
 550 361 551 352 552 342 c 8
 561 250 589 202 619 114 c 24
 629 85 623 59 648 42 c 16
 650 41 653 40 655 40 c 0
 663 40 671 46 677 46 c 0
 680 46 682 45 684 42 c 0
 687 38 688 33 688 29 c 0
 688 18 681 8 672 0 c 0
 654 -16 635 -19 615 -19 c 0
 598 -19 580 -17 561 -17 c 0
 553 -17 546 -17 538 -18 c 1
 534 -18 530 -18 527 -18 c 0
 506 -18 490 -22 462 -22 c 0
 449 -22 433 -21 412 -18 c 9
 406 36 l 17
 420 42 434 44 449 44 c 0
 491 44 532 26 548 26 c 0
 549 26 550 26 551 26 c 9
 557 62 l 17
 502 172 514 181 472 242 c 1
 460 248 448 252 435 252 c 0
 428 252 421 251 414 248 c 1
 371 196 291 132 230 60 c 9
 257 51 286 61 300 36 c 16
 302 32 303 28 303 24 c 0
 303 10 292 -2 288 -18 c 1
 277 -21 267 -22 256 -22 c 0
 234 -22 211 -18 184 -18 c 0
 181 -18 178 -18 174 -18 c 1
 164 -17 153 -17 144 -17 c 0
 98 -17 59 -24 22 -26 c 1
EndSplineSet
Validated: 1
EndChar

StartChar: Y
Encoding: 89 89 356
Width: 782
VWidth: 1080
Flags: HW
LayerCount: 2
Back
Fore
SplineSet
138 520 m 8
 116 525 116 547 102 564 c 17
 183 685 173 644 198 678 c 9
 240 726 l 17
 246 729 280 738 319 738 c 0
 353 738 393 731 420 706 c 1
 422 689 422 672 422 657 c 0
 422 565 396 507 396 442 c 9
 420 430 l 17
 486 472 477 566 550 622 c 9
 670 732 l 17
 709 744 745 754 783 754 c 0
 805 754 828 751 852 742 c 9
 862 634 l 17
 845 608 826 592 798 592 c 0
 785 592 769 596 750 604 c 1
 728 617 718 640 694 640 c 0
 693 640 692 640 690 640 c 8
 617 632 598 569 552 512 c 24
 490 435 474 379 424 294 c 17
 383 205 345 174 316 54 c 9
 339 47 363 57 376 36 c 16
 379 32 380 28 380 25 c 0
 380 14 371 3 370 -10 c 1
 295 -21 282 -21 226 -22 c 16
 220 -22 214 -22 209 -22 c 0
 164 -22 136 -19 82 -16 c 1
 78 -7 74 3 74 14 c 0
 74 19 74 24 76 30 c 1
 86 35 96 36 105 36 c 0
 117 36 128 34 139 34 c 0
 151 34 162 37 172 48 c 1
 225 142 238 228 270 346 c 1
 287 433 296 500 300 574 c 1
 278 579 263 592 243 592 c 0
 239 592 235 591 230 590 c 8
 206 583 206 559 186 544 c 16
 171 533 160 519 144 519 c 0
 142 519 140 520 138 520 c 8
EndSplineSet
Validated: 1
EndChar

StartChar: Z
Encoding: 90 90 357
Width: 674
VWidth: 1080
Flags: HW
HStem: 26 59<265 572> 691 34<105 532>
LayerCount: 2
Back
Fore
SplineSet
638 216 m 9
 668 210 l 17
 658 142 645 107 620 42 c 9
 598 -12 l 17
 564 -24 531 -26 496 -26 c 0
 463 -26 429 -24 391 -24 c 0
 373 -24 355 -24 336 -26 c 1
 309 -23 289 -22 270 -22 c 0
 220 -22 176 -29 46 -30 c 9
 46 68 l 17
 133 167 189 217 254 324 c 1
 345 435 385 488 498 604 c 1
 502 622 512 636 512 651 c 0
 512 655 512 660 510 664 c 8
 505 678 492 679 480 688 c 17
 456 685 436 684 418 684 c 0
 403 684 390 685 376 685 c 0
 361 685 346 684 330 682 c 1
 301 681 276 684 240 604 c 1
 221 578 242 596 210 520 c 1
 194 509 175 501 157 501 c 0
 143 501 129 507 120 520 c 1
 128 587 145 594 162 638 c 9
 179 679 191 700 210 740 c 17
 241 752 271 755 301 755 c 0
 328 755 356 752 387 752 c 0
 400 752 414 753 428 754 c 1
 442 753 456 752 469 752 c 0
 521 752 568 761 617 761 c 0
 641 761 666 759 692 752 c 1
 695 733 696 719 696 707 c 0
 696 685 691 670 680 646 c 1
 551 519 521 465 430 342 c 9
 369 251 308 212 274 108 c 16
 272 100 271 93 271 87 c 0
 271 78 272 70 272 60 c 0
 272 58 272 56 272 54 c 1
 316 45 358 42 402 42 c 0
 429 42 456 43 484 44 c 1
 566 79 554 170 638 216 c 9
EndSplineSet
Validated: 1
EndChar

StartChar: backslash
Encoding: 92 92 359
Width: 967
VWidth: 1080
Flags: HW
LayerCount: 2
Fore
SplineSet
479 472 m 0
 623 347 667 299 850 117 c 0
 856 111 862 109 868 109 c 0
 882 109 897 119 914 119 c 0
 918 119 922 119 927 117 c 8
 950 108 971 98 976 75 c 16
 977 72 977 70 977 68 c 0
 977 48 955 41 943 23 c 1
 911 18 887 17 867 17 c 0
 827 17 798 23 729 23 c 1
 710 45 676 55 676 78 c 0
 676 80 676 81 677 83 c 0
 678 89 682 90 688 90 c 0
 695 90 703 88 710 88 c 0
 716 88 721 90 722 95 c 0
 723 97 723 98 723 100 c 0
 723 112 707 123 702 134 c 1
 587 268 533 312 449 403 c 0
 329 525 350 527 192 669 c 1
 189 671 185 671 182 671 c 0
 171 671 162 665 153 665 c 0
 149 665 145 666 140 669 c 0
 128 678 120 693 120 706 c 0
 120 711 121 716 123 720 c 1
 178 740 189 745 204 745 c 0
 219 745 238 740 308 740 c 1
 321 734 331 722 331 710 c 0
 331 709 331 707 331 706 c 8
 327 685 284 702 283 681 c 1
 386 587 367 575 479 472 c 0
EndSplineSet
Validated: 1
EndChar

StartChar: bracketright
Encoding: 93 93 360
Width: 314
Flags: HW
LayerCount: 2
Fore
SplineSet
278 300 m 0
 264 263 223 156 171 12 c 1
 142 2 138 -2 137 -2 c 0
 135 -2 136 4 95 8 c 0
 94 8 92 8 91 8 c 0
 71 8 50 -5 33 -5 c 0
 28 -5 23 -4 19 0 c 8
 11 7 11 19 20 30 c 24
 41 54 69 36 93 57 c 24
 157 113 143 156 182 237 c 8
 205 285 214 312 234 360 c 24
 260 423 271 459 301 522 c 16
 327 579 338 612 338 635 c 0
 338 661 325 675 303 699 c 0
 300 702 296 703 291 703 c 0
 281 703 269 699 260 699 c 0
 255 699 250 700 248 705 c 8
 245 710 248 718 255 723 c 16
 270 735 284 738 298 738 c 0
 314 738 330 734 348 732 c 0
 350 732 351 732 353 732 c 0
 371 732 401 738 419 738 c 0
 430 738 437 736 437 730 c 0
 437 726 432 719 422 708 c 1
 369 574 339 468 278 300 c 0
EndSplineSet
Validated: 1
EndChar

StartChar: asciicircum
Encoding: 94 94 361
Width: 346
VWidth: 1080
Flags: HW
LayerCount: 2
Fore
SplineSet
216 455 m 0
 215 447 193 444 170 444 c 0
 138 444 102 449 102 457 c 0
 102 458 l 0
 129 530 147 567 208 685 c 1
 235 699 257 710 279 710 c 0
 290 710 302 707 314 700 c 1
 358 635 357 607 379 546 c 16
 390 513 400 482 408 452 c 0
 408 451 l 0
 408 441 379 436 351 436 c 0
 329 436 308 440 304 446 c 0
 289 469 285 546 244 568 c 1
 228 522 221 486 216 455 c 0
EndSplineSet
Validated: 1
EndChar

StartChar: grave
Encoding: 96 96 363
Width: 312
VWidth: 1080
Flags: HW
LayerCount: 2
Back
Fore
SplineSet
368 508 m 16
 302 550 289 573 238 614 c 24
 199 646 163 651 139 695 c 16
 133 705 127 717 127 727 c 0
 127 732 129 738 133 742 c 0
 143 752 154 756 166 756 c 0
 186 756 208 746 229 736 c 8
 272 716 281 684 314 650 c 17
 339 598 382 568 382 505 c 9
 377 506 373 505 368 508 c 16
EndSplineSet
Validated: 1
EndChar

StartChar: a
Encoding: 97 97 364
Width: 457
VWidth: 1000
Flags: W
HStem: 6 87<148.861 217.187> 394 82<298.863 363.766>
VStem: 35 110<80 187.112> 298 159<27.4318 89.7195>
LayerCount: 2
Back
Fore
SplineSet
160 98 m 0
 167 94 174 93 181 93 c 0
 210 93 234 123 262 146 c 8
 315 189 336 225 366 286 c 16
 378 309 389 326 389 348 c 0
 389 353 389 357 388 362 c 8
 385 377 379 388 364 392 c 16
 359 393 354 394 349 394 c 0
 321 394 302 374 276 354 c 8
 234 321 220 291 192 246 c 24
 172 214 153 196 148 158 c 16
 147 148 145 137 145 128 c 0
 145 115 148 104 160 98 c 0
196 16 m 16
 180 9 166 6 151 6 c 0
 141 6 130 8 118 10 c 8
 88 16 64 18 48 44 c 16
 38 59 35 73 35 87 c 0
 35 106 41 126 46 148 c 8
 64 223 91 262 138 324 c 24
 180 379 208 411 268 446 c 16
 299 464 321 476 354 476 c 0
 357 476 359 476 362 476 c 0
 396 474 409 438 441 438 c 0
 443 438 444 438 446 438 c 0
 468 441 471 474 491 474 c 0
 492 474 493 474 494 474 c 8
 515 472 527 453 530 432 c 17
 519 350 470 316 440 240 c 1
 424 203 398 184 398 146 c 0
 398 143 398 141 398 138 c 8
 400 121 409 113 422 102 c 24
 432 94 446 101 452 90 c 16
 455 84 457 79 457 74 c 0
 457 63 452 53 446 42 c 8
 437 26 427 19 410 12 c 16
 390 4 372 -3 355 -3 c 0
 343 -3 332 0 320 8 c 8
 299 22 300 43 298 68 c 16
 298 70 298 72 298 74 c 0
 298 91 305 102 308 120 c 0
 308 121 308 123 308 124 c 0
 308 126 308 127 307 127 c 0
 300 127 272 82 254 66 c 8
 232 46 224 27 196 16 c 16
EndSplineSet
Validated: 1
EndChar

StartChar: b
Encoding: 98 98 365
Width: 411
VWidth: 1000
Flags: HW
LayerCount: 2
Back
Fore
SplineSet
172 44 m 8
 238 47 261 101 305 151 c 17
 323 180 331 199 356 236 c 1
 363 258 372 279 372 298 c 0
 372 308 370 318 362 327 c 0
 354 336 345 340 334 340 c 0
 325 340 315 337 304 334 c 8
 256 321 236 295 201 260 c 24
 172 230 152 213 139 173 c 16
 132 151 126 132 126 113 c 0
 126 97 130 82 139 65 c 0
 146 53 156 44 170 44 c 0
 170 44 171 44 172 44 c 8
61 6 m 8
 38 21 41 44 27 69 c 17
 59 193 75 199 90 263 c 9
 192 563 l 17
 208 611 214 636 255 683 c 1
 251 684 247 684 244 684 c 0
 232 684 221 682 211 682 c 0
 200 682 190 684 181 694 c 0
 176 700 174 707 174 714 c 0
 174 721 176 728 181 734 c 0
 193 748 207 752 223 752 c 0
 236 752 250 749 265 749 c 0
 271 749 277 750 284 751 c 1
 289 750 294 750 298 750 c 0
 307 750 315 751 325 751 c 0
 338 751 355 749 381 743 c 1
 391 734 398 724 398 713 c 0
 398 703 391 691 373 677 c 9
 360 671 346 675 339 662 c 16
 295 578 284 532 249 449 c 17
 242 418 243 434 204 346 c 9
 242 342 l 17
 286 371 286 386 329 392 c 1
 336 393 351 396 367 396 c 0
 386 396 409 392 426 375 c 1
 439 360 444 345 444 329 c 0
 444 305 433 279 428 249 c 1
 394 153 361 133 314 75 c 9
 272 46 255 15 206 0 c 16
 178 -8 153 -14 129 -14 c 0
 106 -14 84 -9 61 6 c 8
EndSplineSet
Validated: 1
EndChar

StartChar: c
Encoding: 99 99 366
Width: 334
VWidth: 1000
Flags: W
HStem: 3 100<151.298 238.256> 385 95<219.879 305.707>
VStem: 41 103<110.875 256.76>
LayerCount: 2
Back
Fore
SplineSet
342 348 m 0
 340 347 339 347 337 347 c 0
 320 347 315 375 296 380 c 0
 285 383 275 385 266 385 c 0
 254 385 242 382 230 374 c 1
 182 331 177 299 158 248 c 1
 150 224 142 207 142 186 c 0
 142 180 142 173 144 166 c 1
 144 165 144 163 144 162 c 0
 144 125 157 108 188 104 c 1
 190 103 192 103 194 103 c 0
 209 103 218 121 236 122 c 0
 245 123 255 124 263 124 c 0
 275 124 285 122 290 110 c 0
 293 104 294 99 294 93 c 0
 294 70 271 49 248 32 c 0
 221 12 196 3 167 3 c 0
 155 3 142 5 128 8 c 8
 91 17 82 45 53 69 c 17
 45 99 41 124 41 149 c 0
 41 193 53 231 70 275 c 9
 133 349 145 421 232 465 c 16
 252 475 270 480 288 480 c 0
 303 480 317 477 334 472 c 8
 357 465 378 459 384 436 c 16
 386 429 387 421 387 414 c 0
 387 384 372 356 342 348 c 0
EndSplineSet
Validated: 1
EndChar

StartChar: d
Encoding: 100 100 367
Width: 444
VWidth: 1000
Flags: HW
LayerCount: 2
Fore
SplineSet
122 84 m 0
 130 79 137 77 145 77 c 0
 178 77 207 125 236 158 c 8
 268 195 283 223 290 272 c 16
 291 279 292 285 292 291 c 0
 292 299 290 306 284 312 c 0
 271 325 254 332 238 332 c 0
 227 332 216 329 206 324 c 1
 177 276 156 248 132 196 c 24
 117 164 108 132 108 109 c 0
 108 99 111 91 122 84 c 0
86 5 m 8
 52 15 30 34 20 68 c 16
 17 77 16 84 16 92 c 0
 16 119 31 141 44 172 c 8
 69 234 98 262 132 320 c 17
 181 379 213 419 274 458 c 1
 291 463 306 465 319 465 c 0
 354 465 372 449 386 428 c 1
 401 469 404 495 417 538 c 24
 429 577 410 556 452 638 c 1
 446 639 440 640 434 640 c 0
 424 640 414 639 406 639 c 0
 391 639 379 642 372 656 c 0
 370 660 369 664 369 667 c 0
 369 687 394 700 404 722 c 1
 416 739 430 750 489 750 c 0
 508 750 531 748 560 746 c 1
 574 734 579 720 579 706 c 0
 579 677 560 645 550 610 c 1
 494 500 455 436 424 318 c 1
 408 268 383 246 364 192 c 1
 396 150 441 146 444 102 c 1
 408 63 372 24 328 0 c 9
 256 18 l 17
 253 24 252 31 252 37 c 0
 252 58 264 80 264 104 c 0
 264 109 263 115 262 120 c 1
 261 127 259 131 257 131 c 0
 245 131 219 44 184 23 c 0
 161 9 140 0 117 0 c 0
 107 0 97 2 86 5 c 8
EndSplineSet
Validated: 1
EndChar

StartChar: e
Encoding: 101 101 368
Width: 310
VWidth: 1000
Flags: W
HStem: 13 73<138.864 190.715> 409 73<230.842 314>
VStem: 39 88<93.5693 202.05> 302 65<339.229 428>
LayerCount: 2
Back
Fore
SplineSet
214 284 m 8
 246 286 269 299 286 326 c 16
 295 341 302 356 302 371 c 0
 302 380 299 389 292 398 c 0
 286 406 277 409 268 409 c 0
 261 409 252 407 244 404 c 8
 219 395 208 379 196 356 c 17
 192 335 191 317 184 296 c 1
 189 287 198 284 208 284 c 0
 210 284 212 284 214 284 c 8
274 150 m 8
 285 148 287 138 296 130 c 17
 296 129 296 128 296 127 c 0
 296 98 236 58 186 32 c 1
 159 27 140 13 117 13 c 0
 111 13 105 14 98 16 c 8
 68 26 53 46 44 76 c 16
 40 89 39 101 39 112 c 0
 39 144 52 171 63 208 c 8
 82 273 95 311 134 366 c 24
 166 410 185 441 236 462 c 16
 260 472 284 482 306 482 c 0
 322 482 336 477 349 464 c 0
 363 451 367 436 367 420 c 0
 367 398 358 374 349 350 c 8
 334 309 310 293 276 266 c 24
 228 227 169 241 138 188 c 16
 131 175 127 163 127 151 c 0
 127 137 131 124 138 110 c 8
 144 96 153 87 168 86 c 16
 169 86 169 86 169 86 c 0
 200 86 208 116 236 132 c 0
 249 139 257 150 271 150 c 0
 272 150 273 150 274 150 c 8
EndSplineSet
Validated: 1
EndChar

StartChar: f
Encoding: 102 102 369
Width: 304
VWidth: 1000
Flags: W
HStem: -254 117<-232.262 -179.515> -254 74<-161.056 -82.375> 406 75<294.142 363.391> 698 55<355.668 442.43>
LayerCount: 2
Back
Fore
SplineSet
-247 -221 m 1x70
 -247 -219 -247 -218 -247 -216 c 0
 -247 -201 -251 -187 -251 -175 c 0
 -251 -165 -249 -157 -241 -149 c 0
 -232 -140 -222 -137 -210 -137 c 0xb0
 -200 -137 -190 -139 -179 -143 c 8
 -159 -150 -159 -178 -138 -180 c 16
 -135 -180 -133 -180 -131 -180 c 0
 -90 -180 -74 -142 -36 -120 c 1
 18 -25 34 67 66 150 c 1
 104 240 127 283 164 380 c 9
 157 389 156 399 146 404 c 16
 140 407 134 408 128 408 c 0
 117 408 106 404 92 404 c 1
 92 405 92 405 92 406 c 0
 92 445 119 468 134 482 c 9
 194 488 l 17
 216 535 213 580 242 626 c 9
 275 666 282 701 326 728 c 16
 359 749 386 753 423 753 c 0
 427 753 431 753 436 753 c 0
 439 753 443 753 446 753 c 0
 453 753 459 753 466 753 c 0
 494 753 519 751 538 726 c 0
 544 718 547 709 547 700 c 0
 547 690 544 680 538 671 c 0
 527 652 511 641 489 641 c 0
 488 641 486 641 484 641 c 8
 466 643 462 659 448 671 c 24
 436 680 432 690 418 695 c 16
 411 698 404 699 398 699 c 0
 391 699 384 698 375 698 c 0
 374 698 372 698 370 698 c 1
 343 662 339 636 322 596 c 9
 310 561 304 544 292 506 c 8
 290 499 293 494 294 486 c 17
 297 483 302 481 307 481 c 0
 320 481 338 488 355 488 c 0
 367 488 379 484 388 470 c 9
 379 449 382 430 364 416 c 16
 351 406 339 404 325 404 c 0
 315 404 305 406 294 406 c 0
 287 406 281 405 274 404 c 8
 262 402 256 400 244 398 c 17
 220 315 196 239 154 140 c 9
 133 89 123 58 100 8 c 24
 68 -61 56 -105 10 -166 c 24
 -18 -203 -44 -216 -78 -248 c 17
 -96 -252 -117 -254 -138 -254 c 0
 -179 -254 -221 -245 -247 -221 c 1x70
EndSplineSet
Validated: 1
EndChar

StartChar: g
Encoding: 103 103 370
Width: 360
VWidth: 1000
Flags: W
HStem: -261 57<42.2514 222.785> 304 93<357.281 404.624> 339 29<320.464 326.578> 340 72<151.61 239.328>
VStem: -91 89<-169.64 -101.79> 41 69<157.422 259.827> 69 58<-9.28461 35.3364> 229 87<-197.941 -100.902> 249 59<207.401 313.858>
LayerCount: 2
Fore
SplineSet
163 136 m 8x9c80
 201 145 206 179 233 206 c 17
 239 236 249 259 249 282 c 0
 249 294 246 307 239 320 c 8
 232 333 221 335 207 338 c 16
 201 339 195 340 190 340 c 0
 182 340 175 338 167 332 c 8
 130 304 127 269 118 224 c 16
 114 208 110 193 110 179 c 0
 110 169 112 159 119 150 c 0
 127 139 139 135 151 135 c 0
 155 135 159 135 163 136 c 8x9c80
1 -120 m 16
 -1 -124 -2 -129 -2 -133 c 0
 -2 -141 2 -149 7 -156 c 8
 26 -181 49 -184 79 -192 c 17
 104 -196 123 -204 156 -204 c 0
 171 -204 188 -203 211 -198 c 1
 224 -187 229 -172 229 -157 c 0x89
 229 -143 225 -128 217 -114 c 8
 203 -88 179 -86 151 -78 c 16
 132 -72 118 -68 101 -68 c 0
 93 -68 84 -69 73 -72 c 8
 40 -81 14 -89 1 -120 c 16
-81 -190 m 16
 -88 -178 -91 -166 -91 -154 c 0
 -91 -142 -88 -130 -81 -118 c 8
 -61 -81 -27 -81 9 -58 c 24
 24 -48 36 -47 49 -34 c 24
 60 -23 69 -15 69 0 c 24xab
 68 34 25 38 21 74 c 1
 38 81 49 82 58 82 c 0
 63 82 67 81 70 81 c 0
 77 81 81 83 87 92 c 0
 90 96 91 100 91 103 c 0
 91 111 86 119 81 128 c 8
 72 146 51 145 45 164 c 16
 42 173 41 181 41 188 c 0
 41 212 52 233 63 260 c 8
 82 311 90 349 135 380 c 16
 164 400 192 412 222 412 c 0x9c
 237 412 251 410 267 404 c 8
 284 398 279 372 297 368 c 16
 299 368 300 368 301 368 c 0xac
 318 368 326 388 345 392 c 0
 357 394 368 397 378 397 c 0
 388 397 397 394 405 386 c 0
 415 376 420 364 420 351 c 0
 420 342 417 333 411 324 c 0
 403 311 389 304 375 304 c 0xcc
 369 304 363 305 357 308 c 8
 346 313 357 334 345 338 c 16
 343 339 342 339 340 339 c 0
 328 339 321 322 309 314 c 1
 308 311 308 306 308 300 c 0
 308 296 308 293 308 289 c 0
 308 261 307 216 285 170 c 1
 266 145 259 125 219 112 c 9
 202 103 187 109 171 98 c 24
 152 85 144 72 135 50 c 16
 131 41 127 33 127 25 c 0xaa80
 127 21 127 18 129 14 c 8
 161 -50 249 -12 291 -70 c 16
 307 -93 316 -115 316 -139 c 0
 316 -151 313 -164 309 -178 c 8
 301 -203 284 -213 261 -226 c 24
 221 -249 193 -251 147 -256 c 16
 121 -259 100 -261 80 -261 c 0
 55 -261 32 -258 3 -248 c 8
 -35 -235 -63 -225 -81 -190 c 16
EndSplineSet
Validated: 1
EndChar

StartChar: h
Encoding: 104 104 371
Width: 418
VWidth: 1000
Flags: W
HStem: -2 128<170.479 235.683> -2 89<231.317 274.272> 342 79<282.71 363.569>
VStem: 373 80<218.244 354>
LayerCount: 2
Fore
SplineSet
74 16 m 9x70
 13 39 l 17
 28 108 56 131 73 187 c 9
 123 314 148 386 200 511 c 24
 214 544 230 560 237 595 c 16
 240 609 244 622 244 634 c 0
 244 641 243 649 237 657 c 8
 227 671 202 657 195 673 c 16
 193 678 192 683 192 687 c 0
 192 704 204 718 218 731 c 8
 236 748 254 747 279 748 c 16
 290 748 301 749 311 749 c 0
 329 749 344 746 357 731 c 0
 367 721 371 709 371 696 c 0
 371 687 369 677 363 668 c 8
 355 656 339 666 329 657 c 17
 297 607 291 551 257 484 c 9
 233 425 223 420 197 333 c 9
 214 347 224 355 241 370 c 24
 249 377 251 384 260 389 c 16
 297 405 333 421 367 421 c 0
 388 421 408 415 428 400 c 0
 447 385 453 365 453 343 c 0
 453 328 450 311 448 294 c 8
 442 226 419 189 381 132 c 24
 350 84 328 58 281 25 c 16
 260 10 244 -2 220 -2 c 0
 218 -2 216 -2 214 -2 c 8
 191 -1 176 7 164 25 c 16
 157 35 154 45 154 55 c 0
 154 62 156 68 158 76 c 8
 166 101 177 122 203 126 c 16
 204 126 205 126 206 126 c 0xb0
 230 126 237 87 261 87 c 0
 262 87 263 87 264 87 c 8
 304 93 309 132 331 165 c 24
 347 189 355 203 363 230 c 16
 368 249 373 265 373 281 c 0
 373 290 372 299 368 309 c 8
 362 326 353 340 335 342 c 16
 332 342 330 342 327 342 c 0
 283 342 263 302 229 269 c 8
 195 237 186 210 158 173 c 17
 117 114 112 41 74 16 c 9x70
EndSplineSet
Validated: 1
EndChar

StartChar: k
Encoding: 107 107 374
Width: 399
VWidth: 1000
Flags: W
HStem: 5 63<344.141 379.389> 432 20G<388.5 404.5> 691 54<200.284 254.531 255.844 279.156 280.141 290> 697 56<204.865 289.859>
VStem: 237 71<103.992 195.021> 355 95<327.719 402>
LayerCount: 2
Back
Fore
SplineSet
220 276 m 1xcc
 232 274 241 271 252 271 c 0
 255 271 258 271 262 272 c 8
 290 277 308 285 328 306 c 16
 341 319 355 334 355 349 c 0
 355 353 354 358 352 362 c 0
 347 371 339 373 330 373 c 0
 321 373 311 371 301 371 c 0
 298 371 295 371 292 372 c 1
 258 352 220 321 220 282 c 0
 220 280 220 278 220 276 c 1xcc
103 0 m 17
 95 -3 87 -4 79 -4 c 0
 53 -4 34 12 22 42 c 1
 44 138 105 171 105 218 c 0
 105 221 104 223 104 226 c 9
 206 486 l 17
 220 556 252 615 290 696 c 1
 287 696 283 697 280 697 c 0xdc
 262 697 244 691 229 691 c 0
 216 691 206 695 200 708 c 0
 199 711 198 713 198 716 c 0
 198 728 212 738 224 745 c 0xec
 235 751 245 753 255 753 c 0xdc
 273 753 291 746 314 745 c 8
 340 744 354 741 380 739 c 17
 388 722 393 706 393 691 c 0xec
 393 677 388 666 380 658 c 1
 332 561 311 541 284 490 c 1
 283 471 262 430 262 416 c 0
 262 414 263 412 265 412 c 0
 267 412 272 415 278 420 c 8
 297 436 313 438 338 442 c 16
 359 445 379 452 398 452 c 0
 411 452 423 448 434 436 c 0
 445 423 450 409 450 395 c 0
 450 373 440 350 428 328 c 8
 410 294 378 292 348 268 c 24
 332 255 324 247 308 234 c 17
 308 155 311 187 320 100 c 9
 329 88 331 77 344 70 c 16
 347 68 351 68 354 68 c 0
 361 68 368 70 374 70 c 0
 378 70 383 68 386 64 c 0
 390 59 392 53 392 47 c 0
 392 38 387 29 380 22 c 0
 367 10 352 5 337 5 c 0
 319 5 299 11 278 16 c 8
 260 20 252 31 236 40 c 17
 234 58 234 73 234 85 c 0
 234 113 237 130 237 148 c 0
 237 161 235 175 230 196 c 9
 176 202 l 17
 157 146 160 107 131 58 c 9
 103 0 l 17
EndSplineSet
Validated: 1
EndChar

StartChar: l
Encoding: 108 108 375
Width: 267
VWidth: 1000
Flags: HW
VStem: 105.217 109.25<98.9 694.55>
LayerCount: 2
Fore
SplineSet
226 149 m 16
 233 150 239 151 245 151 c 0
 254 151 262 148 267 140 c 0
 269 136 270 133 270 130 c 0
 270 118 259 108 255 94 c 1
 217 72 189 63 152 37 c 9
 117 24 99 4 61 3 c 16
 60 3 59 3 58 3 c 0
 44 3 36 10 21 14 c 1
 21 17 21 20 21 22 c 0
 21 60 33 92 44 134 c 9
 97 254 125 322 179 442 c 24
 212 516 250 552 267 632 c 24
 269 642 273 650 267 658 c 24
 256 676 228 663 219 681 c 16
 216 687 215 694 215 700 c 0
 215 712 220 724 230 733 c 0
 249 749 270 758 292 758 c 0
 308 758 323 754 338 744 c 1
 373 736 383 720 383 699 c 0
 383 682 377 662 373 641 c 1
 329 532 291 470 253 356 c 9
 222 285 202 246 173 174 c 16
 165 155 142 121 142 111 c 0
 142 109 143 108 145 108 c 0
 146 108 148 108 150 109 c 0
 181 123 193 145 226 149 c 16
EndSplineSet
Validated: 1
EndChar

StartChar: m
Encoding: 109 109 376
Width: 699
VWidth: 1000
Flags: HW
VStem: 49 106<119 331> 556 98<137 174.092 137 348> 557 97<123 137>
LayerCount: 2
Back
Fore
SplineSet
108 8 m 1
 107 8 105 8 104 8 c 0
 66 8 44 22 36 50 c 1
 57 118 69 130 94 180 c 9
 122 229 148 252 166 306 c 16
 170 318 176 329 176 340 c 0
 176 344 175 349 172 354 c 8
 166 365 155 365 142 366 c 16
 140 366 138 366 137 366 c 0
 113 366 100 355 76 348 c 1
 75 352 75 356 75 359 c 0
 75 420 177 471 196 488 c 1
 213 500 230 510 246 510 c 0
 261 510 277 502 294 482 c 1
 304 470 307 459 307 448 c 0
 307 431 298 416 292 400 c 1
 293 399 294 398 296 398 c 0
 312 398 354 448 387 474 c 1
 406 488 423 495 441 495 c 0
 458 495 476 488 497 474 c 1
 504 469 506 462 506 455 c 0
 506 439 494 420 494 408 c 0
 494 404 495 400 498 398 c 9
 539 426 557 454 604 470 c 16
 628 478 650 489 671 489 c 0
 683 489 695 485 706 476 c 0
 722 463 727 446 727 429 c 0
 727 412 722 393 718 374 c 8
 704 316 666 296 634 246 c 17
 614 213 606 212 580 158 c 1
 580 157 580 157 580 156 c 0
 580 144 587 139 592 128 c 1
 593 128 593 128 594 128 c 0
 624 128 629 176 676 188 c 1
 690 182 719 185 719 174 c 0
 719 173 719 172 718 170 c 0
 699 130 675 107 640 74 c 24
 615 50 596 41 568 20 c 17
 554 15 536 10 518 10 c 0
 503 10 487 14 472 26 c 1
 466 38 462 50 462 62 c 0
 462 74 466 86 479 98 c 1
 515 174 553 204 581 272 c 1
 595 296 609 314 616 344 c 1
 610 363 595 369 580 369 c 0
 576 369 572 369 568 368 c 1
 496 332 478 247 418 170 c 1
 370 121 346 52 296 5 c 1
 288 1 279 -1 271 -1 c 0
 218 23 l 1
 270 146 299 151 347 236 c 16
 367 272 401 291 401 328 c 0
 401 331 401 334 400 338 c 8
 397 358 384 373 364 374 c 16
 363 374 362 374 361 374 c 0
 302 374 281 319 244 272 c 8
 206 225 200 188 172 134 c 17
 141 93 147 46 108 8 c 1
EndSplineSet
Validated: 1
EndChar

StartChar: n
Encoding: 110 110 377
Width: 474
VWidth: 1000
Flags: HW
VStem: 51 106<119 331>
LayerCount: 2
Back
Fore
SplineSet
141 1 m 1
 132 -0 123 -1 115 -1 c 0
 80 -1 51 14 39 69 c 1
 60 153 93 160 112 206 c 9
 129 243 153 261 155 302 c 16
 155 306 156 310 156 313 c 0
 156 324 153 334 143 338 c 0
 140 339 138 340 135 340 c 0
 114 340 100 300 78 300 c 0
 76 300 73 301 70 302 c 0
 60 306 60 315 60 325 c 0
 60 326 60 327 60 328 c 0
 60 333 60 339 58 344 c 1
 86 394 129 415 166 452 c 1
 195 468 217 485 240 485 c 0
 249 485 258 482 268 476 c 9
 274 456 283 445 284 424 c 16
 284 423 284 421 284 420 c 0
 284 393 274 378 268 350 c 1
 282 378 315 401 364 445 c 1
 388 451 405 470 424 470 c 0
 429 470 434 469 440 466 c 0
 473 447 482 415 482 379 c 0
 482 362 480 344 478 326 c 8
 473 274 433 256 418 206 c 16
 415 194 405 172 405 162 c 0
 405 159 406 157 408 157 c 0
 409 157 410 157 412 158 c 0
 428 165 436 173 446 173 c 0
 449 173 453 172 457 170 c 0
 474 162 482 146 482 128 c 0
 482 124 482 120 481 116 c 8
 474 83 445 77 418 56 c 24
 395 38 380 32 356 16 c 17
 334 16 314 11 291 11 c 0
 282 11 272 12 262 14 c 1
 254 27 244 36 244 74 c 1
 297 191 330 162 344 200 c 9
 351 240 355 262 363 302 c 16
 367 322 377 334 377 353 c 0
 377 356 377 359 376 362 c 0
 374 370 371 374 367 374 c 0
 348 374 309 314 286 284 c 8
 232 214 225 161 186 82 c 17
 157 49 170 8 141 1 c 1
EndSplineSet
Validated: 1
EndChar

StartChar: o
Encoding: 111 111 378
Width: 328
VWidth: 1000
Flags: W
HStem: 7 66<126.417 199.79> 367 79<209.898 297.265>
VStem: 47 71<80.3772 233.938> 303 59<232.83 355.671>
LayerCount: 2
Back
Fore
SplineSet
132 80 m 0
 138 75 145 73 151 73 c 0
 163 73 175 79 186 86 c 8
 222 106 229 134 249 170 c 24
 276 219 292 249 299 304 c 16
 301 314 303 324 303 333 c 0
 303 341 301 349 294 356 c 0
 286 364 276 367 266 367 c 0
 258 367 249 365 240 362 c 8
 198 346 184 317 162 278 c 24
 134 229 123 196 120 140 c 16
 120 130 118 120 118 112 c 0
 118 99 121 88 132 80 c 0
72 46 m 0
 51 67 47 90 47 117 c 0
 47 127 48 137 48 148 c 8
 50 203 63 235 88 284 c 24
 122 349 137 401 204 430 c 16
 227 440 250 446 271 446 c 0
 296 446 320 437 342 418 c 0
 358 404 362 387 362 368 c 0
 362 357 361 345 360 332 c 8
 356 241 336 188 290 110 c 24
 264 66 249 28 200 14 c 16
 185 10 171 7 158 7 c 0
 126 7 97 20 72 46 c 0
EndSplineSet
Validated: 1
EndChar

StartChar: p
Encoding: 112 112 379
Width: 372
VWidth: 1000
Flags: HW
VStem: 71 97<124 339> 71 129<-178 -4>
LayerCount: 2
Back
Fore
SplineSet
278 408 m 1
 231 368 233 313 212 252 c 1
 202 208 192 196 187 139 c 1
 206 133 218 120 235 120 c 0
 238 120 242 121 246 122 c 8
 288 137 286 179 312 216 c 17
 332 269 341 294 348 366 c 9
 341 385 347 404 330 414 c 16
 326 417 321 418 317 418 c 0
 305 418 293 409 278 408 c 1
-66 -266 m 9
 -90 -194 l 17
 -86 -190 -80 -189 -73 -189 c 0
 -61 -189 -45 -193 -30 -193 c 0
 -19 -193 -9 -191 0 -182 c 1
 46 -62 63 5 104 122 c 9
 134 232 164 347 182 405 c 0
 184 410 184 414 184 416 c 0
 184 418 184 418 183 418 c 0
 175 418 130 353 82 324 c 0
 80 323 78 322 77 322 c 0
 75 322 74 324 74 328 c 0
 74 340 85 368 86 384 c 1
 137 443 184 442 212 498 c 9
 221 533 207 567 236 588 c 16
 244 594 252 596 261 596 c 0
 279 596 298 585 322 584 c 1
 323 577 323 571 323 564 c 0
 323 532 311 509 302 478 c 9
 330 462 356 463 374 436 c 16
 402 393 414 352 414 309 c 0
 414 278 408 245 398 208 c 8
 386 161 363 137 326 106 c 24
 292 78 259 84 224 58 c 24
 184 28 173 -1 140 -38 c 17
 116 -84 89 -128 84 -178 c 1
 89 -179 95 -179 100 -179 c 0
 104 -179 108 -179 112 -179 c 0
 124 -179 134 -181 140 -192 c 0
 143 -197 144 -202 144 -207 c 0
 144 -222 134 -236 122 -246 c 0
 106 -259 91 -262 74 -262 c 0
 63 -262 52 -261 40 -261 c 0
 33 -261 26 -261 18 -262 c 1
 6 -262 4 -261 -2 -261 c 0
 -10 -261 -23 -262 -66 -266 c 9
EndSplineSet
Validated: 1
EndChar

StartChar: q
Encoding: 113 113 380
Width: 420
VWidth: 1000
Flags: HW
VStem: 299 94<131 458>
LayerCount: 2
Back
Fore
SplineSet
194 98 m 17
 261 110 276 179 325 236 c 9
 344 278 368 298 373 344 c 16
 374 358 377 372 377 385 c 0
 377 402 373 416 356 424 c 0
 351 426 347 427 342 427 c 0
 321 427 305 403 284 386 c 8
 251 360 235 340 214 304 c 16
 185 254 154 219 154 167 c 0
 154 159 154 151 156 142 c 8
 160 120 179 115 194 98 c 17
92 -254 m 1
 88 -237 75 -223 75 -208 c 0
 75 -204 77 -199 80 -194 c 0
 85 -187 92 -184 100 -184 c 0
 110 -184 121 -188 131 -188 c 0
 138 -188 144 -186 150 -182 c 8
 188 -152 180 -112 199 -68 c 17
 221 -14 228 8 272 58 c 9
 239 53 221 50 188 46 c 16
 168 44 152 36 136 36 c 0
 129 36 123 37 116 40 c 8
 87 52 74 71 62 100 c 16
 52 124 48 145 48 167 c 0
 48 187 52 208 59 232 c 8
 82 311 120 347 175 408 c 24
 198 433 213 448 244 463 c 24
 281 481 305 487 346 489 c 16
 366 490 384 493 401 493 c 0
 421 493 438 489 455 473 c 0
 460 468 462 461 462 455 c 0
 462 446 459 436 459 427 c 0
 459 420 461 414 466 408 c 0
 471 403 476 402 482 402 c 0
 490 402 497 404 504 404 c 0
 510 404 516 402 520 396 c 0
 524 390 526 383 526 377 c 0
 526 367 522 357 514 349 c 0
 507 342 499 340 490 340 c 0
 480 340 468 342 456 342 c 0
 453 342 451 342 448 342 c 1
 410 296 419 231 388 162 c 9
 372 125 361 104 346 66 c 24
 319 -5 305 -46 285 -120 c 16
 280 -136 270 -148 270 -161 c 0
 270 -165 271 -170 274 -174 c 0
 279 -183 287 -185 297 -185 c 0
 303 -185 310 -184 317 -184 c 0
 326 -184 334 -185 340 -192 c 0
 350 -202 350 -214 350 -227 c 0
 350 -230 l 0
 350 -237 350 -244 352 -252 c 1
 346 -255 338 -256 328 -256 c 0
 305 -256 272 -251 239 -251 c 0
 231 -251 222 -251 214 -252 c 1
 204 -250 195 -249 186 -249 c 0
 159 -249 136 -256 113 -256 c 0
 106 -256 99 -256 92 -254 c 1
EndSplineSet
Validated: 1
EndChar

StartChar: r
Encoding: 114 114 381
Width: 340
VWidth: 1000
Flags: W
HStem: 383 69<126.858 209.5>
LayerCount: 2
Back
Fore
SplineSet
76 20 m 16
 73 20 70 19 67 19 c 0
 50 19 35 27 28 44 c 0
 25 51 24 57 24 63 c 0
 24 90 50 111 65 141 c 8
 95 202 136 225 154 290 c 16
 160 311 170 335 170 353 c 0
 170 365 166 374 154 380 c 0
 149 382 145 383 141 383 c 0
 113 383 99 337 70 314 c 1
 69 319 68 324 68 329 c 0
 68 378 124 416 124 416 c 9
 141 428 148 441 168 446 c 16
 180 449 192 452 203 452 c 0
 216 452 229 448 240 438 c 8
 261 419 250 395 256 368 c 17
 300 386 302 415 328 422 c 9
 348 431 357 443 378 444 c 16
 382 444 387 444 391 444 c 0
 405 444 417 442 424 429 c 0
 428 422 429 415 429 409 c 0
 429 388 414 370 400 349 c 0
 391 336 385 320 370 320 c 0
 369 320 368 320 367 320 c 8
 350 322 358 355 340 356 c 16
 339 356 337 356 336 356 c 0
 274 356 265 282 226 230 c 8
 183 173 174 130 130 74 c 24
 112 51 105 25 76 20 c 16
EndSplineSet
Validated: 1
EndChar

StartChar: s
Encoding: 115 115 382
Width: 277
VWidth: 1080
Flags: W
HStem: 7 103<90.5 169.289> 376 92<211.03 261.641>
VStem: 145 61<298.845 372.968> 185 80<117.466 245.205>
LayerCount: 2
Back
Fore
SplineSet
46 28 m 0xd0
 31 41 25 58 25 76 c 0
 25 93 30 109 40 124 c 0
 49 138 63 144 78 144 c 0
 83 144 88 143 93 142 c 8
 106 139 105 123 117 118 c 16
 127 114 137 110 146 110 c 0
 153 110 160 112 165 118 c 0
 179 134 185 150 185 167 c 0xd0
 185 213 145 264 145 319 c 0xe0
 145 324 145 329 146 334 c 8
 149 360 147 377 159 400 c 24
 171 422 181 436 204 446 c 16
 229 457 254 468 277 468 c 0
 291 468 305 463 318 452 c 0
 333 439 341 420 341 402 c 0
 341 386 336 371 325 358 c 0
 317 349 308 346 297 346 c 0
 287 346 276 349 265 352 c 0xd0
 252 356 251 376 239 376 c 0
 239 376 238 376 237 376 c 0
 216 372 206 352 206 331 c 0xe0
 206 328 207 325 207 322 c 8
 210 299 239 301 248 280 c 16
 259 252 265 227 265 203 c 0
 265 176 258 149 248 118 c 8
 235 79 220 53 183 34 c 16
 155 19 127 7 100 7 c 0
 81 7 62 13 46 28 c 0xd0
EndSplineSet
Validated: 1
EndChar

StartChar: t
Encoding: 116 116 383
Width: 292
VWidth: 1080
Flags: W
HStem: 371 79<299 353.512> 393 74<98.4171 164.195>
VStem: 42 116<86 167.425> 216 106<476.4 565.626>
LayerCount: 2
Back
Fore
SplineSet
246 172 m 0xb0
 262 167 271 153 271 137 c 0
 271 135 270 132 270 130 c 8
 262 76 215 62 168 34 c 16
 147 22 131 8 110 8 c 0
 105 8 101 9 96 10 c 8
 69 16 53 33 46 60 c 16
 43 71 42 81 42 91 c 0
 42 142 76 179 96 234 c 8
 112 277 132 298 144 342 c 16
 148 354 155 365 155 375 c 0
 155 380 154 384 150 388 c 0
 147 392 143 393 139 393 c 0
 127 393 113 383 101 383 c 0
 97 383 93 384 90 388 c 0
 85 395 82 402 82 410 c 0
 82 427 92 444 106 456 c 0
 116 465 127 467 138 467 c 0x70
 149 467 161 465 174 465 c 0
 178 465 182 465 186 466 c 1
 206 491 201 493 216 568 c 1
 236 580 244 600 266 600 c 0
 267 600 267 600 268 600 c 8
 291 599 297 579 316 566 c 17
 320 558 322 551 322 544 c 0
 322 517 299 493 299 460 c 0
 299 457 299 454 300 450 c 1
 301 450 301 450 302 450 c 0
 315 450 327 455 338 455 c 0
 344 455 349 454 354 448 c 0
 360 440 363 432 363 423 c 0
 363 407 355 391 342 380 c 0
 334 373 326 371 318 371 c 0
 305 371 291 376 275 376 c 0
 273 376 272 376 270 376 c 1
 234 319 185 259 162 172 c 1
 162 171 162 171 162 170 c 0
 162 162 158 153 158 146 c 0
 158 142 160 139 164 136 c 0
 168 134 171 133 175 133 c 0
 197 133 214 173 238 173 c 0
 241 173 243 173 246 172 c 0xb0
EndSplineSet
Validated: 1
EndChar

StartChar: u
Encoding: 117 117 384
Width: 438
VWidth: 1080
Flags: W
HStem: 450 20G<189.5 208.5 460.5 490.714>
LayerCount: 2
Back
Fore
SplineSet
88 343 m 0
 79 347 76 355 76 364 c 0
 76 372 79 382 82 391 c 8
 95 429 119 447 156 462 c 16
 170 468 183 470 196 470 c 0
 221 470 245 462 276 462 c 1
 277 457 278 452 278 447 c 0
 278 411 242 379 228 336 c 1
 207 270 182 255 156 162 c 1
 156 160 156 157 156 155 c 0
 156 138 163 132 174 132 c 0
 185 132 198 138 210 144 c 1
 285 193 333 262 366 342 c 1
 392 386 390 442 438 474 c 1
 447 478 456 483 465 483 c 0
 492 462 l 1
 493 456 493 450 493 445 c 0
 493 376 435 329 405 252 c 1
 390 211 364 191 364 149 c 0
 364 147 364 146 364 144 c 8
 365 126 366 105 384 102 c 16
 386 102 388 101 389 101 c 0
 424 101 423 174 459 174 c 0
 460 174 461 174 462 174 c 8
 474 173 473 159 480 150 c 17
 457 90 425 65 384 30 c 1
 354 19 337 -1 309 -1 c 0
 306 -1 303 -0 300 0 c 8
 280 3 265 11 258 30 c 16
 256 35 255 40 255 45 c 0
 255 64 269 79 274 102 c 1
 274 103 274 105 274 106 c 0
 274 118 269 123 262 123 c 0
 255 123 247 120 238 114 c 1
 221 94 196 45 138 24 c 1
 121 20 110 9 96 9 c 0
 92 9 88 10 84 12 c 8
 53 26 44 54 42 88 c 16
 42 92 42 96 42 100 c 0
 42 160 78 194 105 252 c 0
 122 287 156 302 156 340 c 0
 156 341 156 341 156 342 c 8
 155 356 150 369 136 372 c 16
 135 372 134 372 133 372 c 0
 116 372 109 342 94 342 c 0
 92 342 90 342 88 343 c 0
EndSplineSet
Validated: 1
EndChar

StartChar: v
Encoding: 118 118 385
Width: 638
VWidth: 1080
Flags: HW
LayerCount: 2
Fore
SplineSet
204 287 m 16
 209 276 211 266 211 255 c 0
 211 236 203 218 186 205 c 0
 172 195 157 190 142 190 c 0
 124 190 106 197 91 211 c 0
 67 232 59 257 59 285 c 0
 59 302 63 321 67 341 c 8
 77 383 99 403 132 431 c 24
 164 458 191 460 228 479 c 17
 260 482 285 483 311 483 c 0
 334 483 358 482 386 481 c 9
 482 439 l 17
 450 343 421 331 398 265 c 1
 386 231 359 210 359 181 c 0
 359 175 360 169 362 163 c 8
 371 137 397 137 422 127 c 24
 443 119 456 120 478 115 c 17
 536 161 576 243 616 333 c 9
 602 345 587 346 580 363 c 16
 572 381 567 399 567 416 c 0
 567 434 572 450 587 463 c 0
 601 476 619 483 636 483 c 0
 654 483 672 476 687 463 c 0
 698 453 701 441 701 428 c 0
 701 413 697 396 694 379 c 8
 677 271 647 211 586 120 c 24
 556 76 539 43 490 23 c 16
 463 12 438 6 414 6 c 0
 389 6 363 12 334 23 c 8
 302 35 282 50 268 81 c 16
 259 102 255 121 255 140 c 0
 255 163 260 186 268 213 c 8
 283 264 325 278 340 329 c 16
 343 342 347 353 347 363 c 0
 347 371 345 379 340 387 c 8
 323 414 299 419 268 423 c 16
 264 424 261 424 258 424 c 0
 242 424 230 418 214 411 c 8
 188 399 166 395 154 369 c 16
 150 361 148 352 148 344 c 0
 148 332 152 320 160 309 c 8
 171 293 196 304 204 287 c 16
EndSplineSet
Validated: 1
EndChar

StartChar: w
Encoding: 119 119 386
Width: 917
VWidth: 1080
Flags: HW
LayerCount: 2
Back
Fore
SplineSet
228 258 m 16
 234 244 238 230 238 217 c 0
 238 206 235 194 226 184 c 0
 214 169 198 163 180 163 c 0
 172 163 163 165 154 167 c 8
 116 176 93 197 78 233 c 16
 72 248 69 262 69 275 c 0
 69 296 76 317 87 340 c 8
 114 395 145 424 202 447 c 16
 221 455 237 457 254 457 c 0
 279 457 304 451 337 449 c 0
 340 449 342 449 345 449 c 0
 375 449 404 457 429 457 c 0
 449 457 467 452 482 432 c 0
 488 424 490 416 490 409 c 0
 490 389 477 370 468 348 c 8
 449 302 414 290 396 244 c 16
 387 221 382 203 382 181 c 0
 382 173 383 165 384 156 c 8
 387 129 383 101 408 90 c 16
 416 86 424 84 432 84 c 0
 462 84 487 110 516 132 c 8
 545 154 549 178 570 208 c 17
 586 240 589 272 589 302 c 0
 589 319 588 336 588 352 c 0
 588 377 590 402 600 426 c 1
 624 446 643 454 661 454 c 0
 681 454 698 443 715 426 c 0
 728 412 733 398 733 382 c 0
 733 353 717 322 709 288 c 8
 701 255 676 242 674 208 c 16
 673 200 673 192 673 185 c 0
 673 160 678 138 698 120 c 0
 711 108 726 102 741 102 c 0
 750 102 760 104 770 108 c 8
 825 128 829 178 866 222 c 17
 879 249 899 271 899 303 c 0
 899 309 898 316 896 324 c 1
 883 324 872 319 862 319 c 0
 857 319 853 320 848 324 c 0
 836 334 833 346 833 360 c 0
 833 369 834 379 836 390 c 8
 840 414 845 432 866 444 c 16
 880 452 895 457 909 457 c 0
 921 457 933 453 944 444 c 0
 961 429 966 411 966 392 c 0
 966 372 960 349 956 324 c 8
 949 274 929 250 908 204 c 24
 874 132 866 72 812 24 c 0
 790 4 765 -4 740 -4 c 0
 721 -4 701 1 680 8 c 8
 646 19 630 40 614 72 c 16
 610 80 609 87 609 94 c 0
 609 103 611 112 611 122 c 0
 611 131 609 140 602 150 c 1
 562 120 554 88 518 54 c 24
 492 30 480 10 446 0 c 16
 431 -4 418 -7 405 -7 c 0
 387 -7 370 -2 352 8 c 8
 310 32 291 63 281 110 c 16
 279 118 279 125 279 132 c 0
 279 157 289 178 300 206 c 8
 316 249 348 263 360 308 c 16
 363 319 367 329 367 338 c 0
 367 344 365 350 360 356 c 0
 341 376 319 383 295 383 c 0
 270 383 242 374 216 362 c 0
 193 352 174 336 174 312 c 0
 174 310 174 309 174 308 c 8
 176 279 217 284 228 258 c 16
EndSplineSet
Validated: 1
EndChar

StartChar: x
Encoding: 120 120 387
Width: 506
VWidth: 1080
Flags: W
HStem: 4 159<52.6948 119.625> 4 88<379.226 431.353> 341 111<484.249 540.5> 363 75<211.215 273.467>
VStem: 27 102<94.0981 136.382> 318 48<100.672 175.205> 530 59<304.666 338.864>
LayerCount: 2
Back
Fore
SplineSet
120 158 m 0x4e
 128 153 129 145 129 135 c 0
 129 128 128 121 128 114 c 0
 128 104 130 96 140 94 c 0
 143 93 146 93 149 93 c 0
 179 93 188 135 210 162 c 8
 233 191 248 208 259 244 c 16
 267 270 279 294 279 316 c 0
 279 328 276 340 266 352 c 0
 260 360 252 363 243 363 c 0
 237 363 230 361 224 358 c 8
 201 346 215 313 194 298 c 16
 185 291 177 286 167 286 c 0
 161 286 154 288 146 292 c 0
 137 297 134 304 134 312 c 0
 134 328 146 348 156 364 c 8
 181 406 211 424 258 436 c 16
 263 437 268 438 272 438 c 0x5e
 288 438 300 432 319 430 c 1
 359 408 321 334 361 316 c 1
 416 335 377 326 470 424 c 1
 497 432 514 452 538 452 c 0
 543 452 548 452 553 450 c 8
 573 444 586 429 588 408 c 16
 588 404 589 400 589 396 c 0
 589 352 566 282 543 282 c 0
 539 282 534 285 530 292 c 0
 520 307 528 330 510 338 c 16
 505 340 500 341 495 341 c 0
 477 341 461 327 444 314 c 8
 410 290 395 268 378 230 c 16
 371 214 366 201 366 186 c 0
 366 181 367 176 368 170 c 8
 373 136 374 95 408 92 c 16
 409 92 409 92 410 92 c 0x6e
 440 92 427 147 456 158 c 0
 463 161 472 163 479 163 c 0x8e
 492 163 504 158 510 146 c 0
 512 142 513 137 513 133 c 0
 513 115 492 100 480 80 c 8
 462 52 456 28 426 14 c 16
 413 8 401 4 389 4 c 0
 377 4 366 7 354 14 c 8
 335 25 336 43 324 62 c 17
 319 74 318 85 318 96 c 0
 318 107 319 118 319 129 c 0
 319 144 317 159 306 176 c 1
 303 177 301 177 298 177 c 0
 267 177 247 125 219 93 c 1
 167 52 142 29 96 8 c 1
 84 8 73 2 64 2 c 0
 59 2 55 4 51 8 c 0
 34 26 27 47 27 69 c 0
 27 96 38 124 57 146 c 0
 67 158 81 165 96 165 c 0
 104 165 112 163 120 158 c 0x4e
EndSplineSet
Validated: 1
EndChar

StartChar: y
Encoding: 121 121 388
Width: 371
VWidth: 1080
Flags: W
HStem: 426 20G<355.5 368>
VStem: 299 115<372.899 431.851> 348 66<286.306 355.766>
LayerCount: 2
Back
Fore
SplineSet
114 290 m 9xa0
 103 290 95 283 87 290 c 16
 76 300 72 311 72 324 c 0
 72 336 76 349 81 362 c 8
 94 397 116 413 150 428 c 16
 161 433 171 434 181 434 c 0
 189 434 196 434 206 434 c 0
 209 434 212 434 216 434 c 1
 264 385 228 218 258 122 c 9
 282 124 l 17
 308 191 313 238 348 320 c 1
 348 321 348 322 348 323 c 0xa0
 348 331 349 337 349 343 c 0
 349 347 349 351 346 356 c 8
 335 376 304 370 300 392 c 16
 299 394 299 397 299 399 c 0
 299 415 310 426 324 434 c 0
 337 441 349 446 362 446 c 0
 374 446 385 442 396 434 c 8
 416 419 413 398 414 374 c 16xc0
 414 372 414 371 414 369 c 0
 414 341 405 324 396 296 c 8
 360 191 324 138 276 38 c 24
 265 14 260 -0 246 -22 c 24
 197 -98 153 -130 98 -202 c 24
 86 -218 80 -228 68 -244 c 17
 58 -247 50 -249 43 -249 c 0
 16 -249 8 -227 8 -201 c 0
 8 -198 8 -194 8 -190 c 1
 52 -112 106 -90 156 -24 c 1
 156 -24 167 24 167 104 c 0
 167 132 166 163 162 198 c 1
 161 209 161 219 161 228 c 0
 161 260 164 285 164 319 c 0
 164 333 163 348 162 366 c 1
 141 339 135 319 114 290 c 9xa0
EndSplineSet
Validated: 1
EndChar

StartChar: z
Encoding: 122 122 389
Width: 550
VWidth: 1080
Flags: HW
HStem: 470 21G<102.5 175.5>
LayerCount: 2
Back
Fore
SplineSet
149 262 m 1
 132 256 120 241 106 241 c 0
 103 241 100 242 96 244 c 0
 73 257 66 278 66 302 c 0
 66 316 69 331 72 346 c 8
 80 381 98 399 128 418 c 16
 155 435 178 443 206 443 c 0
 216 443 226 442 237 440 c 8
 283 432 297 399 339 380 c 16
 359 370 370 361 391 361 c 0
 392 361 393 361 394 361 c 8
 415 362 429 368 444 384 c 24
 462 404 445 434 468 448 c 16
 478 454 490 458 500 458 c 0
 515 458 529 452 539 440 c 0
 548 429 552 417 552 405 c 0
 552 387 544 368 533 350 c 8
 510 310 473 311 435 284 c 24
 390 252 362 238 321 200 c 16
 300 181 271 173 271 146 c 0
 271 145 271 143 271 142 c 8
 275 108 311 103 343 90 c 16
 359 83 371 81 385 81 c 0
 391 81 396 81 403 82 c 8
 430 85 448 88 470 104 c 24
 489 118 483 150 506 152 c 16
 507 152 507 152 508 152 c 0
 526 152 535 134 542 116 c 0
 547 101 551 87 551 74 c 0
 551 60 546 46 536 32 c 8
 516 6 490 11 458 4 c 16
 423 -4 399 -10 369 -10 c 0
 360 -10 349 -10 338 -8 c 8
 305 -3 289 11 260 26 c 16
 226 44 213 81 178 81 c 0
 175 81 173 80 170 80 c 8
 133 75 138 29 106 10 c 16
 97 4 89 -2 79 -2 c 0
 76 -2 73 -1 70 0 c 0
 50 8 37 25 37 45 c 0
 37 48 38 51 38 54 c 8
 49 115 111 117 162 152 c 24
 217 190 256 200 308 242 c 24
 321 253 329 259 338 273 c 24
 344 284 359 297 348 303 c 16
 312 323 287 342 244 358 c 16
 225 365 209 377 193 377 c 0
 188 377 182 376 176 372 c 0
 162 363 159 351 159 337 c 0
 159 325 162 312 162 300 c 0
 162 287 159 273 149 262 c 1
EndSplineSet
Validated: 1
EndChar

StartChar: bar
Encoding: 124 124 391
Width: 263
VWidth: 1080
Flags: HW
VStem: 71 112<402 534.248>
LayerCount: 2
Fore
SplineSet
255 39 m 0
 255 37 256 36 256 34 c 0
 256 21 240 16 219 16 c 0
 185 16 137 31 137 46 c 0
 137 47 138 48 138 49 c 1
 138 63 138 76 138 88 c 0
 138 308 130 314 130 696 c 1
 128 699 128 702 128 704 c 0
 128 715 144 720 161 720 c 0
 172 720 184 718 192 714 c 0
 239 690 242 556 242 448 c 0
 242 432 242 416 242 402 c 0
 242 331 239 268 239 208 c 0
 239 149 242 94 255 39 c 0
EndSplineSet
Validated: 1
EndChar

StartChar: braceright
Encoding: 125 125 392
Width: 256
Flags: HW
LayerCount: 2
Fore
SplineSet
290 357 m 1
 213 336 210 345 176 291 c 0
 169 280 167 271 167 261 c 0
 167 239 180 220 184 198 c 0
 185 187 186 177 186 166 c 0
 186 121 172 75 125 36 c 0
 97 13 67 -6 41 -6 c 0
 33 -6 26 -4 19 0 c 8
 10 5 12 19 21 30 c 24
 41 54 73 33 94 57 c 16
 114 81 121 102 121 122 c 0
 121 153 105 184 105 228 c 0
 105 231 105 234 105 237 c 8
 108 290 130 330 214 363 c 1
 185 376 168 395 168 422 c 0
 168 434 171 447 178 462 c 0
 227 567 309 613 309 672 c 0
 309 681 307 690 303 699 c 0
 301 704 297 705 292 705 c 0
 283 705 269 699 259 699 c 0
 254 699 250 701 248 705 c 8
 246 710 248 718 255 723 c 16
 274 738 295 746 314 746 c 0
 328 746 340 741 348 732 c 0
 360 719 365 702 365 684 c 0
 365 643 339 593 305 558 c 8
 274 526 245 505 237 468 c 16
 235 460 235 453 235 447 c 0
 235 406 262 388 290 357 c 1
EndSplineSet
Validated: 1
EndChar

StartChar: asciitilde
Encoding: 126 126 393
Width: 346
VWidth: 1000
Flags: HW
LayerCount: 2
Fore
SplineSet
178 404 m 8
 204 403 216 387 240 377 c 16
 256 371 266 360 282 360 c 0
 283 360 285 360 287 360 c 8
 314 363 316 400 343 400 c 24
 364 399 384 389 386 368 c 16
 386 367 l 0
 386 354 371 351 360 342 c 8
 331 319 315 295 278 294 c 16
 277 294 276 294 274 294 c 0
 232 294 216 344 173 344 c 0
 173 344 172 344 171 344 c 0
 144 343 136 308 112 308 c 0
 110 308 109 308 107 308 c 8
 87 311 72 326 72 347 c 24
 73 367 91 373 108 384 c 16
 130 397 145 404 169 404 c 0
 172 404 175 404 178 404 c 8
EndSplineSet
Validated: 1
EndChar

StartChar: Ccedilla
Encoding: 199 199 395
Width: 641
Flags: H
LayerCount: 2
Fore
SplineSet
440 13 m 1
 441 8 441 2 441 -4 c 0
 441 -22 437 -42 430 -62 c 8
 416 -106 387 -123 350 -151 c 24
 333 -164 323 -172 302 -175 c 16
 285 -177 260 -180 240 -180 c 0
 219 -180 202 -177 202 -167 c 0
 202 -165 203 -162 206 -158 c 0
 246 -100 278 -108 315 -67 c 16
 327 -54 345 -45 345 -30 c 0
 345 -28 345 -26 344 -23 c 0
 343 -20 342 -18 340 -16 c 1
 326 -18 311 -20 295 -20 c 0
 291 -20 288 -20 284 -20 c 8
 231 -18 199 -11 154 16 c 24
 118 38 109 64 80 94 c 17
 65 132 60 167 60 204 c 0
 60 248 67 295 74 352 c 9
 164 604 l 17
 220 692 277 713 386 743 c 1
 443 764 469 767 534 767 c 0
 547 767 561 767 578 767 c 9
 606 750 618 733 650 724 c 16
 659 722 667 721 674 721 c 0
 690 721 703 724 722 724 c 1
 728 710 730 693 730 675 c 0
 730 629 716 575 716 528 c 0
 716 523 716 519 716 514 c 1
 699 513 686 504 672 504 c 0
 667 504 662 505 656 508 c 8
 632 520 635 545 620 568 c 24
 592 612 586 647 544 678 c 24
 526 691 512 696 490 696 c 24
 440 696 409 686 368 658 c 24
 308 617 285 577 252 512 c 24
 229 465 225 434 218 382 c 16
 215 358 213 341 213 322 c 0
 213 310 214 298 215 284 c 8
 219 236 215 205 240 164 c 24
 268 119 297 95 348 80 c 16
 356 77 364 76 371 76 c 0
 386 76 400 81 418 86 c 8
 460 97 487 105 520 134 c 24
 558 167 549 215 592 242 c 16
 601 248 615 256 624 256 c 0
 629 256 633 253 634 248 c 0
 637 237 638 223 638 206 c 0
 638 180 635 149 632 118 c 8
 627 71 637 37 608 0 c 16
 599 -11 589 -22 577 -22 c 0
 574 -22 571 -22 568 -20 c 0
 564 -18 563 -15 563 -10 c 0
 563 -6 564 0 564 5 c 0
 564 9 563 13 560 16 c 0
 552 23 543 25 534 25 c 0
 524 25 512 23 500 22 c 0
 478 21 458 17 440 13 c 1
EndSplineSet
Validated: 1
EndChar

StartChar: ae
Encoding: 230 230 404
Width: 652
VWidth: 1000
Flags: HW
LayerCount: 2
Back
Fore
SplineSet
506 317 m 0
 515 307 525 303 536 303 c 0
 566 303 601 335 632 357 c 0
 646 368 663 377 663 392 c 0
 663 394 663 397 662 399 c 0
 657 415 642 419 625 419 c 0
 618 419 611 419 604 418 c 8
 571 415 552 401 530 376 c 16
 518 361 500 345 500 330 c 0
 500 326 502 321 506 317 c 0
169 93 m 0
 177 88 185 86 192 86 c 0
 223 86 249 121 277 147 c 8
 312 179 323 205 340 249 c 16
 346 265 361 292 361 304 c 0
 361 308 360 310 356 310 c 0
 355 310 354 310 352 309 c 0
 320 297 280 278 242 248 c 24
 207 221 181 206 166 164 c 16
 161 149 155 133 155 119 c 0
 155 108 159 99 169 93 c 0
48 27 m 0
 35 41 31 55 31 71 c 0
 31 90 37 110 37 132 c 0
 37 136 36 141 36 145 c 1
 111 250 143 261 226 317 c 24
 323 382 380 415 496 445 c 0
 534 455 571 468 607 468 c 0
 630 468 652 462 674 445 c 0
 696 428 705 405 705 380 c 0
 705 368 703 354 698 341 c 8
 682 298 645 290 604 269 c 24
 568 251 541 259 506 239 c 24
 460 213 427 197 404 149 c 16
 398 137 393 124 393 112 c 0
 393 104 395 96 402 89 c 0
 405 85 409 84 413 84 c 0
 421 84 430 89 440 89 c 1
 482 104 497 136 530 149 c 1
 547 157 560 161 570 161 c 0
 582 161 588 154 588 141 c 0
 588 135 586 128 584 119 c 1
 553 70 515 58 476 23 c 9
 453 9 443 -9 416 -13 c 16
 407 -14 399 -15 391 -15 c 0
 368 -15 348 -9 330 9 c 0
 306 33 295 51 260 59 c 9
 220 40 202 15 158 9 c 16
 140 6 122 3 106 3 c 0
 85 3 65 9 48 27 c 0
EndSplineSet
Validated: 1
EndChar

StartChar: ccedilla
Encoding: 231 231 405
Width: 334
Flags: H
LayerCount: 2
Fore
SplineSet
252 35 m 1
 252 32 252 29 252 26 c 0
 252 10 248 -7 242 -25 c 8
 231 -58 210 -71 182 -92 c 24
 169 -101 161 -108 146 -110 c 16
 134 -112 116 -114 101 -114 c 0
 85 -114 71 -111 71 -104 c 0
 71 -102 72 -100 74 -97 c 0
 104 -54 128 -60 156 -29 c 16
 165 -19 178 -12 178 -1 c 0
 178 1 178 2 178 3 c 1
 175 3 173 3 170 3 c 0
 156 3 143 5 128 8 c 8
 91 17 82 45 53 69 c 17
 45 99 41 124 41 149 c 0
 41 193 53 231 70 275 c 9
 133 349 145 421 232 465 c 16
 252 475 270 480 288 480 c 0
 303 480 317 477 334 472 c 8
 357 465 378 459 384 436 c 16
 386 429 387 421 387 414 c 0
 387 384 372 356 342 348 c 0
 340 347 339 347 337 347 c 0
 320 347 315 375 296 380 c 0
 285 383 275 385 266 385 c 0
 254 385 242 382 230 374 c 1
 182 331 177 299 158 248 c 1
 150 224 142 207 142 186 c 0
 142 180 142 173 144 166 c 1
 144 165 144 163 144 162 c 0
 144 125 157 108 188 104 c 1
 190 103 192 103 194 103 c 0
 209 103 218 121 236 122 c 0
 245 123 255 124 263 124 c 0
 275 124 285 122 290 110 c 0
 293 104 294 99 294 93 c 0
 294 70 273 51 252 35 c 1
EndSplineSet
Validated: 1
EndChar

StartChar: eth
Encoding: 240 240 414
Width: 444
VWidth: 1000
Flags: HW
LayerCount: 2
Fore
SplineSet
122 84 m 0
 130 79 137 77 145 77 c 0
 178 77 207 125 236 158 c 8
 268 195 283 223 290 272 c 16
 291 279 292 285 292 291 c 0
 292 299 290 306 284 312 c 0
 271 325 254 332 238 332 c 0
 227 332 216 329 206 324 c 1
 177 276 167 238 140 192 c 1
 131 163 108 132 108 109 c 0
 108 99 111 91 122 84 c 0
461 636 m 1
 466 636 471 636 478 635 c 8
 498 632 515 632 527 615 c 16
 535 605 539 594 539 583 c 0
 539 576 537 568 532 561 c 0
 518 541 499 536 477 535 c 1
 473 465 443 391 424 318 c 1
 408 268 383 246 364 192 c 1
 396 150 441 146 444 102 c 1
 408 63 372 24 328 0 c 9
 256 18 l 17
 253 24 252 31 252 37 c 0
 252 58 264 80 264 104 c 0
 264 109 263 115 262 120 c 1
 261 127 259 131 257 131 c 0
 245 131 219 44 184 23 c 0
 161 9 140 0 117 0 c 0
 107 0 97 2 86 5 c 8
 52 15 30 34 20 68 c 16
 17 77 16 84 16 92 c 0
 16 119 31 141 44 172 c 8
 69 234 98 262 132 320 c 17
 181 379 213 419 274 458 c 1
 291 463 306 465 319 465 c 0
 354 465 372 449 386 428 c 1
 401 469 414 467 414 496 c 16
 414 507 415 513 415 518 c 0
 415 523 414 526 411 532 c 1
 405 532 399 531 392 531 c 0
 366 531 342 537 325 561 c 0
 320 567 318 574 318 581 c 0
 318 591 322 600 329 608 c 0
 333 612 336 615 340 618 c 1
 324 631 309 643 298 666 c 0
 296 671 295 677 295 683 c 0
 295 706 310 731 335 737 c 0
 341 738 346 739 351 739 c 0
 391 739 413 696 447 661 c 1
 453 653 457 644 461 636 c 1
EndSplineSet
Validated: 1
EndChar

StartChar: divide
Encoding: 247 247 421
Width: 346
Flags: HW
LayerCount: 2
Fore
SplineSet
192 323 m 8
 184 325 180 330 177 338 c 16
 173 349 170 358 170 367 c 0
 170 376 172 385 177 394 c 8
 185 409 196 419 213 419 c 24
 230 419 240 409 248 394 c 16
 253 383 257 373 257 363 c 0
 257 354 254 346 248 338 c 0
 238 325 226 320 211 320 c 0
 205 320 199 321 192 323 c 8
192 50 m 8
 184 52 180 57 177 65 c 16
 173 76 170 85 170 94 c 0
 170 103 172 112 177 121 c 8
 185 136 196 146 213 146 c 24
 230 146 240 136 248 121 c 16
 253 110 257 100 257 90 c 0
 257 81 254 73 248 65 c 0
 238 52 226 47 211 47 c 0
 205 47 199 48 192 50 c 8
71 202 m 0
 65 210 62 219 62 229 c 0
 62 241 68 254 77 265 c 8
 108 300 148 284 194 292 c 16
 219 296 236 302 259 302 c 0
 264 302 269 302 275 301 c 8
 303 297 325 296 341 274 c 16
 351 261 357 246 357 232 c 0
 357 222 354 212 347 202 c 8
 320 162 278 168 230 166 c 16
 206 165 183 163 161 163 c 0
 125 163 94 170 71 202 c 0
EndSplineSet
Validated: 1
EndChar

StartChar: oslash
Encoding: 248 248 422
Width: 352
VWidth: 1000
Flags: HW
LayerCount: 2
Fore
SplineSet
307 419 m 1
 320 438 l 1
 348 452 361 478 391 478 c 0
 393 478 395 478 397 478 c 8
 418 475 433 463 439 442 c 16
 442 433 443 422 443 409 c 0
 443 365 428 308 413 308 c 0
 409 308 405 311 402 318 c 0
 386 347 382 359 381 362 c 0
 380 367 378 363 374 360 c 0
 368 356 361 361 355 360 c 1
 356 356 356 351 356 346 c 0
 356 336 355 325 354 314 c 8
 349 223 330 170 284 92 c 24
 258 48 243 10 194 -4 c 16
 180 -8 166 -10 152 -10 c 0
 127 -10 103 -2 82 14 c 1
 64 -5 35 -35 17 -47 c 1
 7 -49 -1 -55 -9 -55 c 0
 -11 -55 -14 -55 -16 -53 c 0
 -35 -39 -44 -19 -44 3 c 0
 -44 19 -39 35 -30 50 c 0
 -22 62 -11 70 2 70 c 0
 6 70 11 69 15 67 c 0
 32 61 28 63 47 56 c 1
 42 69 41 83 41 98 c 0
 41 108 42 119 42 130 c 8
 44 185 57 217 82 266 c 24
 116 331 131 383 198 412 c 16
 221 422 244 428 265 428 c 0
 280 428 294 425 307 419 c 1
264 349 m 1
 255 350 245 348 234 344 c 8
 192 328 178 299 156 260 c 16
 132 218 120 188 116 145 c 1
 162 215 l 8
 188 253 198 280 231 312 c 16
 254 335 257 338 264 349 c 1
296 306 m 1
 281 285 274 265 257 240 c 8
 236 210 246 211 201 165 c 0
 175 138 153 108 130 68 c 1
 125 63 l 1
 126 62 l 0
 132 58 139 56 146 56 c 0
 157 56 169 61 180 68 c 8
 216 88 223 116 243 152 c 24
 270 201 286 231 293 286 c 16
 294 293 295 299 296 306 c 1
EndSplineSet
Validated: 1
EndChar

StartChar: thorn
Encoding: 254 254 428
Width: 372
VWidth: 1000
Flags: HW
VStem: 290 118<-160 3>
LayerCount: 2
Fore
SplineSet
278 408 m 1
 231 368 233 313 212 252 c 1
 202 208 192 196 187 139 c 1
 206 133 218 120 235 120 c 0
 238 120 242 121 246 122 c 8
 288 137 286 179 312 216 c 17
 332 269 341 294 348 366 c 9
 341 385 347 404 330 414 c 16
 326 417 321 418 317 418 c 0
 305 418 293 409 278 408 c 1
217 554 m 1
 207 556 198 560 188 568 c 0
 176 578 165 593 165 607 c 0
 165 612 167 617 170 622 c 0
 182 640 198 646 216 646 c 0
 244 646 277 633 310 632 c 0
 313 632 316 632 319 632 c 0
 329 632 340 632 349 632 c 0
 370 632 388 631 400 620 c 9
 376 548 l 17
 348 551 332 552 323 552 c 1
 320 526 310 505 302 478 c 9
 330 462 356 463 374 436 c 16
 402 393 414 352 414 309 c 0
 414 278 408 245 398 208 c 8
 386 161 363 137 326 106 c 24
 292 78 259 84 224 58 c 24
 184 28 173 -1 140 -38 c 17
 116 -84 89 -128 84 -178 c 1
 89 -179 95 -179 100 -179 c 0
 104 -179 108 -179 112 -179 c 0
 124 -179 134 -181 140 -192 c 0
 143 -197 144 -202 144 -207 c 0
 144 -222 134 -236 122 -246 c 0
 106 -259 91 -262 74 -262 c 0
 63 -262 52 -261 40 -261 c 0
 33 -261 26 -261 18 -262 c 1
 6 -262 4 -261 -2 -261 c 0
 -10 -261 -23 -262 -66 -266 c 9
 -90 -194 l 17
 -86 -190 -80 -189 -73 -189 c 0
 -61 -189 -45 -193 -30 -193 c 0
 -19 -193 -9 -191 0 -182 c 1
 46 -62 63 5 104 122 c 9
 104 122 164 347 182 405 c 0
 198 474 184 442 212 498 c 1
 217 518 215 537 217 554 c 1
EndSplineSet
Validated: 1
EndChar

StartChar: Dcroat
Encoding: 272 272 446
Width: 732
VWidth: 1080
Flags: HW
VStem: 138.262 108.902<200.747 329.746>
LayerCount: 2
Fore
SplineSet
343 434 m 1
 356 431 367 425 377 412 c 0
 387 399 393 384 393 370 c 0
 393 360 390 350 383 340 c 0
 362 310 332 306 298 305 c 1
 292 288 l 8
 275 240 256 216 246 166 c 16
 244 155 243 145 243 136 c 0
 243 124 244 113 244 98 c 0
 244 96 244 93 244 90 c 1
 296 79 349 84 400 78 c 9
 435 108 458 122 490 156 c 24
 541 211 572 243 604 310 c 16
 627 357 640 389 640 440 c 0
 640 442 640 444 640 446 c 8
 638 515 632 563 586 614 c 16
 552 652 517 668 469 668 c 0
 466 668 463 668 460 668 c 8
 434 667 417 658 400 638 c 24
 360 589 376 542 358 482 c 16
 343 434 l 1
193 427 m 1
 249 639 l 9
 214 653 176 642 158 676 c 16
 155 682 154 688 154 693 c 0
 154 713 170 730 176 754 c 1
 237 756 278 758 338 760 c 9
 371 753 389 749 422 742 c 24
 511 724 569 739 650 698 c 24
 707 668 739 640 770 584 c 24
 791 546 792 518 793 475 c 16
 793 465 793 455 793 446 c 0
 793 388 787 347 764 288 c 8
 752 257 737 242 716 216 c 24
 669 158 645 121 584 78 c 24
 513 29 460 24 380 -10 c 17
 354 -8 328 -7 304 -7 c 0
 234 -7 170 -14 108 -14 c 0
 79 -14 51 -12 22 -8 c 1
 14 15 -2 29 -2 49 c 0
 -2 53 -1 58 0 62 c 8
 15 107 70 94 98 132 c 24
 123 166 118 196 132 236 c 16
 157 305 l 1
 138 310 121 321 107 340 c 0
 101 348 98 357 98 367 c 0
 98 379 104 392 113 403 c 0
 132 426 155 427 181 427 c 0
 185 427 189 427 193 427 c 1
EndSplineSet
Validated: 1
EndChar

StartChar: dcroat
Encoding: 273 273 447
Width: 508
Flags: HW
HStem: 538 92<318 319> 538 95.296<294 318>
VStem: 318 70<517 542 638.816 644 644.031 690.991>
LayerCount: 2
Fore
SplineSet
122 84 m 0
 129 82 135 81 141 81 c 0
 180 81 206 123 236 158 c 8
 269 195 275 225 290 272 c 16
 292 279 294 286 294 292 c 0
 294 300 291 308 284 312 c 0
 268 322 254 322 238 322 c 0
 234 322 l 0
 225 322 216 322 206 324 c 1
 177 276 151 249 132 194 c 16
 123 167 103 133 103 110 c 0
 103 98 108 89 122 84 c 0
400 472 m 1
 367 473 338 481 316 511 c 0
 310 519 307 528 307 538 c 0
 307 550 313 563 322 574 c 0
 352 608 390 594 434 600 c 1
 438 610 444 622 452 638 c 1
 446 639 440 640 434 640 c 0
 424 640 414 639 406 639 c 0
 391 639 379 642 372 656 c 0
 370 660 369 664 369 667 c 0
 369 687 394 700 404 722 c 1
 416 739 430 750 489 750 c 0
 508 750 531 748 560 746 c 1
 574 734 579 720 579 706 c 0
 579 677 560 645 550 610 c 1
 548 606 l 1
 563 603 576 597 586 583 c 0
 596 570 602 555 602 541 c 0
 602 531 599 521 592 511 c 0
 566 473 527 476 481 475 c 1
 459 428 441 380 424 318 c 1
 408 268 383 246 364 192 c 1
 396 150 441 146 444 102 c 1
 408 63 372 24 328 0 c 9
 256 18 l 17
 253 24 252 31 252 37 c 0
 252 58 264 80 264 104 c 0
 264 109 263 115 262 120 c 1
 261 127 259 131 257 131 c 0
 245 131 219 44 184 23 c 0
 161 9 140 0 117 0 c 0
 107 0 97 2 86 5 c 8
 52 15 30 34 20 68 c 16
 17 77 16 84 16 92 c 0
 16 119 31 141 44 172 c 8
 69 234 98 262 132 320 c 17
 181 379 213 419 274 458 c 1
 291 463 306 465 319 465 c 0
 354 465 372 449 386 428 c 1
 392 444 396 458 400 472 c 1
EndSplineSet
Validated: 1
EndChar

StartChar: Hbar
Encoding: 294 294 468
Width: 810
VWidth: 1080
Flags: HW
LayerCount: 2
Fore
SplineSet
778 572 m 1
 812 573 845 574 877 577 c 0
 879 577 880 577 882 577 c 0
 895 577 901 570 901 561 c 0
 901 542 878 513 860 513 c 0
 859 513 858 513 857 513 c 1
 825 514 797 515 771 515 c 1
 767 475 761 431 742 386 c 1
 718 264 661 172 644 74 c 1
 648 73 652 73 656 73 c 0
 670 73 682 76 694 76 c 0
 705 76 716 73 724 62 c 0
 728 57 729 53 729 48 c 0
 729 36 719 23 718 8 c 1
 705 11 692 12 678 12 c 0
 644 12 605 5 562 0 c 1
 549 3 537 4 525 4 c 0
 498 4 472 -2 440 -2 c 0
 431 -2 422 -1 412 0 c 1
 413 5 413 10 413 15 c 0
 413 23 412 31 412 38 c 0
 412 49 414 59 424 68 c 0
 436 78 448 82 461 82 c 0
 481 82 503 74 527 74 c 0
 529 74 530 74 532 74 c 1
 559 143 590 231 590 299 c 0
 590 321 587 340 580 356 c 1
 552 354 520 354 487 354 c 0
 472 354 l 0
 410 354 346 354 298 344 c 1
 232 281 239 184 238 74 c 1
 239 74 241 74 242 74 c 0
 259 74 276 80 291 80 c 0
 300 80 309 77 316 68 c 0
 319 63 321 59 321 54 c 0
 321 40 308 25 304 8 c 1
 300 8 295 8 291 8 c 0
 257 8 205 5 152 0 c 1
 142 3 132 4 123 4 c 0
 100 4 78 -2 45 -2 c 0
 36 -2 26 -1 14 0 c 9
 21 30 9 56 32 78 c 16
 38 83 45 85 52 85 c 0
 65 85 78 81 90 81 c 0
 98 81 106 83 110 92 c 0
 122 116 131 149 140 186 c 24
 150 228 151 252 160 294 c 24
 170 343 174 372 188 420 c 16
 200 460 213 491 226 521 c 1
 139 523 l 1
 136 522 133 522 131 522 c 0
 119 522 115 529 115 537 c 0
 115 544 118 552 124 557 c 0
 140 571 189 577 250 579 c 1
 257 598 265 619 272 642 c 1
 266 653 256 657 244 657 c 0
 228 657 209 650 192 650 c 0
 182 650 172 652 164 660 c 8
 150 673 157 689 152 708 c 17
 187 724 247 708 308 726 c 1
 317 725 325 725 333 725 c 0
 360 725 384 728 408 728 c 0
 427 728 445 726 464 720 c 1
 464 718 464 716 464 715 c 0
 464 706 466 698 466 690 c 0
 466 684 464 678 458 672 c 0
 453 668 448 666 443 666 c 0
 433 666 423 671 413 671 c 0
 408 671 403 669 398 666 c 0
 369 644 373 614 365 580 c 1
 403 580 441 579 474 578 c 0
 551 577 620 573 685 572 c 1
 695 593 706 612 706 632 c 0
 706 641 704 650 698 660 c 8
 683 686 654 675 626 684 c 17
 626 705 640 726 650 738 c 1
 658 741 666 743 676 743 c 0
 703 743 736 732 775 732 c 0
 777 732 780 732 782 732 c 1
 785 732 788 732 791 732 c 0
 815 732 836 738 857 738 c 0
 867 738 877 737 888 732 c 1
 898 717 901 705 901 695 c 0
 901 676 890 666 890 666 c 1
 879 667 865 671 849 671 c 0
 838 671 825 668 812 660 c 1
 792 634 783 604 778 572 c 1
348 519 m 1
 340 490 335 463 326 426 c 1
 385 410 460 407 525 407 c 0
 558 407 589 408 614 408 c 1
 633 451 649 478 664 516 c 1
 573 517 503 517 348 519 c 1
EndSplineSet
Validated: 1
EndChar

StartChar: dotlessi
Encoding: 305 305 470
Width: 244
VWidth: 1000
Flags: HW
LayerCount: 2
Back
Fore
SplineSet
66 8 m 8
 47 14 32 19 24 38 c 16
 22 44 21 49 21 54 c 0
 21 70 30 84 35 102 c 8
 49 151 61 178 85 222 c 16
 103 254 118 274 140 290 c 8
 147 295 140 303 140 312 c 17
 101 308 135 308 54 306 c 9
 77 348 l 17
 101 390 129 417 175 440 c 1
 176 440 l 0
 185 440 187 456 235 456 c 0
 244 456 254 455 266 454 c 1
 268 432 274 414 274 396 c 0
 274 381 270 366 255 348 c 9
 220 290 198 258 165 198 c 24
 152 175 137 164 134 138 c 24
 133 126 131 113 142 108 c 16
 146 106 149 105 153 105 c 0
 174 105 189 138 216 138 c 0
 217 138 217 138 218 138 c 8
 232 137 247 134 250 120 c 16
 251 117 251 113 251 110 c 0
 251 81 219 66 194 44 c 8
 174 27 160 19 134 12 c 16
 118 8 105 4 92 4 c 0
 84 4 76 5 66 8 c 8
EndSplineSet
Validated: 1
EndChar

StartChar: longs
Encoding: 383 383 479
Width: 236
VWidth: 1080
Flags: HW
HStem: -251.467 165.194<-207.412 -101.081>
LayerCount: 2
Fore
SplineSet
-234 -192 m 16
 -235 -186 -236 -180 -236 -174 c 0
 -236 -139 -218 -110 -186 -94 c 0
 -175 -89 -165 -86 -155 -86 c 0
 -136 -86 -119 -94 -102 -108 c 8
 -82 -124 -87 -145 -78 -168 c 17
 0 -90 21 -14 175 316 c 9
 248 456 253 560 361 676 c 24
 396 713 422 734 472 744 c 16
 488 747 502 749 516 749 c 0
 544 749 570 742 600 726 c 0
 622 715 644 705 644 682 c 0
 644 681 644 681 644 680 c 8
 642 644 609 622 572 620 c 16
 571 620 l 0
 543 620 538 650 512 662 c 8
 492 671 479 669 458 674 c 17
 338 569 328 448 251 310 c 1
 185 166 166 68 83 -50 c 9
 28 -115 14 -172 -58 -217 c 16
 -89 -237 -115 -251 -147 -251 c 0
 -157 -251 -167 -250 -178 -247 c 8
 -208 -239 -229 -222 -234 -192 c 16
EndSplineSet
Validated: 1
EndChar

StartChar: uni0180
Encoding: 384 384 480
Width: 411
VWidth: 1000
Flags: HW
VStem: 68.3836 83.8434<235.594 395.906 429.656 454.912>
LayerCount: 2
Fore
SplineSet
172 44 m 8
 238 47 261 101 305 151 c 17
 323 180 331 199 356 236 c 1
 363 258 372 279 372 298 c 0
 372 308 370 318 362 327 c 0
 354 336 345 340 334 340 c 0
 325 340 315 337 304 334 c 8
 256 321 236 295 201 260 c 24
 172 230 152 213 139 173 c 16
 132 151 126 132 126 113 c 0
 126 97 130 82 139 65 c 0
 146 53 156 44 170 44 c 0
 170 44 171 44 172 44 c 8
261 478 m 1
 250 449 l 1
 242 418 243 434 204 346 c 9
 242 342 l 17
 286 371 286 386 329 392 c 1
 336 393 351 396 367 396 c 0
 386 396 409 392 426 375 c 1
 439 360 444 345 444 329 c 0
 444 305 433 279 428 249 c 1
 394 153 361 133 314 75 c 9
 272 46 255 15 206 0 c 16
 178 -8 153 -14 129 -14 c 0
 106 -14 84 -9 61 6 c 8
 38 21 41 44 27 69 c 17
 59 193 75 199 90 263 c 1
 163 477 l 1
 137 479 114 484 96 498 c 0
 90 503 87 508 87 513 c 0
 87 521 93 528 102 534 c 0
 126 549 154 547 187 548 c 1
 192 563 l 1
 208 611 214 636 255 683 c 1
 251 684 247 684 244 684 c 0
 232 684 221 682 211 682 c 0
 200 682 190 684 181 694 c 0
 176 700 174 707 174 714 c 0
 174 721 176 728 181 734 c 0
 193 748 207 752 223 752 c 0
 236 752 250 749 265 749 c 0
 271 749 277 750 284 751 c 1
 289 750 294 750 298 750 c 0
 307 750 315 751 325 751 c 0
 338 751 355 749 381 743 c 1
 391 734 398 724 398 713 c 0
 398 703 391 691 373 677 c 9
 360 671 346 675 339 662 c 16
 317 620 303 587 291 555 c 1
 294 554 297 554 300 554 c 8
 328 552 350 551 366 539 c 16
 376 531 382 523 382 515 c 0
 382 509 379 503 372 498 c 0
 346 477 307 479 261 478 c 1
EndSplineSet
Validated: 1
EndChar

StartChar: uni0181
Encoding: 385 385 481
Width: 577
VWidth: 1080
Flags: HW
LayerCount: 2
Fore
SplineSet
332 416 m 1
 379 422 406 421 446 434 c 9
 478 448 498 459 518 488 c 16
 538 517 547 542 547 574 c 0
 547 579 546 585 546 590 c 8
 542 633 534 664 500 690 c 16
 481 705 460 714 439 714 c 0
 427 714 416 711 404 704 c 8
 371 683 387 645 374 608 c 24
 359 568 340 548 332 506 c 16
 328 485 318 464 318 446 c 0
 318 435 322 425 332 416 c 1
300 358 m 8
 257 320 268 274 256 218 c 16
 248 179 235 145 235 113 c 0
 235 102 236 92 240 82 c 1
 243 81 246 81 249 81 c 0
 267 81 294 88 321 88 c 0
 335 88 348 86 360 80 c 9
 390 102 417 105 438 136 c 16
 459 168 473 196 473 229 c 0
 473 240 472 252 468 264 c 8
 453 319 421 352 366 370 c 16
 357 373 349 374 341 374 c 0
 327 374 313 369 300 358 c 8
18 0 m 1
 17 6 16 12 16 18 c 0
 16 40 22 66 28 84 c 1
 33 85 39 85 44 85 c 0
 49 85 55 85 60 85 c 0
 70 85 80 87 88 96 c 8
 117 130 116 161 130 204 c 24
 151 271 159 310 178 378 c 17
 202 518 265 639 280 690 c 1
 270 692 255 693 239 693 c 0
 211 693 182 691 172 688 c 0
 171 688 171 687 171 686 c 0
 171 680 188 658 188 639 c 0
 188 633 186 628 182 623 c 0
 179 620 176 618 172 618 c 0
 161 618 147 628 140 636 c 0
 126 650 120 667 120 685 c 0
 120 704 127 724 140 740 c 0
 152 755 188 760 204 762 c 0
 222 764 241 763 262 765 c 0
 272 766 281 765 289 765 c 0
 316 765 338 761 370 758 c 0
 381 757 391 757 401 757 c 0
 436 757 469 761 499 761 c 0
 534 761 568 755 602 730 c 8
 645 698 658 658 658 604 c 16
 658 598 658 593 658 588 c 0
 658 535 645 498 610 454 c 0
 576 410 488 434 488 379 c 0
 488 378 l 8
 513 364 537 366 552 342 c 24
 583 294 600 261 600 204 c 16
 600 197 600 191 600 184 c 0
 600 136 595 96 558 60 c 8
 527 30 492 42 450 30 c 17
 447 30 445 30 442 30 c 0
 345 30 276 -2 103 -2 c 0
 77 -2 49 -2 18 0 c 1
EndSplineSet
Validated: 1
EndChar

StartChar: uni0182
Encoding: 386 386 482
Width: 577
VWidth: 1080
Flags: HW
HStem: 0 84<21.8449 98.0595 235.259 319.323> 30.0649 57.8111<255.324 446.176> 374.229 49.994<333.354 405.072> 374.229 41.7708<332 383.384> 693.026 70.9737<190.56 279.534> 710.332 54.9456<458.363 597.091> 716.196 39.4218<396.408 518.567>
VStem: 473.157 127.05<157.763 303.303> 604.735 63.0946<621.011 657.069> 612.89 54.94<621.04 693.213>
LayerCount: 2
Fore
SplineSet
416 418 m 0x2140
 458 406 460 394 488 378 c 24
 513 364 534 364 552 342 c 24
 589 298 599 261 600 204 c 16
 600 197 600 191 600 184 c 0
 600 136 595 96 558 60 c 8
 527 29 492 42 450 30 c 17
 447 30 445 30 442 30 c 0x6140
 345 30 276 -2 103 -2 c 0
 77 -2 49 -2 18 0 c 1
 17 6 16 12 16 18 c 0
 16 40 22 66 28 84 c 9
 51 89 70 81 88 96 c 24
 123 125 116 161 130 204 c 24
 152 271 159 310 178 378 c 17
 202 518 265 639 280 690 c 1
 270 692 261 693 253 693 c 0
 225 693 206 683 190 683 c 0
 180 683 172 686 162 696 c 0
 156 702 153 709 153 717 c 0
 153 725 156 733 162 740 c 8
 187 771 222 760 262 764 c 16x8940
 274 765 284 766 294 766 c 0
 319 766 340 762 370 758 c 0
 383 756 397 756 412 756 c 0x0340
 467 756 529 765 580 765 c 0
 610 765 636 762 654 751 c 0
 665 744 668 718 668 692 c 0x0540
 668 676 667 660 666 648 c 0
 665 625 652 618 633 618 c 0
 625 618 616 619 606 621 c 0
 605 621 605 622 605 623 c 0x0580
 605 628 613 642 613 658 c 0
 613 669 609 681 596 691 c 0
 576 707 545 710 519 710 c 0x0540
 513 710 507 710 502 710 c 0
 501 710 500 710 499 710 c 0
 477 710 458 716 440 716 c 0
 427 716 416 713 404 704 c 8
 373 680 387 645 374 608 c 24
 359 568 340 548 332 506 c 16
 330 495 329 485 329 475 c 0
 329 456 332 439 332 416 c 1x1340
 361 420 371 424 384 424 c 0
 392 424 401 423 416 418 c 0x2140
300 358 m 8
 257 320 268 274 256 218 c 16
 248 179 235 145 235 113 c 0
 235 102 236 92 240 82 c 1
 243 81 246 81 249 81 c 0
 267 81 294 88 321 88 c 0
 335 88 348 86 360 80 c 9
 390 102 417 105 438 136 c 16
 459 168 473 196 473 229 c 0
 473 240 472 252 468 264 c 8
 453 319 421 352 366 370 c 16
 357 373 349 374 341 374 c 0
 327 374 313 369 300 358 c 8
EndSplineSet
Validated: 1
EndChar

StartChar: uni0183
Encoding: 387 387 483
Width: 417
VWidth: 1000
Flags: HW
LayerCount: 2
Fore
SplineSet
172 44 m 8
 238 47 261 101 305 151 c 17
 323 180 331 199 356 236 c 1
 363 258 372 279 372 298 c 0
 372 308 370 318 362 327 c 0
 354 336 345 340 334 340 c 0
 325 340 315 337 304 334 c 8
 256 321 236 295 201 260 c 24
 172 230 152 213 139 173 c 16
 132 151 126 132 126 113 c 0
 126 97 130 82 139 65 c 0
 146 53 156 44 170 44 c 0
 170 44 171 44 172 44 c 8
61 6 m 8
 38 21 41 44 27 69 c 17
 59 193 75 199 90 263 c 9
 192 563 l 17
 208 611 214 636 255 683 c 1
 251 684 247 684 244 684 c 0
 232 684 221 682 211 682 c 0
 200 682 190 684 181 694 c 0
 176 700 174 707 174 714 c 0
 174 721 176 728 181 734 c 0
 193 748 207 752 223 752 c 0
 236 752 250 749 265 749 c 0
 271 749 277 750 284 751 c 1
 289 750 293 750 297 750 c 0
 306 750 315 751 326 751 c 0
 334 751 343 751 354 749 c 0
 362 748 483 737 494 734 c 1
 503 726 513 690 513 652 c 0
 513 612 503 569 474 546 c 0
 467 541 459 538 450 538 c 0
 438 538 426 544 422 553 c 0
 421 555 421 557 421 560 c 0
 421 580 443 616 443 652 c 0
 443 661 441 669 438 678 c 0
 434 687 423 691 408 691 c 0
 382 691 347 678 339 662 c 0
 295 578 284 532 249 449 c 17
 242 418 243 434 204 346 c 9
 242 342 l 17
 286 371 286 386 329 392 c 1
 336 393 351 396 367 396 c 0
 386 396 409 392 426 375 c 1
 439 360 444 345 444 329 c 0
 444 305 433 279 428 249 c 1
 394 153 361 133 314 75 c 9
 272 46 255 15 206 0 c 16
 178 -8 153 -14 129 -14 c 0
 106 -14 84 -9 61 6 c 8
EndSplineSet
Validated: 1
EndChar

StartChar: uni01C1
Encoding: 449 449 489
Width: 493
Flags: HW
VStem: 99 99<288 704.23> 105 93<175.556 303> 267 117<192 417>
LayerCount: 2
Fore
SplineSet
294 -231 m 1
 284 -186 281 -145 281 -104 c 0
 281 -50 286 3 286 65 c 0
 286 80 286 95 285 111 c 8
 280 230 269 297 267 417 c 16
 267 444 266 467 266 488 c 0
 266 559 269 609 276 720 c 1
 290 732 306 738 323 738 c 0
 345 738 368 728 384 711 c 1
 393 638 396 578 396 524 c 0
 396 415 384 327 384 192 c 0
 384 113 386 56 386 -8 c 0
 386 -40 386 -74 384 -114 c 0
 384 -124 383 -133 383 -141 c 0
 383 -144 383 -147 383 -149 c 0
 383 -170 383 -188 375 -222 c 1
 362 -236 345 -244 328 -244 c 0
 316 -244 304 -240 294 -231 c 1
117 -234 m 1
 105 18 109 94 105 303 c 16
 103 436 98 493 98 621 c 0
 98 652 98 686 99 726 c 1
 112 740 130 746 148 746 c 0
 166 746 184 740 198 726 c 1
 208 716 211 705 211 694 c 0
 211 671 198 646 198 618 c 8
 198 489 198 417 198 288 c 16
 198 152 205 105 205 -4 c 0
 205 -59 203 -129 198 -234 c 1
 187 -245 172 -250 158 -250 c 0
 143 -250 128 -245 117 -234 c 1
EndSplineSet
Validated: 1
EndChar

StartChar: uni01C2
Encoding: 450 450 490
Width: 355
VWidth: 1080
Flags: HW
LayerCount: 2
Fore
SplineSet
131 203 m 5
 99 213 73 228 60 263 c 4
 56 272 56 282 58 291 c 4
 61 303 70 314 82 322 c 4
 95 330 107 333 119 333 c 4
 132 333 146 330 161 326 c 5
 165 346 171 367 176 390 c 5
 146 400 122 415 110 448 c 4
 106 458 105 468 108 476 c 4
 111 489 119 499 132 507 c 4
 144 516 156 518 169 518 c 4
 181 518 194 516 207 512 c 5
 220 563 236 625 256 701 c 5
 255 704 255 707 256 709 c 4
 258 716 265 718 274 718 c 4
 280 718 286 718 292 716 c 4
 303 713 314 708 321 702 c 4
 334 690 339 667 339 638 c 4
 339 598 330 547 317 496 c 5
 322 495 327 493 332 491 c 12
 357 480 378 473 389 448 c 20
 393 438 395 428 395 418 c 4
 395 413 394 408 393 403 c 4
 390 393 385 384 376 377 c 4
 361 363 345 359 327 359 c 4
 313 359 298 362 282 366 c 5
 277 346 272 329 266 311 c 5
 271 310 277 308 283 305 c 12
 308 295 329 288 339 262 c 20
 343 252 345 242 345 233 c 4
 345 228 344 223 343 218 c 4
 340 208 335 199 327 191 c 4
 311 178 294 173 277 173 c 4
 262 173 246 176 230 181 c 5
 217 130 209 83 207 34 c 4
 207 32 206 30 206 29 c 4
 204 21 196 17 186 17 c 4
 180 17 173 18 166 20 c 4
 134 29 95 54 95 69 c 4
 95 70 95 70 95 71 c 4
 95 72 96 73 96 74 c 5
 101 91 106 108 110 123 c 4
 118 153 125 179 131 203 c 5
EndSplineSet
Validated: 1
EndChar

StartChar: uni01E4
Encoding: 484 484 515
Width: 710
VWidth: 1080
Flags: HW
LayerCount: 2
Fore
SplineSet
511 116 m 1
 481 117 454 122 434 138 c 0
 428 143 425 148 425 153 c 0
 425 160 431 167 440 173 c 0
 459 186 482 187 507 187 c 0
 513 187 519 187 526 187 c 1
 526 204 521 219 510 236 c 8
 487 271 436 248 414 284 c 24
 409 293 414 300 414 310 c 17
 436 319 456 322 476 322 c 0
 507 322 537 316 572 316 c 0
 577 316 583 316 588 316 c 1
 628 316 651 316 684 316 c 0
 700 316 719 316 744 316 c 1
 744 300 751 286 751 273 c 0
 751 266 749 260 744 254 c 0
 734 242 723 240 710 240 c 0
 697 240 682 243 667 243 c 0
 662 243 658 243 654 242 c 1
 650 226 650 210 650 193 c 1
 672 191 690 189 704 178 c 0
 714 171 720 163 720 155 c 0
 720 149 717 143 710 138 c 0
 695 125 674 121 651 119 c 1
 650 112 649 105 648 98 c 1
 647 92 647 85 647 79 c 0
 647 73 647 67 647 61 c 0
 647 49 645 37 636 26 c 8
 614 -2 587 -2 552 -10 c 16
 504 -21 466 -28 426 -28 c 0
 398 -28 370 -24 336 -16 c 8
 255 4 207 29 148 88 c 24
 114 122 103 150 88 196 c 16
 73 240 64 272 64 312 c 0
 64 323 65 334 66 346 c 8
 75 437 91 493 144 568 c 24
 192 637 235 666 310 705 c 24
 366 734 403 740 466 747 c 16
 492 750 514 752 534 752 c 0
 561 752 586 749 618 743 c 8
 652 737 672 731 702 713 c 24
 731 696 742 678 768 656 c 17
 768 653 768 650 768 647 c 0
 768 592 752 532 710 494 c 9
 660 506 l 17
 642 552 659 590 626 628 c 9
 597 653 588 681 552 692 c 16
 539 696 527 698 516 698 c 0
 493 698 471 690 444 680 c 8
 385 657 355 631 312 584 c 24
 273 540 253 510 236 454 c 16
 221 405 215 367 215 325 c 0
 215 298 218 269 222 236 c 8
 229 185 232 151 264 110 c 24
 288 79 311 67 348 56 c 16
 370 49 389 44 408 44 c 0
 424 44 439 48 456 56 c 0
 485 70 500 89 511 116 c 1
EndSplineSet
Validated: 1
EndChar

